<?xml version="1.0" standalone="no"?>
<!DOCTYPE svg PUBLIC "-//W3C//DTD SVG 1.1//EN" "http://www.w3.org/Graphics/SVG/1.1/DTD/svg11.dtd" >
<svg xmlns="http://www.w3.org/2000/svg" xmlns:xlink="http://www.w3.org/1999/xlink" version="1.1">
<metadata></metadata>
<defs>
<font id="playregular" horiz-adv-x="1187" >
<font-face units-per-em="2048" ascent="1638" descent="-410" />
<missing-glyph horiz-adv-x="471" />
<glyph horiz-adv-x="0" />
<glyph unicode="&#xd;" horiz-adv-x="471" />
<glyph horiz-adv-x="0" />
<glyph horiz-adv-x="0" />
<glyph unicode=" "  horiz-adv-x="471" />
<glyph unicode="&#x09;" horiz-adv-x="471" />
<glyph unicode="&#xa0;" horiz-adv-x="471" />
<glyph unicode="!" horiz-adv-x="573" d="M164 1329h246l-72 -962h-102zM168 0v221h238v-221h-238z" />
<glyph unicode="&#x22;" horiz-adv-x="907" d="M174 879v450h176v-450h-176zM557 879v450h176v-450h-176z" />
<glyph unicode="#" d="M123 408v127h225l53 260h-278v127h303l76 387h135l-76 -387h172l76 387h135l-76 -387h197v-127h-223l-51 -260h274v-127h-299l-80 -408h-135l80 408h-172l-80 -408h-135l80 408h-201zM483 535h172l54 260h-174z" />
<glyph unicode="$" d="M123 913v86q0 147 94 221t324 87v145h116v-143q127 0 330 -23v-145q-252 27 -330 30v-430h62q137 0 214 -32.5t108.5 -99t31.5 -179.5v-76q0 -186 -100.5 -272t-315.5 -98v-271h-116v267q-156 0 -391 32v162q8 0 73 -14q59 -12 99 -17.5t94 -9.5q63 -6 125 -6v467h-60 q-195 0 -276.5 78t-81.5 241zM315 874q0 -70 51.5 -101.5t174.5 -31.5v428q-131 -8 -178.5 -45t-47.5 -118v-132zM657 131q111 6 166.5 42t55.5 114v151q0 86 -49.5 121t-172.5 35v-463z" />
<glyph unicode="%" horiz-adv-x="1751" d="M94 844v256q0 129 81 179t243 50t241.5 -50t79.5 -179v-256q0 -135 -100 -172q-49 -18 -97 -24.5t-124 -6.5t-124 6t-97 25q-102 37 -103 172zM254 852q0 -63 37 -83.5t127 -20.5t126 20t36 84v256q0 70 -35 92.5t-127 22.5t-128 -22.5t-36 -92.5v-256zM473 -20l664 1372 h157l-663 -1372h-158zM1012 182v256q0 129 81 179.5t242 50.5q162 0 242 -50.5t80 -179.5v-256q0 -135 -101 -172q-49 -18 -97 -24t-124 -6q-75 0 -123.5 6t-97.5 24q-102 37 -102 172zM1171 190q0 -63 37 -83.5t127 -20.5t126 20.5t36 83.5v256q0 70 -35 92.5t-127 22.5 t-128 -22.5t-36 -92.5v-256z" />
<glyph unicode="&#x26;" horiz-adv-x="1302" d="M123 215v223q0 156 188 240l97 45l-80 94q-63 72 -64 141v199q0 195 340 195q137 0 279 -31v-150q-152 51 -283 52q-88 0 -125 -18.5t-37 -63.5v-152q0 -33 21 -55l495 -600q6 37 7 86v196h155v-188q0 -139 -43 -229q84 -78 123 -78h53v-121h-131q-72 0 -149 70 q-131 -90 -400 -90q-446 -1 -446 235zM315 207q0 -100 269 -101h22q201 0 271 58l-396 471l-71 -31q-43 -20 -69 -61t-26 -86v-250z" />
<glyph unicode="'" horiz-adv-x="524" d="M174 879v450h176v-450h-176z" />
<glyph unicode="(" horiz-adv-x="677" d="M162 565q0 207 72.5 398.5t224.5 427.5h166q-145 -254 -215 -444.5t-70 -381.5q0 -193 70.5 -388t214.5 -437h-166q-297 440 -297 825z" />
<glyph unicode=")" horiz-adv-x="677" d="M53 -260q144 242 214.5 437.5t70.5 387.5q0 186 -68.5 374.5t-216.5 451.5h166q152 -236 224.5 -427.5t72.5 -398.5q0 -385 -297 -825h-166z" />
<glyph unicode="*" horiz-adv-x="815" d="M53 1016l47 141l265 -110l-27 282h149l-26 -282l256 110l45 -141l-275 -60l187 -217l-125 -84l-141 244l-144 -244l-123 84l193 217z" />
<glyph unicode="+" horiz-adv-x="1024" d="M123 578v137h319v340h138v-340h321v-137h-321v-342h-138v342h-319z" />
<glyph unicode="," horiz-adv-x="524" d="M80 -229l94 450h217l-192 -450h-119z" />
<glyph unicode="-" horiz-adv-x="733" d="M82 512v147h569v-147h-569z" />
<glyph unicode="." horiz-adv-x="524" d="M143 0v221h238v-221h-238z" />
<glyph unicode="/" horiz-adv-x="862" d="M20 -20l664 1372h158l-664 -1372h-158z" />
<glyph unicode="0" d="M125 319v672q0 92 26.5 162t69.5 111q39 35 103.5 56t130.5 28q74 4 137 4q90 0 146.5 -6.5t119.5 -24.5q68 -20 110 -57t68 -105q27 -68 27 -166v-674q0 -84 -26.5 -149.5t-69.5 -101.5q-41 -35 -104.5 -56.5t-129.5 -25.5q-57 -6 -141 -6q-90 0 -146.5 6t-119.5 24 q-68 18 -108 54t-66 102q-27 61 -27 153zM311 309q0 -88 28 -133t87 -60.5t170 -15.5q109 0 168 15.5t86 60.5t27 133v697q0 96 -28 144t-86 64.5t-169 16.5q-113 0 -171 -16.5t-85 -64.5t-27 -144v-697z" />
<glyph unicode="1" d="M250 881v168l405 280h176v-1329h-178v1145z" />
<glyph unicode="2" d="M147 0v238q0 57 19.5 107t50.5 85q25 29 75 62.5t95 56.5q39 20 102 47l222 98q131 57 131 178v183q0 94 -57.5 125.5t-200.5 31.5q-141 0 -389 -43v144q207 39 428 39t319 -66.5t98 -222.5v-217q0 -74 -24.5 -122t-78.5 -86t-159 -85l-307 -141q-135 -61 -135 -181v-88 h704v-143h-893z" />
<glyph unicode="3" d="M158 18v148q244 -51 407 -51q272 0 273 153v228q0 84 -90 110q-43 10 -77 13.5t-87 3.5h-256v127h221q53 0 86 3t76 15q45 10 69.5 39t24.5 74v237q0 104 -246 105q-164 0 -375 -33v141q176 18 373 19q227 0 330.5 -50.5t103.5 -171.5v-256q0 -63 -51 -105t-131 -54v-8 q49 -8 81 -17.5t68 -28.5q72 -37 72 -129v-266q0 -70 -30.5 -125t-77.5 -86q-41 -29 -109 -46t-133 -23q-78 -4 -135 -4q-172 -1 -387 38z" />
<glyph unicode="4" d="M106 291v162l603 876h229v-897h143v-141h-143v-291h-170v291h-662zM270 432h498v735z" />
<glyph unicode="5" d="M178 16v148q238 -49 397 -49q125 0 183.5 35.5t58.5 117.5v264q0 86 -74 111q-35 10 -64.5 13t-76.5 3h-393v670h766v-139h-582v-404h307q82 0 145.5 -19t112.5 -67q51 -51 52 -133v-303q0 -72 -26 -126t-69 -85q-39 -29 -99 -47t-120 -22q-74 -4 -127 -4 q-166 -1 -391 36z" />
<glyph unicode="6" d="M145 319v672q0 92 30 162t77 111q41 35 110.5 56t139.5 28q78 4 141 4q125 0 336 -19v-139q-211 27 -363 27q-115 0 -174 -16.5t-86.5 -64.5t-27.5 -145v-209h301q102 0 153.5 -4t108.5 -16t85 -41t48 -82q18 -51 18 -129v-195q0 -221 -139 -286q-68 -31 -135.5 -42 t-175.5 -11q-90 0 -145.5 6t-114.5 24q-63 18 -100 54t-62 102t-25 153zM328 309q0 -90 24.5 -134t79.5 -59.5t164 -15.5t163 15.5t77.5 59.5t23.5 134v199q0 68 -20.5 101.5t-75.5 46t-170 12.5h-266v-359z" />
<glyph unicode="7" d="M127 1196v133h934v-133l-508 -1196h-197l533 1196h-762z" />
<glyph unicode="8" d="M121 240v247q0 80 62.5 134.5t166.5 78.5v9q-92 20 -138 65t-46 125v207q0 57 18.5 98t61.5 78q88 70 346 70t346 -70q43 -37 61.5 -78t18.5 -98v-207q0 -80 -45 -125t-137 -65v-9q104 -25 166.5 -79t62.5 -134v-243q0 -143 -109.5 -203.5t-363.5 -60.5q-250 0 -360.5 60 t-110.5 200zM319 233q0 -74 62 -104q61 -31 211 -31t211 31t61 104v248q0 104 -88 131q-43 12 -80 15.5t-104 3.5q-68 0 -102.5 -3t-79.5 -16q-90 -27 -91 -131v-248zM352 881q0 -78 52.5 -107t187.5 -29t187 29t52 107v215q0 76 -55 106.5t-184 30.5t-184.5 -31t-55.5 -106 v-215z" />
<glyph unicode="9" d="M145 815v197q0 221 140 286q68 31 135 42.5t176 11.5q90 0 145.5 -5.5t114.5 -23.5q63 -20 100 -56t62 -100q25 -63 24 -155v-672q0 -195 -114.5 -277.5t-372.5 -82.5q-166 -1 -346 22v137q197 -35 340 -35q121 0 187.5 24t95 81t28.5 160v174h-301q-102 0 -153.5 4 t-108.5 16t-85 41t-48 82q-18 53 -19 129zM328 821q0 -68 20.5 -101.5t75.5 -45.5t170 -12h266v360q0 90 -24.5 134t-80 59.5t-163.5 15.5q-109 0 -163 -15.5t-77.5 -59.5t-23.5 -134v-201z" />
<glyph unicode=":" horiz-adv-x="524" d="M143 0v221h238v-221h-238zM143 770v221h238v-221h-238z" />
<glyph unicode=";" horiz-adv-x="524" d="M80 -229l94 450h217l-192 -450h-119zM143 770v221h238v-221h-238z" />
<glyph unicode="&#x3c;" horiz-adv-x="1024" d="M123 563v148l778 436v-166l-618 -350l618 -338v-166z" />
<glyph unicode="=" horiz-adv-x="1024" d="M123 414v137h778v-137h-778zM123 741v138h778v-138h-778z" />
<glyph unicode="&#x3e;" horiz-adv-x="1024" d="M123 127v166l618 338l-618 350v166l778 -436v-148z" />
<glyph unicode="?" horiz-adv-x="1091" d="M123 1161v150q209 39 430 39t318.5 -65.5t97.5 -223.5v-103q0 -76 -27 -136t-70 -97q-82 -74 -180 -131q-43 -27 -69.5 -68t-26.5 -88v-88h-172v49q0 104 34 181t89 118q63 49 102 74q123 82 123 213v62q0 92 -58.5 124.5t-199.5 32.5q-143 0 -391 -43zM389 0v221h238 v-221h-238z" />
<glyph unicode="@" horiz-adv-x="1509" d="M123 176v629q0 115 60.5 196.5t166.5 118.5q100 35 192.5 50.5t198.5 15.5q115 0 211.5 -14.5t198.5 -49.5q111 -37 173 -118.5t62 -196.5v-510q0 -98 -50 -140t-152 -42h-64q-68 0 -115 21.5t-57 53.5q-20 -45 -63 -59q-45 -16 -170 -16q-117 0 -181.5 23.5t-94 86 t-29.5 181.5v225q0 102 31.5 160.5t105.5 83t209 24.5t203.5 -24.5t95 -81t26.5 -162.5v-367q0 -29 17.5 -39t62.5 -10t60.5 9t15.5 40v567q0 72 -49 125.5t-131 77.5q-152 43 -314 43q-160 0 -297 -43q-76 -25 -119.5 -78t-43.5 -125v-669q0 -66 44 -114t122 -73 q131 -43 296 -43q106 0 263 18.5t221 35.5v-119q-53 -18 -202.5 -34.5t-285.5 -16.5q-94 0 -167.5 8t-153.5 31q-92 25 -153.5 62.5t-100.5 102.5q-43 68 -43 156zM569 377q0 -72 13.5 -104.5t49.5 -43t118 -10.5q79 0 117 12.5t51.5 44t13.5 101.5v246q0 82 -11.5 115.5 t-47 44t-123.5 10.5q-84 0 -120 -11.5t-48.5 -45.5t-12.5 -113v-246z" />
<glyph unicode="A" horiz-adv-x="1335" d="M31 0l528 1329h229l517 -1329h-207l-152 403h-569l-150 -403h-196zM428 541h469l-225 600h-19z" />
<glyph unicode="B" horiz-adv-x="1255" d="M172 0v1329h475q170 0 271 -35q92 -33 123.5 -82t31.5 -135v-178q0 -80 -45 -124t-137 -64v-9q109 -18 175.5 -74.5t66.5 -140.5v-223q0 -145 -109 -204.5t-362 -59.5h-490zM371 137h291q150 0 210 31q61 31 62 104v201q0 53 -21.5 85t-66.5 46q-45 12 -80 15.5t-104 3.5 h-291v-486zM371 748h282q125 0 179.5 37.5t54.5 119.5v156q0 76 -55.5 106.5t-184.5 30.5h-276v-450z" />
<glyph unicode="C" horiz-adv-x="1155" d="M131 340v631q0 381 559 381q190 0 365 -39v-148q-197 49 -361 49q-80 0 -139 -9t-115 -31q-119 -51 -118 -201v-623q0 -229 380 -229q164 0 361 49v-152q-170 -38 -363 -38h-10q-559 0 -559 360z" />
<glyph unicode="D" horiz-adv-x="1390" d="M172 0v1329h528q559 0 560 -381v-588q0 -360 -558 -360h-530zM371 135h317q381 0 381 230v585q0 74 -30.5 125t-86.5 76q-55 23 -114.5 32t-139.5 9h-327v-1057z" />
<glyph unicode="E" d="M172 0v1329h893v-139h-694v-434h626v-140h-626v-477h714v-139h-913z" />
<glyph unicode="F" horiz-adv-x="1146" d="M172 0v1329h913v-139h-714v-434h647v-140h-647v-616h-199z" />
<glyph unicode="G" horiz-adv-x="1363" d="M131 340v629q0 115 59.5 196.5t163.5 118.5q100 35 191.5 50.5t197.5 15.5q254 0 459 -33v-154q-78 18 -222 33.5t-232 15.5q-420 0 -420 -241v-627q0 -66 40 -115t109 -71q66 -25 131.5 -34t147.5 -9q137 0 293 37v464h-312v140h496v-715q-266 -61 -490 -61 q-94 0 -166.5 8t-152.5 30q-90 25 -151.5 63t-100.5 103q-41 70 -41 156z" />
<glyph unicode="H" horiz-adv-x="1447" d="M172 0v1329h199v-573h706v573h199v-1329h-199v616h-706v-616h-199z" />
<glyph unicode="I" horiz-adv-x="542" d="M172 0v1329h199v-1329h-199z" />
<glyph unicode="J" horiz-adv-x="825" d="M41 2v133q123 -33 219 -33q80 0 121 14.5t57.5 52.5t16.5 116v1044h198v-1036q0 -127 -36.5 -193.5t-114.5 -93t-217 -26.5h-14q-153 0 -230 22z" />
<glyph unicode="K" horiz-adv-x="1247" d="M172 0v1329h199v-1329h-199zM375 707l594 622h239l-598 -614l658 -715h-258z" />
<glyph unicode="L" horiz-adv-x="1064" d="M172 0v1329h199v-1190h653v-139h-852z" />
<glyph unicode="M" horiz-adv-x="1763" d="M172 0v1329h297l426 -1106l6 -2l404 1108h286v-1329h-174v1124h-10l-428 -1124h-178l-441 1124h-10v-1124h-178z" />
<glyph unicode="N" horiz-adv-x="1480" d="M172 0v1329h240l723 -1098v1098h174v-1329h-240l-723 1116v-1116h-174z" />
<glyph unicode="O" horiz-adv-x="1390" d="M135 340v629q0 381 557 381q563 0 563 -379v-631q0 -193 -155.5 -276.5t-407.5 -83.5q-557 0 -557 360zM326 342q0 -229 370 -229q367 0 367 229v633q0 246 -369 246q-178 0 -273 -55.5t-95 -190.5v-633z" />
<glyph unicode="P" horiz-adv-x="1167" d="M172 0v1329h434q92 0 148.5 -4t119.5 -18q66 -14 106 -43t69 -78q26 -45 26 -114v-5v-276q0 -166 -128 -239t-378 -73h-198v-479h-199zM369 604h227q129 0 207 47t78 150v241q0 55 -29 91t-82 51q-51 12 -86 16t-92 4h-223v-600z" />
<glyph unicode="Q" horiz-adv-x="1384" d="M131 360v609q0 381 559 381q561 0 561 -379v-549q0 -188 -182 -309h328v-113h-707q-559 0 -559 360zM322 362q0 -229 372 -229q367 0 367 229v613q0 246 -369 246q-82 0 -141 -9.5t-113 -33.5q-117 -55 -116 -203v-613z" />
<glyph unicode="R" horiz-adv-x="1294" d="M172 0v1329h467q176 0 275.5 -21.5t145.5 -76.5t46 -162v-229q0 -119 -97.5 -183.5t-246.5 -64.5l426 -592h-244l-381 567h-192v-567h-199zM371 698h260q147 0 211.5 36t64.5 130v185q0 149 -255 149h-3h-278v-500z" />
<glyph unicode="S" horiz-adv-x="1165" d="M123 934v106q0 109 48 176.5t161.5 100.5t312.5 33q133 0 342 -23v-149q-227 34 -349 34h-7q-190 0 -252 -36q-63 -39 -64 -129v-152q0 -70 50.5 -101.5t173.5 -31.5h159q137 0 214 -33t109 -99.5t32 -178.5v-97q0 -141 -52.5 -223t-161 -116.5t-284.5 -34.5h-10 q-166 0 -395 32v166q238 -51 417 -51q152 0 221.5 34t69.5 126v172q0 86 -49 120.5t-172 34.5h-156q-195 0 -276.5 78t-81.5 242z" />
<glyph unicode="T" horiz-adv-x="1198" d="M49 1190v139h1100v-139h-449v-1190h-200v1190h-451z" />
<glyph unicode="U" horiz-adv-x="1384" d="M172 340v989h190v-987q0 -125 84 -177t248 -52t245 52t81 177v987h190v-989q0 -360 -520 -360q-108 0 -189 14t-159 49q-82 37 -126 112.5t-44 184.5z" />
<glyph unicode="V" horiz-adv-x="1335" d="M31 1329h207l426 -1141h18l426 1141h197l-529 -1329h-229z" />
<glyph unicode="W" horiz-adv-x="1982" d="M16 1329h211l330 -1141h4l330 1141h211l330 -1141h4l329 1141h201l-428 -1329h-231l-318 1106l-325 -1106h-232z" />
<glyph unicode="X" horiz-adv-x="1236" d="M16 0l490 678l-469 651h227l354 -514l355 514h227l-469 -651l490 -678h-228l-375 541l-374 -541h-228z" />
<glyph unicode="Y" horiz-adv-x="1196" d="M16 1329h228l354 -624l354 624h228l-484 -786v-543h-198v537z" />
<glyph unicode="Z" d="M82 0v139l782 1051h-762v139h992v-139l-783 -1051h795v-139h-1024z" />
<glyph unicode="[" horiz-adv-x="675" d="M172 -389v1896h463v-98h-285v-1700h285v-98h-463z" />
<glyph unicode="\" horiz-adv-x="862" d="M20 1350h158l664 -1370h-158z" />
<glyph unicode="]" horiz-adv-x="675" d="M41 -291h285v1700h-285v98h463v-1896h-463v98z" />
<glyph unicode="^" horiz-adv-x="657" d="M41 928l156 465h260l159 -465h-139l-149 383l-148 -383h-139z" />
<glyph unicode="_" d="M145 -143h897v-146h-897v146z" />
<glyph unicode="`" horiz-adv-x="817" d="M205 1393h223l184 -260h-151z" />
<glyph unicode="a" horiz-adv-x="1101" d="M102 295q0 113 32 175t108.5 89t218.5 27h297v157q0 55 -21.5 85t-72 42.5t-146.5 12.5q-154 0 -340 -25v135q203 18 367 19q172 0 254 -25.5t112.5 -89t30.5 -197.5v-700h-178v94q-23 -114 -294 -114h-5q-141 0 -218 26.5t-111 94t-34 194.5zM283 289q0 -74 14 -114 t51 -57.5t111 -17.5h37q100 0 170 15q92 18 92 86v270h-285q-88 0 -127 -13.5t-51 -50t-12 -118.5z" />
<glyph unicode="b" horiz-adv-x="1185" d="M160 324v1110h184v-297v-117q-2 -53 -2 -119q10 47 86 80q78 31 225 31q410 0 410 -281v-407q0 -88 -25.5 -154t-66.5 -102q-37 -35 -101.5 -55.5t-128.5 -26.5q-57 -6 -139 -6q-110 0 -177 11t-132 42q-133 63 -133 291zM344 297q0 -84 23.5 -125t79 -56.5t159.5 -15.5 q107 0 163 15.5t80.5 56.5t24.5 125v389q0 84 -24.5 126t-80.5 55.5t-165 13.5q-100 0 -155.5 -16.5t-80 -58.5t-24.5 -120v-389z" />
<glyph unicode="c" horiz-adv-x="950" d="M123 303v365q0 166 63 237q35 41 71 62.5t93 29.5t102.5 11.5t127.5 3.5q141 0 282 -31v-135q-164 41 -305 41q-106 0 -156.5 -15.5t-70 -55.5t-19.5 -122v-405q0 -76 21.5 -113t78 -52t167.5 -15q150 0 299 38v-139q-134 -28 -306 -28h-12q-102 0 -148 4t-106 20 q-63 16 -98 49t-60 97q-24 59 -24 146v7z" />
<glyph unicode="d" horiz-adv-x="1169" d="M123 295v436q0 150 93 215.5t308 65.5q129 0 222.5 -33t95.5 -94h4l-4 252v297h184v-1434h-180v117q0 -55 -88 -94q-88 -43 -244 -43q-147 0 -231 29.5t-122 97t-38 188.5zM305 260q0 -84 56.5 -119t191.5 -35q154 0 221.5 35t67.5 119v490q0 133 -273 133 q-164 0 -213 -25q-51 -25 -51 -108v-490z" />
<glyph unicode="e" horiz-adv-x="1095" d="M123 283v391q0 180 103.5 259t334.5 79q219 0 316.5 -76t97.5 -262v-219h-666v-150q0 -102 72 -147t221 -45q141 0 334 49v-142q-184 -40 -350 -40h-8q-455 0 -455 303zM309 575h482v156q0 90 -54.5 124t-185.5 34q-127 0 -184.5 -34t-57.5 -124v-156z" />
<glyph unicode="f" horiz-adv-x="778" d="M20 870v121h228v160q0 162 91 232.5t277 70.5q70 0 166 -10v-121q-78 10 -159 10q-102 0 -146.5 -36.5t-44.5 -133.5v-172h330v-121h-330v-870h-184v870h-228z" />
<glyph unicode="g" horiz-adv-x="1165" d="M123 281v403q0 176 95 252t312 76q258 0 304 -117v96h172v-1085q0 -137 -51.5 -215t-154 -110t-265.5 -32q-203 0 -342 23v131q246 -29 358 -29q141 0 205.5 45t64.5 150v237q-4 -66 -89 -96t-214 -30q-154 0 -238.5 28.5t-120.5 94t-36 178.5zM305 268 q0 -70 20.5 -104.5t74 -48t157.5 -13.5q145 0 204.5 35t59.5 131v449q0 68 -21.5 102.5t-78.5 50t-168 15.5q-104 0 -156.5 -14.5t-72 -50.5t-19.5 -103v-449z" />
<glyph unicode="h" horiz-adv-x="1173" d="M160 0v1434h184v-564q29 141 326 142q190 0 267 -69t77 -216v-727h-185v715q0 39 -6 63.5t-24 48.5q-41 51 -183 52q-113 0 -171 -15.5t-79.5 -50.5t-21.5 -98v-715h-184z" />
<glyph unicode="i" horiz-adv-x="503" d="M160 0v991h184v-991h-184zM160 1157v193h184v-193h-184z" />
<glyph unicode="j" horiz-adv-x="505" d="M-88 -322q43 -8 78 -8q90 0 131 36t41 130v1155h184v-1141q0 -166 -78 -233.5t-252 -67.5q-57 1 -104 9v120zM162 1157v193h184v-193h-184z" />
<glyph unicode="k" horiz-adv-x="1052" d="M160 0v1434h184v-1434h-184zM367 543l417 448h226l-430 -448l469 -543h-230z" />
<glyph unicode="l" horiz-adv-x="503" d="M160 0v1434h184v-1434h-184z" />
<glyph unicode="m" horiz-adv-x="1822" d="M160 0v991h184v-121q29 141 334 142q248 0 309 -135q18 66 111.5 100.5t228.5 34.5q184 0 260 -69t76 -216v-727h-184v715q0 39 -6.5 63.5t-24.5 48.5q-41 51 -182 52q-109 0 -162 -14.5t-72.5 -49.5t-19.5 -100v-715h-185v715q0 39 -6 63.5t-24 48.5q-41 51 -181 52 q-113 0 -170 -14.5t-79.5 -48.5t-22.5 -101v-715h-184z" />
<glyph unicode="n" horiz-adv-x="1173" d="M160 0v991h184v-121q29 141 326 142q190 0 267 -69t77 -216v-727h-185v717q0 39 -6 63.5t-24 48.5q-41 51 -183 52q-109 0 -167 -15.5t-81.5 -50.5t-23.5 -98v-717h-184z" />
<glyph unicode="o" horiz-adv-x="1163" d="M123 313v344q0 92 22.5 162t59.5 109q31 35 93 54t128 26q74 4 154 4q106 0 160.5 -5.5t115.5 -21.5q63 -18 98 -55t60 -107q22 -69 22 -158v-8v-344q0 -174 -80 -254q-33 -33 -94 -51t-127 -24q-78 -4 -155 -4q-131 0 -197 9t-131 40q-68 31 -98.5 99.5t-30.5 184.5z M311 287q0 -68 15.5 -106t52.5 -54q37 -18 76 -22.5t125 -4.5t124.5 4.5t75.5 22.5q37 16 52.5 54t15.5 106v401q0 92 -22.5 134t-77 55.5t-168.5 13.5q-115 0 -169.5 -13.5t-77 -55.5t-22.5 -134v-401z" />
<glyph unicode="p" horiz-adv-x="1185" d="M160 -426v1417h182v-106h2q23 127 338 127q188 0 284.5 -79t96.5 -202v-407q0 -88 -25.5 -154t-66.5 -102q-37 -35 -101.5 -55.5t-128.5 -26.5q-57 -6 -139 -6q-90 0 -165 21.5t-93 61.5v-489h-184zM344 301q0 -84 23.5 -125t79 -56.5t159.5 -15.5q107 0 163 15.5 t80.5 56.5t24.5 125v365q0 92 -24.5 137t-80.5 60.5t-165 15.5t-162 -15.5t-75.5 -59.5t-22.5 -138v-365z" />
<glyph unicode="q" horiz-adv-x="1185" d="M160 324v366q0 172 107.5 247t357.5 75q238 0 338 -75t100 -247v-1116h-184v489q-41 -83 -293 -83h-6q-94 0 -149.5 6t-108.5 24q-55 20 -88 57t-54 101q-20 61 -20 156zM348 303q0 -84 24.5 -125t81 -56.5t162.5 -15.5q109 0 163.5 15.5t77 57.5t22.5 124v363 q0 94 -22.5 138t-76 59.5t-162.5 15.5q-127 0 -181 -14.5t-71.5 -57.5t-17.5 -141v-363z" />
<glyph unicode="r" horiz-adv-x="718" d="M160 0v991h174v-162q0 47 41 89.5t104.5 68t124.5 25.5h90v-158h-102q-131 0 -189.5 -34t-58.5 -122v-698h-184z" />
<glyph unicode="s" horiz-adv-x="989" d="M102 686v92q0 233 443 234q33 0 301 -17v-133q-182 29 -309 29q-145 0 -199 -29q-53 -29 -53 -96v-84q0 -100 182 -100h115q313 0 313 -234v-86q0 -154 -106.5 -218t-325.5 -64h-12q-153 0 -328 24v141q240 -39 344 -39q131 0 188.5 26t57.5 95v101q0 63 -43 89.5 t-140 26.5h-112q-154 0 -235 63.5t-81 178.5z" />
<glyph unicode="t" horiz-adv-x="823" d="M20 870v121h222v307h186v-307h354v-121h-354v-591q0 -74 17.5 -111t61.5 -52.5t128 -15.5q27 0 147 17v-121q-104 -16 -207 -16q-126 0 -198 27.5t-103.5 94t-31.5 187.5v581h-222z" />
<glyph unicode="u" horiz-adv-x="1173" d="M160 264v727h184v-717q0 -39 7 -62.5t26 -47.5q37 -53 180 -53q152 0 213 28q59 29 59 105v747h185v-991h-185v121q-27 -141 -325 -141q-191 0 -267.5 68.5t-76.5 215.5z" />
<glyph unicode="v" horiz-adv-x="948" d="M12 991h195l274 -831h11l266 831h178l-346 -991h-221z" />
<glyph unicode="w" horiz-adv-x="1622" d="M25 991h202l242 -815h12l234 815h207l241 -815h13l233 815h188l-325 -991h-219l-240 801l-235 -801h-220z" />
<glyph unicode="x" horiz-adv-x="980" d="M20 0l369 510l-348 481h203l245 -362l248 362h203l-348 -481l369 -510h-203l-269 391l-266 -391h-203z" />
<glyph unicode="y" horiz-adv-x="942" d="M12 991h201l276 -809h5l249 809h187l-498 -1417h-192l155 412z" />
<glyph unicode="z" horiz-adv-x="929" d="M82 0v125l557 741h-537v125h746v-125l-557 -741h569v-125h-778z" />
<glyph unicode="{" horiz-adv-x="675" d="M131 559v107q63 0 88 10t32 41t7 114v365q0 117 31 197q20 51 82 90q16 10 50 16t62 8h64h39v-98h-21q-53 0 -89 -36t-36 -97v-373q0 -127 -34.5 -191.5t-126.5 -95.5v-8q92 -31 126.5 -94t34.5 -192v-480q0 -61 36 -97t89 -36h21v-98h-39q-37 0 -63.5 1t-57.5 7 q-35 6 -54.5 16.5t-45.5 34.5q-23 23 -35 53.5t-23 83.5q-10 55 -10 115v471q0 84 -7 115t-31.5 41t-88.5 10z" />
<glyph unicode="|" horiz-adv-x="686" d="M287 -20v1370h112v-1370h-112z" />
<glyph unicode="}" horiz-adv-x="675" d="M90 -291h21q53 0 89 36t36 97v480q0 129 34.5 192.5t126.5 93.5v8q-92 31 -126.5 95.5t-34.5 191.5v373q0 61 -36 97t-89 36h-21v98h39q37 0 63.5 -1t59.5 -7q35 -6 53.5 -16t44.5 -35q23 -23 36 -54.5t24 -82.5q8 -43 8 -115v-365q0 -84 7 -114.5t31.5 -40.5t88.5 -10 v-107q-63 0 -88 -10t-32 -41t-7 -115v-471q0 -117 -31 -196q-20 -53 -80 -88q-18 -10 -53 -17.5t-59 -7.5q-14 -2 -66 -2h-39v98z" />
<glyph unicode="~" d="M139 481v166q78 92 250 92q76 0 223 -59q145 -61 193 -62q166 0 244 127v-165q-74 -94 -252 -95q-63 0 -209 62q-147 59 -207 59q-86 0 -142.5 -29.5t-99.5 -95.5z" />
<glyph unicode="&#xa2;" d="M227 473v365q0 215 111 280q55 33 113.5 46.5t152.5 15.5v170h117v-170q125 -6 246 -29v-135q-180 41 -305 41q-109 0 -159 -14.5t-68.5 -53.5t-18.5 -125v-409q0 -76 21.5 -113t75.5 -50t169 -13q150 0 299 38v-139q-106 -27 -260 -28v-170h-117v170q-92 0 -151.5 12 t-112.5 43q-113 61 -113 268z" />
<glyph unicode="&#xa3;" d="M156 0v133h227v516h-227v127h227v189q0 123 24.5 199.5t79.5 117.5q53 39 121 53.5t185 14.5q111 0 206 -11v-122q-78 10 -139 10h-18q-119 0 -175.5 -18.5t-78 -71t-21.5 -160.5v-201h351v-127h-351v-516h531v-133h-942z" />
<glyph unicode="&#xa5;" d="M16 1329h228l352 -620h4l352 620h228l-381 -620h243v-146h-333l-13 -20v-166h346v-146h-346v-231h-198v231h-353v146h353v160l-17 26h-336v146h248z" />
<glyph unicode="&#xa8;" horiz-adv-x="942" d="M205 1157v193h184v-193h-184zM553 1157v193h184v-193h-184z" />
<glyph unicode="&#xa9;" horiz-adv-x="1468" d="M123 340v629q0 115 63.5 196.5t173.5 118.5q104 35 198.5 50.5t203.5 15.5q92 0 167 -8.5t156 -30.5q94 -27 156 -66t102 -108q43 -70 43 -166v-631q0 -106 -60 -182t-165 -113q-98 -35 -194.5 -50t-204.5 -15q-94 0 -170 8t-160 30q-96 25 -159.5 63t-104.5 103 q-45 66 -45 156zM283 336q0 -66 47 -114t129 -72q139 -43 307 -44q144 0 285 39q80 23 127 72t47 119v649q0 72 -44 125t-120 78q-141 43 -297 43q-162 0 -307 -43q-82 -25 -128 -78t-46 -125v-649zM436 539v278q0 127 78 187.5t248 60.5q168 0 236.5 -53.5t68.5 -173.5v-56 h-149v39q0 57 -12.5 83t-45.5 36t-104 10q-68 0 -100.5 -12t-46 -43t-13.5 -94v-246q0 -66 12.5 -96.5t45 -41.5t102.5 -11q78 0 110.5 8t42 33.5t9.5 87.5v40h149v-57q0 -121 -66.5 -174t-238.5 -53q-125 0 -194.5 22.5t-100.5 75.5t-31 150z" />
<glyph unicode="&#xab;" horiz-adv-x="872" d="M82 537l205 393h155l-188 -393l188 -394h-155zM430 537l205 393h156l-189 -393l189 -394h-156z" />
<glyph unicode="&#xad;" horiz-adv-x="733" d="M82 512v147h569v-147h-569z" />
<glyph unicode="&#xae;" horiz-adv-x="1468" d="M123 340v629q0 115 63.5 196.5t173.5 118.5q104 35 198.5 50.5t203.5 15.5q92 0 167 -8.5t156 -30.5q94 -27 156 -66t102 -108q43 -70 43 -166v-631q0 -106 -60 -182t-165 -113q-98 -35 -194.5 -50t-204.5 -15q-94 0 -170 8t-160 30q-96 25 -159.5 63t-104.5 103 q-45 66 -45 156zM283 336q0 -66 47 -114t129 -72q139 -43 307 -44q144 0 285 39q80 23 127 72t47 119v649q0 72 -44 125t-120 78q-141 43 -297 43q-162 0 -307 -43q-82 -25 -128 -78t-46 -125v-649zM494 266v797h280q109 0 168 -13.5t86 -46t27 -96.5v-153q0 -74 -51.5 -114 t-135.5 -40l236 -334h-168l-207 320h-96v-320h-139zM633 684h137q63 0 92 5t40 21.5t11 53.5v131q0 43 -26.5 56.5t-106.5 13.5h-147v-281z" />
<glyph unicode="&#xb4;" horiz-adv-x="817" d="M205 1133l184 260h223l-256 -260h-151z" />
<glyph unicode="&#xb8;" horiz-adv-x="806" d="M205 -412l43 93q63 -35 119 -35q96 0 96 82q0 39 -45 61.5t-115 22.5h-67q55 96 100 188h129l-53 -106q80 -2 135 -44.5t55 -115.5q0 -86 -66.5 -135.5t-164.5 -49.5q-103 0 -166 39z" />
<glyph unicode="&#xbb;" horiz-adv-x="872" d="M82 143l188 394l-188 393h156l204 -393l-204 -394h-156zM430 143l188 394l-188 393h156l205 -393l-205 -394h-156z" />
<glyph unicode="&#xc1;" horiz-adv-x="1335" d="M31 0l528 1329h229l517 -1329h-207l-152 403h-569l-150 -403h-196zM428 541h469l-225 600h-19zM566 1464l184 260h223l-256 -260h-151z" />
<glyph unicode="&#xc4;" horiz-adv-x="1335" d="M31 0l528 1329h229l517 -1329h-207l-152 403h-569l-150 -403h-196zM389 1464v193h184v-193h-184zM428 541h469l-225 600h-19zM737 1464v193h185v-193h-185z" />
<glyph unicode="&#xc6;" horiz-adv-x="1890" d="M0 0l733 1329h1034v-139h-632v-434h565v-140h-565v-477h653v-139h-852v403h-504l-209 -403h-223zM502 541h434v649h-98z" />
<glyph unicode="&#xc7;" horiz-adv-x="1155" d="M131 340v631q0 381 559 381q190 0 365 -39v-148q-197 49 -361 49q-80 0 -139 -9t-115 -31q-119 -51 -118 -201v-623q0 -229 380 -229q164 0 361 49v-152q-170 -37 -328 -38l-43 -86q80 -2 135.5 -44.5t55.5 -115.5q0 -86 -66.5 -135.5t-165.5 -49.5q-103 0 -166 39l43 93 q63 -35 119 -35q96 0 96 82q0 39 -45 61.5t-114 22.5h-68q43 72 92 170q-477 29 -477 358z" />
<glyph unicode="&#xcb;" d="M172 0v1329h893v-139h-694v-434h626v-140h-626v-477h714v-139h-913zM360 1464v193h185v-193h-185zM709 1464v193h184v-193h-184z" />
<glyph unicode="&#xcd;" horiz-adv-x="542" d="M170 1464l184 260h223l-256 -260h-151zM172 0v1329h199v-1329h-199z" />
<glyph unicode="&#xd0;" horiz-adv-x="1390" d="M41 616v140h131v573h528q559 0 560 -381v-588q0 -360 -558 -360h-530v616h-131zM371 135h317q381 0 381 230v585q0 74 -30.5 125t-86.5 76q-55 23 -114.5 32t-139.5 9h-327v-436h217v-140h-217v-481z" />
<glyph unicode="&#xd3;" horiz-adv-x="1390" d="M135 340v629q0 381 557 381q563 0 563 -379v-631q0 -193 -155.5 -276.5t-407.5 -83.5q-557 0 -557 360zM326 342q0 -229 370 -229q367 0 367 229v633q0 246 -369 246q-178 0 -273 -55.5t-95 -190.5v-633zM594 1464l184 260h223l-256 -260h-151z" />
<glyph unicode="&#xd6;" horiz-adv-x="1390" d="M135 340v629q0 381 557 381q563 0 563 -379v-631q0 -106 -51 -182t-143 -113q-88 -35 -175 -50t-194 -15q-557 0 -557 360zM326 342q0 -229 370 -229q367 0 367 229v633q0 246 -369 246q-82 0 -140 -9.5t-112 -33.5q-117 -55 -116 -203v-633zM410 1464v193h184v-193h-184 zM758 1464v193h184v-193h-184z" />
<glyph unicode="&#xd8;" horiz-adv-x="1390" d="M135 340v629q0 381 557 381q563 0 563 -379v-631q0 -106 -51 -182t-143 -113q-88 -35 -175 -50t-194 -15q-557 0 -557 360zM326 342q0 -35 4 -55l643 872q-88 61 -279 62q-82 0 -140 -9.5t-112 -33.5q-117 -55 -116 -203v-633zM416 170q88 -57 280 -57q367 0 367 229v633 q0 33 -6 63z" />
<glyph unicode="&#xda;" horiz-adv-x="1384" d="M172 340v989h190v-987q0 -125 84 -177t248 -52t245 52t81 177v987h190v-989q0 -360 -520 -360q-108 0 -189 14t-159 49q-82 37 -126 112.5t-44 184.5zM590 1464l184 260h223l-256 -260h-151z" />
<glyph unicode="&#xdc;" horiz-adv-x="1384" d="M172 340v989h190v-987q0 -125 84 -177t248 -52t245 52t81 177v987h190v-989q0 -360 -520 -360q-108 0 -189 14t-159 49q-82 37 -126 112.5t-44 184.5zM412 1464v193h184v-193h-184zM760 1464v193h184v-193h-184z" />
<glyph unicode="&#xdd;" horiz-adv-x="1196" d="M16 1329h228l354 -624l354 624h228l-484 -786v-543h-198v537zM496 1464l184 260h223l-256 -260h-151z" />
<glyph unicode="&#xdf;" horiz-adv-x="1232" d="M160 0v971q0 150 42 230.5t140 114.5t283 34q170 0 270 -35q92 -33 124 -82t32 -135v-199q0 -82 -43 -125t-134 -63v-9q109 -18 172.5 -73.5t63.5 -141.5v-223q0 -145 -108.5 -204.5t-362.5 -59.5h-123v131h133q150 0 211 31t62 104v207q0 53 -21.5 85t-66.5 46 q-45 12 -80 15.5t-105 3.5h-133v125h125q125 0 179 37.5t54 119.5v176q0 74 -59 106t-190 32q-121 0 -177.5 -15.5t-78 -57.5t-21.5 -134v-1012h-188z" />
<glyph unicode="&#xe1;" horiz-adv-x="1101" d="M102 295q0 113 32 175t108.5 89t218.5 27h297v157q0 55 -21.5 85t-72 42.5t-146.5 12.5q-154 0 -340 -25v135q203 18 367 19q172 0 254 -25.5t112.5 -89t30.5 -197.5v-700h-178v94q-23 -115 -299 -114q-141 0 -218 26.5t-111 94t-34 194.5zM283 289q0 -74 14 -114 t51 -57.5t111 -17.5h37q100 0 170 15q92 18 92 86v270h-285q-88 0 -127 -13.5t-51 -50t-12 -118.5zM449 1133l184 260h223l-256 -260h-151z" />
<glyph unicode="&#xe4;" horiz-adv-x="1101" d="M102 295q0 113 32 175t108.5 89t218.5 27h297v157q0 55 -21.5 85t-72 42.5t-146.5 12.5q-154 0 -340 -25v135q203 18 367 19q172 0 254 -25.5t112.5 -89t30.5 -197.5v-700h-178v94q-23 -115 -299 -114q-141 0 -218 26.5t-111 94t-34 194.5zM266 1157v193h185v-193h-185z M283 289q0 -74 14 -114t51 -57.5t111 -17.5h37q100 0 170 15q92 18 92 86v270h-285q-88 0 -127 -13.5t-51 -50t-12 -118.5zM614 1157v193h185v-193h-185z" />
<glyph unicode="&#xe6;" horiz-adv-x="1720" d="M102 287q0 119 31 182t106.5 90t221.5 27h307v153q0 78 -52 111t-181 33q-221 0 -357 -35v135q160 29 381 29q242 0 324 -72q102 72 313 72q217 0 310 -75t93 -263v-219h-645v-150q0 -102 68 -147t215 -45q131 0 324 49v-142q-193 -41 -355 -40q-260 0 -370 116 q-27 -117 -365 -116q-147 0 -225 25.5t-111 90t-33 191.5zM283 289q0 -80 14 -119t55 -56.5t127 -17.5q49 0 86 2t78 8q43 6 66.5 18.5t42.5 37.5q16 27 16 61v248h-295q-88 0 -127 -13.5t-51 -50t-12 -118.5zM954 575h461v156q0 92 -49 125t-178 33q-125 0 -179.5 -34 t-54.5 -124v-156z" />
<glyph unicode="&#xe7;" horiz-adv-x="950" d="M123 303v365q0 166 63 237q35 41 71 62.5t93 29.5t102.5 11.5t127.5 3.5q141 0 282 -31v-135q-164 41 -305 41q-111 0 -161 -13.5t-67.5 -52.5t-17.5 -127v-409q0 -76 21.5 -112t77 -50t168.5 -14q150 0 299 38v-139q-133 -25 -254 -26l-43 -88q80 -2 135 -44.5 t55 -115.5q0 -86 -66.5 -135.5t-164.5 -49.5q-103 0 -166 39l43 93q63 -35 119 -35q96 0 96 82q0 39 -45 61.5t-115 22.5h-68q49 84 91 168q-76 2 -123 9t-97 25q-51 18 -81.5 52t-49.5 94q-20 55 -20 143z" />
<glyph unicode="&#xeb;" horiz-adv-x="1095" d="M123 283v391q0 180 103.5 259t334.5 79q219 0 316.5 -76t97.5 -262v-219h-666v-150q0 -102 72 -147t221 -45q141 0 334 49v-142q-188 -41 -358 -40q-455 0 -455 303zM266 1157v193h185v-193h-185zM309 575h482v156q0 90 -54.5 124t-185.5 34q-127 0 -184.5 -34 t-57.5 -124v-156zM614 1157v193h185v-193h-185z" />
<glyph unicode="&#xed;" horiz-adv-x="503" d="M150 1133l184 260h223l-256 -260h-151zM162 0v991h184v-991h-184z" />
<glyph unicode="&#xf0;" horiz-adv-x="1163" d="M127 313v344q0 178 74 267q31 35 90 55t129 27q61 6 160 6q125 0 190 -8q-68 127 -145 223l-238 -70v117l156 47q-23 27 -109 113h217l64 -62l207 62v-117l-125 -37q236 -285 235 -623v-344q0 -172 -71 -254q-31 -33 -91.5 -51t-128.5 -24q-78 -4 -161 -4 q-115 0 -171.5 5t-115.5 21q-61 18 -93 52t-53 100q-20 59 -20 155zM311 287q0 -84 24.5 -123t79 -52.5t165.5 -13.5q110 0 164.5 13.5t79 52.5t24.5 123v401q0 92 -22.5 135t-77 56.5t-168.5 13.5q-115 0 -169.5 -13.5t-77 -56.5t-22.5 -135v-401z" />
<glyph unicode="&#xf3;" horiz-adv-x="1163" d="M123 313v344q0 92 22.5 162t59.5 109q31 35 93 54t128 26q74 4 154 4q106 0 160.5 -5.5t115.5 -21.5q63 -18 98 -55t60 -107q23 -72 22 -166v-344q0 -174 -80 -254q-33 -33 -94 -51t-127 -24q-78 -4 -155 -4q-131 0 -197 9t-131 40q-68 31 -98.5 99.5t-30.5 184.5z M311 287q0 -68 15.5 -106t52.5 -54q37 -18 76 -22.5t125 -4.5t124.5 4.5t75.5 22.5q37 16 52.5 54t15.5 106v401q0 92 -22.5 134t-77 55.5t-168.5 13.5q-115 0 -169.5 -13.5t-77 -55.5t-22.5 -134v-401zM480 1133l184 260h223l-256 -260h-151z" />
<glyph unicode="&#xf6;" horiz-adv-x="1163" d="M123 313v344q0 92 22.5 162t59.5 109q31 35 93 54t128 26q74 4 154 4q106 0 160.5 -5.5t115.5 -21.5q63 -18 98 -55t60 -107q23 -72 22 -166v-344q0 -174 -80 -254q-33 -33 -94 -51t-127 -24q-78 -4 -155 -4q-131 0 -197 9t-131 40q-68 31 -98.5 99.5t-30.5 184.5z M311 287q0 -68 15.5 -106t52.5 -54q37 -18 76 -22.5t125 -4.5t124.5 4.5t75.5 22.5q37 16 52.5 54t15.5 106v401q0 92 -22.5 134t-77 55.5t-168.5 13.5q-115 0 -169.5 -13.5t-77 -55.5t-22.5 -134v-401zM315 1157v193h185v-193h-185zM664 1157v193h184v-193h-184z" />
<glyph unicode="&#xf8;" horiz-adv-x="1163" d="M123 313v344q0 92 22.5 162t59.5 109q31 35 93 54t128 26q74 4 154 4q106 0 160.5 -5.5t115.5 -21.5q63 -18 98 -55t60 -107q23 -72 22 -166v-344q0 -174 -80 -254q-33 -33 -94 -51t-127 -24q-78 -4 -155 -4q-131 0 -197 9t-131 40q-68 31 -98.5 99.5t-30.5 184.5z M311 287q0 -68 15 -99l438 684q-49 18 -184 19q-115 0 -169.5 -13.5t-77 -55.5t-22.5 -134v-401zM397 117q53 -16 183 -17q86 0 124.5 4.5t75.5 22.5q37 16 52.5 54t15.5 106v401q0 66 -14 109z" />
<glyph unicode="&#xfa;" horiz-adv-x="1173" d="M160 264v727h184v-717q0 -39 7 -62.5t26 -47.5q37 -53 180 -53q152 0 213 28q59 29 59 105v747h185v-991h-185v121q-27 -141 -325 -141q-191 0 -267.5 68.5t-76.5 215.5zM486 1133l184 260h223l-256 -260h-151z" />
<glyph unicode="&#xfc;" horiz-adv-x="1173" d="M160 264v727h184v-717q0 -39 7 -62.5t26 -47.5q37 -53 180 -53q152 0 213 28q59 29 59 105v747h185v-991h-185v121q-27 -141 -325 -141q-191 0 -267.5 68.5t-76.5 215.5zM307 1157v193h185v-193h-185zM655 1157v193h185v-193h-185z" />
<glyph unicode="&#xfd;" horiz-adv-x="942" d="M12 991h201l276 -809h5l249 809h187l-498 -1417h-192l155 412zM369 1133l184 260h223l-256 -260h-151z" />
<glyph unicode="&#x2c6;" horiz-adv-x="1228" d="M205 1133l139 260h219l135 -260h-119l-127 178l-129 -178h-118z" />
<glyph unicode="&#x2da;" horiz-adv-x="956" d="M205 1333v25q0 76 18.5 120t59.5 64q41 18 79.5 23.5t114.5 5.5q61 0 95 -3t71 -14q39 -12 59.5 -33.5t34.5 -62.5q14 -37 15 -100v-25q0 -72 -17.5 -112.5t-58.5 -59.5q-41 -18 -81 -23t-118 -5q-76 0 -114.5 5t-79.5 23t-59.5 59.5t-18.5 112.5zM334 1319 q0 -45 12 -66.5t41 -27.5t90 -6q62 0 91.5 6t42 27.5t12.5 66.5v55q0 49 -12.5 72.5t-42 31t-91.5 7.5q-61 0 -90 -7.5t-41 -31t-12 -72.5v-55z" />
<glyph unicode="&#x2dc;" horiz-adv-x="1228" d="M187 1180q14 55 57 97t110 42q47 0 127 -31q76 -31 111 -31q31 0 57.5 16.5t38.5 49.5l64 -37q-16 -57 -63.5 -102t-114.5 -45q-47 0 -134 35q-80 33 -104 32q-59 0 -86 -67z" />
<glyph unicode="&#x400;" d="M172 0v1329h893v-139h-694v-434h626v-140h-626v-477h714v-139h-913zM299 1718h223l184 -260h-151z" />
<glyph unicode="&#x401;" d="M172 0v1329h893v-139h-694v-434h626v-140h-626v-477h714v-139h-913zM369 1546v193h184v-193h-184zM717 1546v193h184v-193h-184z" />
<glyph unicode="&#x402;" horiz-adv-x="1415" d="M49 1190v139h1079v-139h-532v-371q160 82 348 82q207 0 298 -104.5t91 -321.5q0 -494 -428 -493q-71 0 -182 18v135q90 -23 156 -22q131 0 194.5 84t63.5 258q0 172 -60.5 239.5t-197.5 67.5q-154 0 -283 -82v-680h-199v1190h-348z" />
<glyph unicode="&#x403;" horiz-adv-x="1044" d="M172 0v1329h811v-139h-612v-1190h-199zM498 1464l184 260h223l-256 -260h-151z" />
<glyph unicode="&#x404;" horiz-adv-x="1155" d="M131 340v631q0 381 559 381q190 0 365 -39v-148q-197 49 -361 49q-80 0 -139 -9t-115 -31q-119 -51 -118 -201v-219h675v-138h-675v-266q0 -229 380 -229q164 0 361 49v-152q-174 -39 -373 -38q-559 0 -559 360z" />
<glyph unicode="&#x405;" horiz-adv-x="1165" d="M123 934v106q0 109 49 176.5t164 100.5t313 33q129 0 338 -23v-149q-233 35 -348 34q-195 0 -260 -36q-63 -37 -64 -129v-152q0 -70 50.5 -101.5t173.5 -31.5h159q137 0 214 -33t109 -99.5t32 -178.5v-97q0 -143 -53.5 -225t-164 -115.5t-294.5 -33.5q-155 -1 -391 32 v166q231 -51 395 -51q170 0 241.5 33t71.5 127v172q0 86 -49 120.5t-172 34.5h-156q-195 0 -276.5 78t-81.5 242z" />
<glyph unicode="&#x406;" horiz-adv-x="542" d="M172 0v1329h199v-1329h-199z" />
<glyph unicode="&#x407;" horiz-adv-x="542" d="M6 1546v193h184v-193h-184zM172 0v1329h199v-1329h-199zM354 1546v193h184v-193h-184z" />
<glyph unicode="&#x408;" horiz-adv-x="825" d="M41 2v133l219 -22q82 0 122 12t56.5 48t16.5 112v1044h198v-1036q0 -125 -35.5 -190.5t-113.5 -89t-219 -23.5q-35 0 -244 12z" />
<glyph unicode="&#x409;" horiz-adv-x="1896" d="M37 2v199q31 -6 59 -6q80 0 133.5 71.5t81 251.5t27.5 500v311h799v-2l2 2v-491h157q166 0 271.5 -17.5t170 -77t64.5 -176.5v-278q0 -289 -469 -289h-393v1190h-428v-246q0 -446 -94 -697t-291 -251q-47 0 -90 6zM1137 135h182q143 0 216 35t73 127v248q0 66 -27 98.5 t-87 45.5t-171 13h-186v-567z" />
<glyph unicode="&#x40a;" horiz-adv-x="2072" d="M172 0v1329h199v-573h706v573h199v-491h199q165 0 270.5 -17.5t170 -77t64.5 -176.5v-278q0 -289 -469 -289h-434v616h-706v-616h-199zM1276 135h221q143 0 216 35t73 127v248q0 66 -26.5 98.5t-87 45.5t-171.5 13h-225v-567z" />
<glyph unicode="&#x40b;" horiz-adv-x="1495" d="M49 1190v139h1079v-139h-512v-371q160 82 349 82q206 0 297.5 -83t91.5 -251v-567h-197v551q0 115 -58.5 163t-180.5 48q-96 0 -167 -20.5t-135 -61.5v-680h-198v1190h-369z" />
<glyph unicode="&#x40c;" horiz-adv-x="1241" d="M172 0v1329h201v-573q123 0 190.5 23.5t122.5 103.5l318 446h217l-379 -498q-76 -98 -174 -135q110 -28 192 -96t144 -184l217 -416h-199l-195 360q-57 104 -116.5 158.5t-138 76t-199.5 21.5v-616h-201zM539 1464l184 260h223l-256 -260h-151z" />
<glyph unicode="&#x40d;" horiz-adv-x="1480" d="M174 0v1329h182v-1077l752 1077h182v-1329h-182v1096l-752 -1096h-182zM385 1718h223l184 -260h-151z" />
<glyph unicode="&#x40e;" horiz-adv-x="1114" d="M0 1329h221l402 -780l356 780h197l-512 -1093q-43 -92 -80 -145.5t-88.5 -82t-126.5 -28.5q-82 0 -172 20v143q59 -14 125 -14q68 0 106.5 40t81.5 132l22 51zM276 1731h152q18 -160 172 -160t172 160h151q-4 -117 -90 -189t-233 -72q-146 0 -232 71t-92 190z" />
<glyph unicode="&#x40f;" horiz-adv-x="1406" d="M172 0v1329h199v-1192h665v1192h199v-1329h-430v-340h-187v340h-446z" />
<glyph unicode="&#x410;" horiz-adv-x="1335" d="M31 0l528 1329h229l517 -1329h-207l-152 403h-569l-150 -403h-196zM428 541h469l-225 600h-19z" />
<glyph unicode="&#x411;" horiz-adv-x="1167" d="M172 0v1329h813v-141h-614v-432h198q106 0 174 -5.5t134 -21.5q68 -16 108.5 -45t65.5 -78q25 -51 24 -121v-196q0 -289 -469 -289h-434zM369 135h223q57 0 92 4t86 17q53 14 82 50t29 91v166q0 86 -65.5 122t-219.5 36h-227v-486z" />
<glyph unicode="&#x412;" horiz-adv-x="1255" d="M172 0v1329h475q170 0 271 -35q92 -33 123.5 -82t31.5 -135v-178q0 -80 -45 -124t-137 -64v-9q109 -18 175.5 -74.5t66.5 -140.5v-223q0 -145 -109 -204.5t-362 -59.5h-490zM371 137h291q150 0 210 31q61 31 62 104v201q0 53 -21.5 85t-66.5 46q-45 12 -80 15.5t-104 3.5 h-291v-486zM371 748h282q125 0 179.5 37.5t54.5 119.5v156q0 76 -55.5 106.5t-184.5 30.5h-276v-450z" />
<glyph unicode="&#x413;" horiz-adv-x="1044" d="M172 0v1329h811v-139h-612v-1190h-199z" />
<glyph unicode="&#x414;" horiz-adv-x="1333" d="M51 139h17q92 0 148 79t85 283t29 578v250h800v-1190h144v-479h-172v340h-877v-340h-174v479zM338 139h594v1051h-428v-266q0 -580 -166 -785z" />
<glyph unicode="&#x415;" d="M172 0v1329h893v-139h-694v-434h626v-140h-626v-477h714v-139h-913z" />
<glyph unicode="&#x416;" horiz-adv-x="1835" d="M20 0l218 416q61 117 143 184.5t190 95.5q-49 18 -91 48t-81 87l-338 498h218l276 -446q49 -80 111.5 -103.5t160.5 -23.5v573h181v-573q98 0 160.5 23.5t111.5 103.5l276 446h218l-338 -498q-39 -57 -81 -86.5t-91 -48.5q109 -29 190.5 -96.5t142.5 -183.5l218 -416 h-199l-195 360q-55 102 -113.5 157.5t-129 77t-170.5 21.5v-616h-181v616q-100 0 -170.5 -21.5t-129 -76.5t-113.5 -158l-195 -360h-199z" />
<glyph unicode="&#x417;" d="M111 18v152q244 -51 407 -51q154 0 233.5 31.5t79.5 121.5v224q0 127 -274 127h-276v127h241q276 0 277 131v223q0 106 -267 106q-72 0 -239 -10l-156 -12v139q266 16 393 16q231 0 343 -51t112 -172v-248q0 -63 -51 -105t-131 -54v-8q49 -8 80.5 -17.5t68.5 -28.5 q72 -37 72 -129v-266q0 -160 -129 -222t-356 -62q-213 -1 -428 38z" />
<glyph unicode="&#x418;" horiz-adv-x="1480" d="M174 0v1329h182v-1077l752 1077h182v-1329h-182v1096l-752 -1096h-182z" />
<glyph unicode="&#x419;" horiz-adv-x="1480" d="M174 0v1329h182v-1077l752 1077h182v-1329h-182v1096l-752 -1096h-182zM397 1731h152q18 -160 172 -160t172 160h151q-4 -117 -90 -189t-233 -72q-146 0 -232 71t-92 190z" />
<glyph unicode="&#x41a;" horiz-adv-x="1241" d="M172 0v1329h201v-573q123 0 190.5 23.5t122.5 103.5l318 446h217l-379 -498q-76 -98 -174 -135q110 -28 192 -96t144 -184l217 -416h-199l-195 360q-57 104 -116.5 158.5t-138 76t-199.5 21.5v-616h-201z" />
<glyph unicode="&#x41b;" horiz-adv-x="1335" d="M61 2v199q31 -6 60 -6q80 0 133 71.5t80.5 251.5t27.5 500v311h801v-1329h-198v1190h-428v-246q0 -446 -94.5 -697t-290.5 -251q-48 0 -91 6z" />
<glyph unicode="&#x41c;" horiz-adv-x="1763" d="M172 0v1329h297l426 -1106l6 -2l404 1108h286v-1329h-174v1124h-10l-428 -1124h-178l-441 1124h-10v-1124h-178z" />
<glyph unicode="&#x41d;" horiz-adv-x="1447" d="M172 0v1329h199v-573h706v573h199v-1329h-199v616h-706v-616h-199z" />
<glyph unicode="&#x41e;" horiz-adv-x="1390" d="M135 340v629q0 381 557 381q563 0 563 -379v-631q0 -193 -155.5 -276.5t-407.5 -83.5q-557 0 -557 360zM326 342q0 -229 370 -229q367 0 367 229v633q0 246 -369 246q-178 0 -273 -55.5t-95 -190.5v-633z" />
<glyph unicode="&#x41f;" horiz-adv-x="1406" d="M172 0v1329h1063v-1329h-199v1192h-665v-1192h-199z" />
<glyph unicode="&#x420;" horiz-adv-x="1167" d="M172 0v1329h434q92 0 148.5 -4t119.5 -18q66 -14 106 -43t69 -78q27 -47 26 -119v-276q0 -166 -128 -239t-378 -73h-198v-479h-199zM369 604h227q129 0 207 47t78 150v241q0 55 -29 91t-82 51q-51 12 -86 16t-92 4h-223v-600z" />
<glyph unicode="&#x421;" horiz-adv-x="1155" d="M131 340v631q0 381 559 381q190 0 365 -39v-148q-197 49 -361 49q-80 0 -139 -9t-115 -31q-119 -51 -118 -201v-623q0 -229 380 -229q164 0 361 49v-152q-174 -39 -373 -38q-559 0 -559 360z" />
<glyph unicode="&#x422;" horiz-adv-x="1198" d="M49 1190v139h1100v-139h-451v-1190h-198v1190h-451z" />
<glyph unicode="&#x423;" horiz-adv-x="1114" d="M0 1329h221l402 -780l356 780h197l-512 -1093q-43 -92 -80 -145.5t-88.5 -82t-126.5 -28.5q-82 0 -172 20v143q59 -14 125 -14q68 0 106.5 40t81.5 132l22 51z" />
<glyph unicode="&#x424;" horiz-adv-x="1595" d="M135 498v403q0 381 565 381v150h199v-150q567 0 561 -381l-4 -403q6 -180 -134 -270.5t-423 -90.5v-178h-199v178q-565 0 -565 361zM326 500q-1 -230 374 -230v883q-180 0 -277 -55.5t-97 -190.5v-407zM899 270q375 1 375 230l-2 407q2 135 -95.5 190.5t-277.5 55.5v-883 z" />
<glyph unicode="&#x425;" horiz-adv-x="1236" d="M16 0l490 678l-469 651h227l354 -514l355 514h227l-469 -651l490 -678h-228l-375 541l-374 -541h-228z" />
<glyph unicode="&#x426;" horiz-adv-x="1376" d="M172 0v1329h199v-1190h604v1190h199v-1190h143v-418h-172v279h-973z" />
<glyph unicode="&#x427;" horiz-adv-x="1249" d="M141 762v567h197v-551q0 -115 58.5 -163t181.5 -48q96 0 166.5 20.5t134.5 61.5v680h198v-1329h-198v510q-160 -82 -349 -82q-207 0 -298 83t-91 251z" />
<glyph unicode="&#x428;" horiz-adv-x="1902" d="M172 0v1329h199v-1192h481v1192h199v-1192h481v1192h199v-1329h-1559z" />
<glyph unicode="&#x429;" horiz-adv-x="1933" d="M172 0v1329h199v-1190h481v1190h199v-1190h481v1190h199v-1190h143v-479h-172v340h-1530z" />
<glyph unicode="&#x42a;" horiz-adv-x="1271" d="M0 1190v139h516v-491h158q166 0 271.5 -17.5t170 -77t64.5 -176.5v-278q0 -289 -469 -289h-394v1190h-317zM514 135h182q143 0 216 35t73 127v248q0 66 -26.5 98.5t-87 45.5t-171.5 13h-186v-567z" />
<glyph unicode="&#x42b;" horiz-adv-x="1609" d="M172 0v1329h199v-491h157q166 0 271.5 -17.5t170 -77t64.5 -176.5v-278q0 -289 -469 -289h-393zM369 135h182q143 0 216 35t73 127v248q0 66 -27 98.5t-87 45.5t-171 13h-186v-567zM1239 0v1329h199v-1329h-199z" />
<glyph unicode="&#x42c;" horiz-adv-x="1167" d="M172 0v1329h199v-491h198q166 0 271.5 -17.5t170 -77t64.5 -176.5v-278q0 -289 -469 -289h-434zM369 135h223q143 0 216 35t73 127v248q0 66 -27 98.5t-87 45.5t-171 13h-227v-567z" />
<glyph unicode="&#x42d;" horiz-adv-x="1153" d="M90 18v152q197 -49 361 -49q381 0 380 229v266h-491v138h491v219q0 150 -118 201q-55 23 -114.5 31.5t-139.5 8.5q-164 0 -361 -49v148q174 39 365 39q559 0 559 -381v-631q0 -360 -559 -360q-199 -1 -373 38z" />
<glyph unicode="&#x42e;" horiz-adv-x="1912" d="M172 0v1329h199v-590h286v230q0 381 557 381q563 0 564 -379v-631q0 -106 -51.5 -182t-143.5 -113q-88 -35 -175 -50t-194 -15q-557 0 -557 360v272h-286v-612h-199zM848 342q0 -229 371 -229q366 0 366 229v633q0 246 -368 246q-82 0 -140.5 -9.5t-111.5 -33.5 q-117 -55 -117 -203v-633z" />
<glyph unicode="&#x42f;" horiz-adv-x="1253" d="M66 0l317 541q-106 20 -171 81.5t-65 155.5v291q0 106 45.5 161.5t144.5 77t277 21.5h467v-1329h-198v506h-303l-271 -506h-243zM346 803q0 -84 61.5 -125t215.5 -41h260v561h-279q-258 0 -258 -149v-246z" />
<glyph unicode="&#x430;" horiz-adv-x="1101" d="M102 295q0 113 32 175t108.5 89t218.5 27h297v157q0 55 -21.5 85t-72 42.5t-146.5 12.5q-154 0 -340 -25v135q203 18 367 19q172 0 254 -25.5t112.5 -89t30.5 -197.5v-700h-178v94q-23 -115 -299 -114q-141 0 -218 26.5t-111 94t-34 194.5zM283 289q0 -74 14 -114 t51 -57.5t111 -17.5h37q100 0 170 15q92 18 92 86v270h-285q-88 0 -127 -13.5t-51 -50t-12 -118.5z" />
<glyph unicode="&#x431;" horiz-adv-x="1163" d="M145 393v400q0 217 128 351t399 202q219 61 329 104v-174q-158 -57 -380 -117q-125 -25 -195 -59.5t-97.5 -82.5t-25.5 -120v-129q47 90 135 126t228 36q195 0 285.5 -79t90.5 -237v-295q0 -133 -49 -206.5t-146 -103t-255 -29.5q-184 0 -278.5 34.5t-131.5 121.5 t-37 257zM324 631l4 -322q2 -90 25.5 -134t78.5 -59.5t164 -15.5t163 15.5t77.5 59.5t23.5 134v303q0 70 -20.5 108t-71.5 54.5t-145 16.5q-145 0 -223 -41t-76 -119z" />
<glyph unicode="&#x432;" horiz-adv-x="1173" d="M172 0v991h434q133 0 213 -15t117 -52q35 -35 45 -72t10 -102v-35q0 -80 -41 -119t-137 -59v-9q238 -41 238 -206v-60q0 -100 -40 -156.5t-132.5 -81t-257.5 -24.5h-449zM356 133h275q96 0 145 12.5t67.5 40t18.5 82.5v66q0 51 -43 86q-45 33 -178 33h-285v-320zM356 573 h267q82 0 122.5 13.5t55 43t14.5 91.5v12q0 55 -15.5 82t-57.5 38t-126 11h-260v-291z" />
<glyph unicode="&#x433;" horiz-adv-x="860" d="M172 0v991h647v-135h-463v-856h-184z" />
<glyph unicode="&#x434;" horiz-adv-x="1161" d="M20 121h64q45 0 88 68.5t71.5 221t28.5 388.5v192h689v-870h139v-395h-158v274h-764v-274h-158v395zM305 121h471v749h-342v-143q0 -213 -27.5 -365.5t-101.5 -240.5z" />
<glyph unicode="&#x435;" horiz-adv-x="1095" d="M123 283v391q0 180 103.5 259t334.5 79q219 0 316.5 -76t97.5 -262v-219h-666v-150q0 -102 72 -147t221 -45q141 0 334 49v-142q-188 -41 -358 -40q-455 0 -455 303zM309 575h482v156q0 90 -54.5 124t-185.5 34q-127 0 -184.5 -34t-57.5 -124v-156z" />
<glyph unicode="&#x436;" horiz-adv-x="1542" d="M-33 0l277 307q98 111 148 160t77 55l-451 469h226l303 -373q43 -55 139 -55v428h170v-428q96 0 139 55l303 373h226l-451 -469q27 -6 77 -55t148 -160l277 -307h-227l-271 307q-55 63 -108 101q-39 27 -55.5 32.5t-33 4.5t-24.5 -1v-444h-170v444q-8 0 -26.5 1t-37 -7 t-49.5 -30q-53 -37 -108 -101l-270 -307h-228z" />
<glyph unicode="&#x437;" horiz-adv-x="968" d="M102 14v146q154 -45 279 -45q141 0 206.5 31.5t65.5 121.5v64q0 76 -66.5 101.5t-187.5 25.5h-112v127h78q125 0 190.5 28.5t65.5 102.5v61q0 106 -246 107q-129 0 -252 -25v133q117 18 250 19q158 0 246 -16.5t137 -61.5q51 -45 51 -146v-79q0 -66 -48 -108t-124 -54v-8 q211 -33 211 -183v-102q0 -70 -27.5 -124t-73.5 -83q-61 -39 -154 -53t-210 -14q-121 -1 -279 34z" />
<glyph unicode="&#x438;" horiz-adv-x="1204" d="M160 0v991h184v-755l526 755h174v-991h-184v731l-516 -731h-184z" />
<glyph unicode="&#x439;" horiz-adv-x="1204" d="M160 0v991h184v-755l526 755h174v-991h-184v731l-516 -731h-184zM299 1393h152q14 -160 151 -160q135 0 152 160h151q-4 -117 -85 -188.5t-218 -71.5t-217 70.5t-86 189.5z" />
<glyph unicode="&#x43a;" horiz-adv-x="1028" d="M158 0v991h184v-428q31 0 50.5 13.5t47.5 41.5l344 373h226l-451 -469q27 -6 77 -55t148 -160l277 -307h-227l-271 307q-55 63 -108 101q-41 27 -57.5 31.5t-33 4.5h-22.5v-444h-184z" />
<glyph unicode="&#x43b;" horiz-adv-x="1144" d="M61 4v158q29 -6 58 -6q88 0 140 128t52 474v233h674v-991h-184v870h-326v-143q0 -338 -80 -533.5t-274 -195.5q-31 0 -60 6z" />
<glyph unicode="&#x43c;" horiz-adv-x="1517" d="M172 0v991h297l301 -807h8l281 807h287v-991h-170v823h-11l-305 -823h-186l-318 823h-10v-823h-174z" />
<glyph unicode="&#x43d;" horiz-adv-x="1175" d="M160 0v991h184v-411h487v411h185v-991h-185v444h-487v-444h-184z" />
<glyph unicode="&#x43e;" horiz-adv-x="1163" d="M123 313v344q0 92 22.5 162t59.5 109q31 35 93 54t128 26q74 4 154 4q106 0 160.5 -5.5t115.5 -21.5q63 -18 98 -55t60 -107q23 -72 22 -166v-344q0 -174 -80 -254q-33 -33 -94 -51t-127 -24q-78 -4 -155 -4q-131 0 -197 9t-131 40q-68 31 -98.5 99.5t-30.5 184.5z M311 287q0 -68 15.5 -106t52.5 -54q37 -18 76 -22.5t125 -4.5t124.5 4.5t75.5 22.5q37 16 52.5 54t15.5 106v401q0 92 -22.5 134t-77 55.5t-168.5 13.5q-115 0 -169.5 -13.5t-77 -55.5t-22.5 -134v-401z" />
<glyph unicode="&#x43f;" horiz-adv-x="1181" d="M172 0v991h838v-991h-185v856h-469v-856h-184z" />
<glyph unicode="&#x440;" horiz-adv-x="1185" d="M160 -406v1397h184v-106q23 127 338 127q188 0 284.5 -79t96.5 -202v-407q0 -88 -25.5 -154t-66.5 -102q-37 -35 -101.5 -55.5t-128.5 -26.5q-57 -6 -139 -6q-90 0 -165 21.5t-93 61.5v-469h-184zM334 301q0 -82 25.5 -124t83 -57.5t163.5 -15.5q107 0 163 15.5 t80.5 56.5t24.5 125v365q0 92 -24.5 137t-80.5 60.5t-165 15.5t-165 -15.5t-80.5 -60.5t-24.5 -137v-365z" />
<glyph unicode="&#x441;" horiz-adv-x="950" d="M123 303v365q0 166 63 237q35 41 71 62.5t93 29.5t102.5 11.5t127.5 3.5q141 0 282 -31v-135q-164 41 -305 41q-106 0 -156.5 -15.5t-70 -55.5t-19.5 -122v-405q0 -76 21.5 -113t78 -52t167.5 -15q150 0 299 38v-139q-139 -29 -318 -28q-102 0 -148 4t-106 20 q-63 16 -98 49t-60 97q-25 61 -24 153z" />
<glyph unicode="&#x442;" horiz-adv-x="1001" d="M61 856v135h879v-135h-346v-856h-184v856h-349z" />
<glyph unicode="&#x443;" horiz-adv-x="942" d="M12 991h201l276 -809h5l249 809h187l-498 -1417h-192l155 412z" />
<glyph unicode="&#x444;" horiz-adv-x="1470" d="M123 334v303q0 152 50 227.5t157.5 101t310.5 25.5v428h184v-428q203 0 310.5 -25.5t157.5 -101.5t50 -227v-303q0 -141 -48 -212t-156.5 -96.5t-313.5 -25.5v-406h-184v406q-205 0 -313.5 25.5t-156.5 96.5t-48 212zM311 307q0 -84 27 -122t94.5 -51t208.5 -13v749 q-145 0 -212 -13t-92.5 -54t-25.5 -135v-361zM825 121q141 0 209 13t94.5 51t26.5 122v361q0 94 -25.5 135t-92 54t-212.5 13v-749z" />
<glyph unicode="&#x445;" horiz-adv-x="1062" d="M20 0l390 510l-369 481h223l266 -362l269 362h223l-389 -481l409 -510h-223l-289 391l-286 -391h-224z" />
<glyph unicode="&#x446;" horiz-adv-x="1230" d="M172 0v991h184v-856h490v856h184v-856h139v-389h-157v254h-840z" />
<glyph unicode="&#x447;" horiz-adv-x="1173" d="M160 590v401h184v-389q0 -94 49 -129t164 -35q113 0 171 15.5t79.5 50.5t21.5 98v389h185v-991h-185v446q-27 -141 -325 -141q-190 0 -267 68.5t-77 216.5z" />
<glyph unicode="&#x448;" horiz-adv-x="1673" d="M172 0v991h184v-856h387v856h187v-856h387v856h184v-991h-1329z" />
<glyph unicode="&#x449;" horiz-adv-x="1701" d="M172 0v991h184v-856h387v856h187v-856h387v856h184v-856h139v-409h-178v274h-1290z" />
<glyph unicode="&#x44a;" horiz-adv-x="1157" d="M61 856v135h476v-358h213q127 0 201.5 -18.5t109.5 -64.5t35 -130v-205q0 -215 -363 -215h-385v856h-287zM535 119h186q59 0 123 16q72 18 71 105v125q0 59 -15 89.5t-55 43t-120 12.5h-190v-391z" />
<glyph unicode="&#x44b;" horiz-adv-x="1388" d="M160 0v991h188v-358h193q127 0 201.5 -18.5t109.5 -64.5t35 -130v-205q0 -215 -363 -215h-364zM346 119h166q59 0 123 16q72 18 72 105v125q0 59 -15.5 89.5t-55.5 43t-120 12.5h-170v-391zM1044 0v991h185v-991h-185z" />
<glyph unicode="&#x44c;" horiz-adv-x="1005" d="M160 0v991h184v-358h254q127 0 201.5 -18.5t109.5 -64.5t35 -130v-205q0 -215 -362 -215h-422zM342 119h227q59 0 123 16q72 18 72 105v125q0 59 -15.5 89.5t-55.5 43t-120 12.5h-231v-391z" />
<glyph unicode="&#x44d;" horiz-adv-x="950" d="M74 8v139q150 -39 299 -38q113 0 168 14t76.5 50t21.5 112v149h-377v139h377v121q0 88 -17.5 127t-67.5 52.5t-161 13.5q-141 0 -305 -41v135q141 31 283 31q82 0 127 -3t104 -12q55 -8 91 -29.5t71 -62.5q63 -72 63 -237v-365q0 -88 -22.5 -151.5t-59.5 -98.5 q-31 -29 -93 -47t-120 -22q-70 -4 -141 -4q-178 -1 -317 28z" />
<glyph unicode="&#x44e;" horiz-adv-x="1654" d="M172 0v991h184v-446h258v112q0 92 22.5 162t59.5 109q31 35 93.5 54t128.5 26q74 4 153 4q106 0 160.5 -5.5t116.5 -21.5q63 -18 98 -55t59 -107q23 -72 23 -166v-344q0 -174 -80 -254q-33 -33 -94.5 -51t-126.5 -24q-78 -4 -156 -4q-131 0 -196.5 9t-131.5 40 q-68 31 -98.5 99.5t-30.5 184.5v119h-258v-432h-184zM803 287q0 -68 15.5 -106t51.5 -54q37 -18 76 -22.5t125 -4.5t125 4.5t76 22.5q37 16 52 54t15 106v401q0 92 -22.5 134t-76.5 55.5t-169 13.5t-169 -13.5t-76.5 -55.5t-22.5 -134v-401z" />
<glyph unicode="&#x44f;" horiz-adv-x="1118" d="M61 0l304 391q-117 18 -169.5 76.5t-52.5 161.5v106q0 106 30 159.5t101.5 75t212.5 21.5h471v-991h-184v356h-217l-252 -356h-244zM330 649q0 -80 38 -123t115 -43h291v381h-268q-76 0 -113 -12t-50 -43t-13 -90v-70z" />
<glyph unicode="&#x450;" horiz-adv-x="1095" d="M123 283v391q0 180 103.5 259t334.5 79q219 0 316.5 -76t97.5 -262v-219h-666v-150q0 -102 72 -147t221 -45q141 0 334 49v-142q-188 -41 -358 -40q-455 0 -455 303zM230 1393h223l184 -260h-151zM309 575h482v156q0 90 -54.5 124t-185.5 34q-127 0 -184.5 -34 t-57.5 -124v-156z" />
<glyph unicode="&#x451;" horiz-adv-x="1095" d="M123 283v391q0 180 103.5 259t334.5 79q219 0 316.5 -76t97.5 -262v-219h-666v-150q0 -102 72 -147t221 -45q141 0 334 49v-142q-188 -41 -358 -40q-455 0 -455 303zM303 1157v193h184v-193h-184zM309 575h482v156q0 90 -54.5 124t-185.5 34q-127 0 -184.5 -34 t-57.5 -124v-156zM651 1157v193h184v-193h-184z" />
<glyph unicode="&#x452;" horiz-adv-x="1110" d="M0 1112v107h182v215h185v-215h409v-107h-409v-324q14 68 97 105t208 37q178 0 272 -96.5t94 -270.5q0 -233 -18.5 -372.5t-98 -259t-251.5 -195.5l-45 106q104 72 152 159t61.5 197.5t13.5 311.5q0 143 -54.5 215t-172.5 72q-98 0 -178 -41t-80 -123v-633h-185v1112h-182 z" />
<glyph unicode="&#x453;" horiz-adv-x="860" d="M172 0v991h647v-135h-463v-856h-184zM396 1133l184 260h223l-256 -260h-151z" />
<glyph unicode="&#x454;" horiz-adv-x="950" d="M123 303v365q0 166 63 237q35 41 71 62.5t93 29.5t102.5 11.5t127.5 3.5q141 0 282 -31v-135q-164 41 -305 41q-111 0 -161 -13.5t-67.5 -52.5t-17.5 -127v-121h500v-139h-500v-149q0 -76 21.5 -112t77 -50t168.5 -14q150 0 299 38v-139q-139 -29 -318 -28q-102 0 -148 4 t-106 20q-63 16 -98 49t-60 97q-25 61 -24 153z" />
<glyph unicode="&#x455;" horiz-adv-x="989" d="M102 686v92q0 233 443 234q33 0 301 -17v-133q-182 29 -309 29q-145 0 -199 -29q-53 -29 -53 -96v-84q0 -100 182 -100h115q313 0 313 -234v-86q0 -154 -106.5 -218t-325.5 -64q-158 -1 -340 24v141q240 -39 344 -39q131 0 188.5 26t57.5 95v101q0 63 -43 89.5t-140 26.5 h-112q-154 0 -235 63.5t-81 178.5z" />
<glyph unicode="&#x456;" horiz-adv-x="503" d="M160 0v991h184v-991h-184zM160 1157v193h184v-193h-184z" />
<glyph unicode="&#x457;" horiz-adv-x="503" d="M-10 1157v193h184v-193h-184zM162 0v991h184v-991h-184zM338 1157v193h184v-193h-184z" />
<glyph unicode="&#x458;" horiz-adv-x="505" d="M-88 -322q43 -8 78 -8q90 0 131 36t41 130v1155h184v-1141q0 -166 -78 -233.5t-252 -67.5q-57 1 -104 9v120zM162 1157v193h184v-193h-184z" />
<glyph unicode="&#x459;" horiz-adv-x="1544" d="M61 0v158h62q76 0 131 163.5t55 559.5v110h635v-358h193q127 0 201.5 -18.5t109.5 -64.5t35 -130v-205q0 -215 -363 -215h-360v870h-279v-61q0 -391 -77.5 -600t-262.5 -209h-80zM944 119h164q59 0 123 16q72 18 72 105v125q0 59 -15.5 89.5t-55.5 43t-120 12.5h-168 v-391z" />
<glyph unicode="&#x45a;" horiz-adv-x="1589" d="M160 0v991h184v-358h457v358h188v-358h193q127 0 201.5 -18.5t109.5 -64.5t35 -130v-205q0 -215 -363 -215h-364v510h-457v-510h-184zM987 119h166q100 0 147.5 26.5t47.5 94.5v125q0 59 -15.5 89.5t-55.5 43t-120 12.5h-170v-391z" />
<glyph unicode="&#x45b;" horiz-adv-x="1196" d="M0 1112v107h182v215h185v-215h368v-107h-368v-324q29 141 325 142q190 0 267 -68.5t77 -216.5v-645h-184v633q0 39 -6 63.5t-25 48.5q-41 51 -182 52q-113 0 -171 -15.5t-79.5 -50.5t-21.5 -98v-633h-185v1112h-182z" />
<glyph unicode="&#x45c;" horiz-adv-x="1028" d="M158 0v991h184v-428q31 0 50.5 13.5t47.5 41.5l344 373h226l-451 -469q27 -6 77 -55t148 -160l277 -307h-227l-271 307q-55 63 -108 101q-41 27 -57.5 31.5t-33 4.5h-22.5v-444h-184zM432 1133l184 260h223l-256 -260h-151z" />
<glyph unicode="&#x45d;" horiz-adv-x="1204" d="M160 0v991h184v-755l526 755h174v-991h-184v731l-516 -731h-184zM262 1393h223l184 -260h-151z" />
<glyph unicode="&#x45e;" horiz-adv-x="942" d="M12 991h201l276 -809h5l249 809h187l-498 -1417h-192l155 412zM182 1393h152q14 -160 151 -160q135 0 152 160h151q-4 -117 -85 -188.5t-218 -71.5t-217 70.5t-86 189.5z" />
<glyph unicode="&#x45f;" horiz-adv-x="1263" d="M172 0v991h184v-856h551v856h185v-991h-367v-274h-178v274h-375z" />
<glyph unicode="&#x462;" horiz-adv-x="1249" d="M49 1026v139h205v164h199v-164h348v-139h-348v-188h198q166 0 271.5 -17.5t170 -77t64.5 -176.5v-278q0 -289 -469 -289h-434v1026h-205zM451 135h223q143 0 216 35t73 127v248q0 66 -27 98.5t-87.5 45.5t-170.5 13h-227v-567z" />
<glyph unicode="&#x463;" horiz-adv-x="1083" d="M0 856v135h233v338h189v-338h307v-135h-307v-223h254q127 0 201.5 -18.5t109.5 -64.5t35 -130v-205q0 -215 -363 -215h-426v856h-233zM420 119h227q59 0 123 16q72 18 72 105v125q0 59 -15.5 89.5t-55.5 43t-120 12.5h-231v-391z" />
<glyph unicode="&#x46a;" horiz-adv-x="1835" d="M20 0l218 416q76 143 183 217t300 74h33l-521 622h1369l-521 -622h33q193 0 300.5 -74t182.5 -217l218 -416h-199l-195 360q-55 102 -113.5 157.5t-129 77t-170.5 21.5v-616h-181v616q-100 0 -170.5 -21.5t-129 -76.5t-113.5 -158l-195 -360h-199zM553 1190l365 -449 l364 449h-729z" />
<glyph unicode="&#x46b;" horiz-adv-x="1542" d="M-33 0l277 307q88 96 126 135t84 69t107 42l-397 438h1196l-391 -436q66 -12 115 -41t89.5 -70t124.5 -137l277 -307h-227l-271 307q-55 63 -108 101q-39 27 -55.5 32.5t-33 4.5t-24.5 -1v-444h-170v444q-8 0 -26.5 1t-37 -7t-49.5 -30q-53 -37 -108 -101l-270 -307h-228 zM477 856l289 -332h10l289 332h-588z" />
<glyph unicode="&#x472;" horiz-adv-x="1390" d="M135 340v629q0 381 557 381q563 0 563 -379v-631q0 -193 -155.5 -276.5t-407.5 -83.5q-557 0 -557 360zM326 342q0 -229 370 -229q367 0 367 229v274h-737v-274zM326 756h737v219q0 246 -369 246q-178 0 -273 -55.5t-95 -190.5v-219z" />
<glyph unicode="&#x473;" horiz-adv-x="1163" d="M123 313v344q0 92 22.5 162t59.5 109q31 35 93 54t128 26q74 4 154 4q106 0 160.5 -5.5t115.5 -21.5q63 -18 98 -55t60 -107q22 -72 22 -166v-344q0 -174 -80 -254q-33 -33 -94 -51t-127 -24q-78 -4 -155 -4q-131 0 -197 9t-131 40q-68 31 -98.5 99.5t-30.5 184.5z M311 287q0 -68 15.5 -106t52.5 -54q37 -18 76 -22.5t125 -4.5t124.5 4.5t75.5 22.5q37 16 52.5 54t15.5 106v157h-537v-157zM311 580h537v108q0 92 -22.5 134t-77 55.5t-168.5 13.5q-115 0 -169.5 -13.5t-77 -55.5t-22.5 -134v-108z" />
<glyph unicode="&#x474;" horiz-adv-x="1345" d="M8 1329h217l346 -967q35 -96 52 -151l51 151l272 803q63 186 232 187q47 0 84.5 -13.5t83.5 -44.5l-41 -114q-39 16 -72 16q-90 0 -133 -115l-395 -1081h-181z" />
<glyph unicode="&#x475;" horiz-adv-x="1030" d="M12 991h176l215 -594q33 -94 62 -198l63 188l154 422q39 104 91 153.5t142 49.5q37 0 67 -8.5t69 -26.5l-27 -103q-37 12 -70 13q-47 0 -79.5 -28t-55.5 -87l-293 -772h-137z" />
<glyph unicode="&#x48a;" horiz-adv-x="1480" d="M174 0v1329h182v-1098l715 1098h240v-1192h164l-144 -506h-164l105 369h-144v1116l-714 -1116h-240zM442 1700h176q31 -84 57.5 -110.5t92.5 -26.5q57 0 91 31.5t56 105.5h93q-8 -115 -89 -187.5t-194 -72.5q-117 0 -196.5 72.5t-86.5 187.5z" />
<glyph unicode="&#x48b;" horiz-adv-x="1245" d="M160 0v991h174v-801l512 801h239v-854h164l-143 -506h-164l105 369h-136v819l-512 -819h-239zM367 1391h176q31 -84 57.5 -111t91.5 -27q57 0 91 32t57 106h92q-8 -115 -89 -188t-194 -73q-117 0 -196.5 73t-85.5 188z" />
<glyph unicode="&#x48c;" horiz-adv-x="1167" d="M43 1047v129h129v153h199v-153h176v-129h-176v-291h198q106 0 174 -5.5t131 -21.5q100 -25 150.5 -82t50.5 -162v-196q0 -289 -469 -289h-434v1047h-129zM369 135h223q57 0 92 4t86 17q53 14 82 50t29 91v166q0 86 -65.5 122t-219.5 36h-227v-486z" />
<glyph unicode="&#x48d;" horiz-adv-x="1091" d="M43 1047v129h129v153h188v-153h187v-129h-187v-414h295q127 0 202 -18.5t109.5 -64.5t34.5 -130v-205q0 -215 -362 -215h-467v1047h-129zM358 119h269q57 0 123 14q72 23 71 107v125q0 87 -37 114q-33 31 -153 31h-273v-391z" />
<glyph unicode="&#x48e;" horiz-adv-x="1167" d="M172 0v1329h434q92 0 148.5 -4t117.5 -20q96 -20 146.5 -77t56.5 -161v-276q0 -150 -106 -224l102 -102l-94 -94l-139 137q-111 -29 -269 -29h-198v-479h-199zM369 604h227q76 0 131 14l-113 113l97 96l135 -137q35 51 35 111v241q0 56 -29 91.5t-82 50.5q-51 12 -86 16 t-92 4h-223v-600z" />
<glyph unicode="&#x48f;" horiz-adv-x="1185" d="M160 -381v1372h182v-106h2q23 127 338 127q199 0 289 -84q92 -82 92 -197v-407q0 -172 -96 -256l110 -111l-94 -94l-141 141q-94 -25 -240 -24q-90 0 -165 21.5t-93 61.5v-444h-184zM334 301q0 -125 59 -162q63 -35 213 -35q72 0 127 7l-112 112l96 96l135 -137 q23 49 22 119v365q0 137 -59 174q-57 39 -211 39q-156 0 -213 -39q-57 -37 -57 -174v-365z" />
<glyph unicode="&#x490;" horiz-adv-x="1044" d="M172 0v1329h653v232h158v-371h-612v-1190h-199z" />
<glyph unicode="&#x491;" horiz-adv-x="901" d="M172 0v991h504v189h143v-324h-463v-856h-184z" />
<glyph unicode="&#x492;" horiz-adv-x="1146" d="M20 616v140h152v573h811v-139h-612v-434h374v-140h-374v-616h-199v616h-152z" />
<glyph unicode="&#x493;" horiz-adv-x="860" d="M47 434v107h125v450h647v-135h-463v-315h238v-107h-238v-434h-184v434h-125z" />
<glyph unicode="&#x494;" horiz-adv-x="1189" d="M172 0v1329h811v-139h-612v-391q160 41 309 41q233 0 330.5 -118t97.5 -355q0 -295 -120 -422t-308 -127q-72 0 -182 18v135q90 -23 155 -22q143 0 200.5 87t57.5 283q0 145 -28.5 227.5t-90 118t-167.5 35.5q-125 0 -254 -41v-659h-199z" />
<glyph unicode="&#x495;" horiz-adv-x="1054" d="M160 0v991h647v-135h-463v-395q12 68 93 104.5t192 36.5q178 0 282.5 -111.5t104.5 -316.5q0 -135 -54.5 -261t-171 -223.5t-296.5 -140.5l-45 107q203 59 291.5 182t88.5 303q0 328 -247 328q-104 0 -171 -40t-67 -124v-305h-184z" />
<glyph unicode="&#x496;" horiz-adv-x="1937" d="M20 0l218 416q61 117 143 184.5t190 95.5q-49 18 -91 48t-81 87l-338 498h218l276 -446q49 -80 111.5 -103.5t160.5 -23.5v573h181v-573q98 0 160.5 23.5t111.5 103.5l276 446h218l-338 -498q-39 -57 -81 -86.5t-91 -48.5q109 -29 190.5 -96.5t142.5 -183.5l144 -277h155 v-418h-172v279h-108l-195 360q-55 102 -113.5 157.5t-129 77t-170.5 21.5v-616h-181v616q-100 0 -170.5 -21.5t-129 -76.5t-113.5 -158l-195 -360h-199z" />
<glyph unicode="&#x497;" horiz-adv-x="1542" d="M-33 0l277 307q98 111 148 160t77 55l-451 469h226l303 -373q43 -55 139 -55v428h170v-428q96 0 139 55l303 373h226l-451 -469q27 -6 77 -55t148 -160l156 -172h156v-389h-158v254h-104l-271 307q-55 63 -108 101q-39 27 -55.5 32.5t-33 4.5t-24.5 -1v-444h-170v444 q-8 0 -26.5 1t-37 -7t-49.5 -30q-53 -37 -108 -101l-270 -307h-228z" />
<glyph unicode="&#x498;" d="M111 18v152q244 -51 407 -51q154 0 233.5 31.5t79.5 121.5v224q0 127 -274 127h-276v127h241q276 0 277 131v223q0 106 -267 106q-72 0 -239 -10l-156 -12v139q266 16 393 16q231 0 343 -51t112 -172v-248q0 -63 -51 -105t-131 -54v-8q49 -8 80.5 -17.5t68.5 -28.5 q72 -37 72 -129v-266q0 -139 -98.5 -202.5t-274.5 -77.5q20 -96 21 -156q0 -98 -58.5 -157.5t-156.5 -59.5q-100 0 -215 59v117q88 -45 166 -45q63 0 102 42t39 107q0 41 -12 89q-211 0 -426 38z" />
<glyph unicode="&#x499;" horiz-adv-x="968" d="M102 14v146q154 -45 279 -45q141 0 206.5 31.5t65.5 121.5v64q0 76 -66.5 101.5t-187.5 25.5h-112v127h78q125 0 190.5 28.5t65.5 102.5v61q0 106 -246 107q-129 0 -252 -25v133q117 18 250 19q158 0 246 -16.5t137 -61.5q51 -45 51 -146v-79q0 -66 -48 -108t-124 -54v-8 q211 -33 211 -183v-102q0 -70 -27.5 -124t-73.5 -83q-59 -37 -167 -55q29 -109 28 -178q0 -94 -56 -151.5t-153 -57.5q-100 0 -207 57v115q82 -45 160 -45q61 0 99 41t38 104q0 49 -18 105q-31 -2 -88 -2q-121 0 -279 34z" />
<glyph unicode="&#x49a;" horiz-adv-x="1343" d="M172 0v1329h201v-573q123 0 190.5 23.5t122.5 103.5l318 446h217l-379 -498q-76 -98 -174 -135q111 -29 192.5 -96.5t143.5 -183.5l143 -277h156v-418h-173v279h-108l-195 360q-57 104 -116.5 158.5t-138 76t-199.5 21.5v-616h-201z" />
<glyph unicode="&#x49b;" horiz-adv-x="1136" d="M158 0v991h184v-428q31 0 50.5 13.5t47.5 41.5l344 373h226l-451 -469q27 -6 77 -55t148 -160l156 -172h156v-389h-158v254h-104l-271 307q-55 63 -108 101q-41 27 -57.5 31.5t-33 4.5h-22.5v-444h-184z" />
<glyph unicode="&#x49c;" horiz-adv-x="1241" d="M172 0v1329h201v-573q115 0 168 16v234h104v-172q12 12 41 49l318 446h217l-379 -498q-76 -98 -174 -135q110 -28 192 -96t144 -184l217 -416h-199l-195 360q-43 80 -87 129.5t-95 75.5v-209h-104v246q-70 14 -168 14v-616h-201z" />
<glyph unicode="&#x49d;" horiz-adv-x="1028" d="M158 0v991h184v-428q33 0 82 15v231h96v-170l326 352h225l-450 -469q27 -6 77 -55t148 -160l276 -307h-227l-270 307q-49 59 -105 99v-224h-96v260q-25 4 -49.5 3t-32.5 -1v-444h-184z" />
<glyph unicode="&#x49e;" horiz-adv-x="1251" d="M-20 1083v107h194v139h199v-139h194v-107h-194v-329q84 0 127 37q45 39 123 155l125 189q82 125 145 159q63 35 207 35h71v-139h-84q-109 0 -198 -146l-90 -149q-43 -74 -104.5 -132t-114.5 -71q74 -18 309 -278l373 -414h-236l-377 414q-119 131 -176 166 q-51 37 -100 36v-616h-199v1083h-194z" />
<glyph unicode="&#x49f;" horiz-adv-x="1030" d="M41 737v107h131v147h170v-147h143v-107h-143v-178q70 0 105.5 22.5t78.5 94.5l101 162q57 94 114 123q55 31 168 30h56v-104h-39q-104 0 -172 -109l-78 -127q-70 -125 -148 -143q57 -14 226 -201l276 -307h-213l-270 307q-61 68 -103 103q-39 35 -56 42t-46 7v-459h-170 v737h-131z" />
<glyph unicode="&#x4a0;" horiz-adv-x="1417" d="M0 1190v139h549v-573q123 0 190.5 23.5t122.5 103.5l318 446h217l-379 -498q-76 -98 -174 -135q110 -28 192 -96t144 -184l217 -416h-199l-194 360q-57 104 -117 158.5t-138.5 76t-199.5 21.5v-616h-201v1190h-348z" />
<glyph unicode="&#x4a1;" horiz-adv-x="1239" d="M61 856v135h492v-428q31 0 50.5 13.5t47.5 41.5l344 373h226l-451 -469q27 -6 77 -55t148 -160l277 -307h-228l-270 307q-55 63 -108 101q-41 27 -57.5 31.5t-33 4.5h-22.5v-444h-184v856h-308z" />
<glyph unicode="&#x4a2;" horiz-adv-x="1447" d="M172 0v1329h199v-573h706v573h199v-1190h143v-418h-172v279h-170v616h-706v-616h-199z" />
<glyph unicode="&#x4a3;" horiz-adv-x="1175" d="M160 0v991h184v-411h487v411h185v-856h139v-389h-158v254h-166v444h-487v-444h-184z" />
<glyph unicode="&#x4a4;" horiz-adv-x="1763" d="M172 0v1329h199v-573h706v573h625v-139h-426v-1190h-199v616h-706v-616h-199z" />
<glyph unicode="&#x4a5;" horiz-adv-x="1400" d="M172 0v991h184v-411h469v411h535v-133h-350v-858h-185v444h-469v-444h-184z" />
<glyph unicode="&#x4a6;" horiz-adv-x="2238" d="M172 0v1329h1063v-577q188 88 360 88q229 0 352.5 -145.5t123.5 -420.5q0 -319 -143.5 -491t-407.5 -172q-168 0 -308 67q-135 68 -153 177h176q16 -43 94 -69t184 -26q184 0 283.5 128t99.5 368q0 451 -325 451q-137 0 -336 -84v-623h-199v1192h-665v-1192h-199z" />
<glyph unicode="&#x4a7;" horiz-adv-x="1812" d="M172 0v991h838v-489q100 33 217 33q201 0 334 -127t133 -318q0 -213 -127 -346t-324 -133q-162 0 -276 72q-111 70 -125 186h168q39 -137 233 -137q121 0 195.5 97t74.5 247q0 147 -82.5 235t-226.5 88q-86 0 -194 -26v-373h-187v856h-467v-856h-184z" />
<glyph unicode="&#x4a8;" horiz-adv-x="1433" d="M119 674q0 301 166 487q168 193 463 193q213 0 358 -121l-102 -103q-96 90 -261 91q-215 0 -342 -177q-102 -139 -102 -368q0 -233 96 -379q125 -186 334 -186l51 4q-98 178 -98 403q0 207 70 307q80 127 274 127q315 0 315 -424q0 -152 -70.5 -276.5t-201.5 -198.5 q139 -86 272 -90v-156q-272 19 -450 185q-53 -12 -148 -12q-309 0 -475 202q-150 182 -149 492zM856 518q0 -225 94 -362q111 49 168.5 145t57.5 225q0 138 -39 214.5t-111 76.5q-106 0 -145 -94q-25 -57 -25 -205z" />
<glyph unicode="&#x4a9;" horiz-adv-x="1067" d="M96 496q0 240 118 379t331 139q156 0 258 -78l-109 -88q-59 49 -141 49q-141 0 -214 -101.5t-73 -293.5q0 -193 71 -296.5t206 -103.5h18q-100 162 -100 340q0 113 64.5 182.5t170.5 69.5q244 0 244 -262q0 -242 -141 -369q53 -47 141 -90v-145q-183 78 -281 172 q-49 -14 -114 -14q-211 0 -330 136t-119 374zM614 436q0 -166 82 -272q92 78 92 270q0 80 -21.5 113t-70.5 33q-82 0 -82 -144z" />
<glyph unicode="&#x4aa;" horiz-adv-x="1155" d="M131 340v631q0 381 559 381q190 0 365 -39v-148q-197 49 -361 49q-80 0 -139 -9t-115 -31q-119 -51 -118 -201v-623q0 -229 380 -229q164 0 361 49v-152q-145 -33 -315 -38q23 -111 22 -166q0 -94 -56.5 -151.5t-152.5 -57.5q-100 0 -207 57v115q82 -45 160 -45 q61 0 99 41t38 104q0 37 -14 103q-506 18 -506 360z" />
<glyph unicode="&#x4ab;" horiz-adv-x="950" d="M123 303v365q0 166 63 237q35 41 71 62.5t93 29.5t102.5 11.5t127.5 3.5q141 0 282 -31v-135q-164 41 -305 41q-106 0 -156.5 -15.5t-70 -55.5t-19.5 -122v-405q0 -76 21.5 -113t78 -52t167.5 -15q150 0 299 38v-139q-117 -23 -256 -28q27 -104 26 -166q0 -94 -56 -151.5 t-153 -57.5q-100 0 -207 57v115q82 -45 160 -45q61 0 99 41t38 104q0 49 -18 103q-68 0 -110 5t-95 19q-63 16 -98 49t-60 97q-25 61 -24 153z" />
<glyph unicode="&#x4ac;" horiz-adv-x="1198" d="M49 1190v139h1100v-139h-449v-1053h123v-506h-164v369h-159v1190h-451z" />
<glyph unicode="&#x4ad;" horiz-adv-x="1058" d="M49 856v135h961v-135h-387v-719h122v-506h-163v369h-144v856h-389z" />
<glyph unicode="&#x4ae;" horiz-adv-x="1196" d="M16 1329h228l354 -624l354 624h228l-484 -786v-543h-198v537z" />
<glyph unicode="&#x4af;" horiz-adv-x="948" d="M12 991h195l274 -749h11l266 749h178l-371 -989v-428h-184v469z" />
<glyph unicode="&#x4b0;" horiz-adv-x="1196" d="M16 1329h228l354 -624l354 624h228l-353 -573h226v-140h-312l-45 -73v-543h-198v537l-49 79h-347v140h263z" />
<glyph unicode="&#x4b1;" horiz-adv-x="948" d="M12 991h195l274 -749h11l266 749h178l-371 -983v-8h322v-139h-322v-287h-184v287h-320v139h320v43z" />
<glyph unicode="&#x4b2;" horiz-adv-x="1236" d="M16 0l490 678l-469 651h227l354 -514l355 514h227l-469 -651l389 -541h160v-506h-164v369h-123l-375 541l-374 -541h-228z" />
<glyph unicode="&#x4b3;" horiz-adv-x="980" d="M20 0l369 510l-348 481h203l245 -362l248 362h203l-348 -481l268 -373h158v-506h-164v369h-96l-269 391l-266 -391h-203z" />
<glyph unicode="&#x4b4;" horiz-adv-x="1894" d="M45 1190v139h1059v-139h-430v-1051h635v1190h198v-1190h142v-508h-174v369h-1002v1190h-428z" />
<glyph unicode="&#x4b5;" horiz-adv-x="1415" d="M39 856v135h848v-135h-322v-721h469v856h185v-856h137v-436h-154v301h-821v856h-342z" />
<glyph unicode="&#x4b6;" horiz-adv-x="1249" d="M141 762v567h197v-551q0 -115 58.5 -163t181.5 -48q96 0 166.5 20.5t134.5 61.5v680h198v-1190h144v-418h-172v279h-170v522q-162 -94 -349 -94q-207 0 -298 83t-91 251z" />
<glyph unicode="&#x4b7;" horiz-adv-x="1173" d="M160 590v401h184v-389q0 -94 49 -129t164 -35q113 0 171 15.5t79.5 50.5t21.5 98v389h185v-856h139v-389h-158v254h-166v446q-27 -141 -325 -141q-190 0 -267 68.5t-77 216.5z" />
<glyph unicode="&#x4b8;" horiz-adv-x="1249" d="M141 762v567h197v-551q0 -113 56.5 -161t176.5 -50v273h105v-267q111 16 203 76v680h198v-1329h-198v522q-90 -53 -203 -80v-252h-105v240q-14 -2 -41 -2q-207 0 -298 83t-91 251z" />
<glyph unicode="&#x4b9;" horiz-adv-x="1173" d="M160 590v401h184v-389q0 -90 45 -125t150 -39v289h96v-287q117 8 155.5 43t38.5 119v389h185v-991h-185v446q-20 -106 -194 -133v-213h-96v205h-35q-190 0 -267 68.5t-77 216.5z" />
<glyph unicode="&#x4ba;" horiz-adv-x="1249" d="M172 0v1329h199v-522q162 94 348 94q207 0 298 -83t91 -251v-567h-197v551q0 115 -58 163t-181 48q-96 0 -167 -20.5t-134 -61.5v-680h-199z" />
<glyph unicode="&#x4bb;" horiz-adv-x="1173" d="M160 0v1434h184v-564q29 141 326 142q190 0 267 -69t77 -216v-727h-185v715q0 39 -6 63.5t-24 48.5q-41 51 -183 52q-113 0 -171 -15.5t-79.5 -50.5t-21.5 -98v-715h-184z" />
<glyph unicode="&#x4bc;" horiz-adv-x="1536" d="M2 813q0 59 18 133l140 -33q-12 -39 -13 -79q0 -55 28 -79t93 -24v172q0 164 60.5 261.5t188.5 142.5t335 45q283 0 416 -99q133 -98 133 -350v-313h-940v-223q0 -256 457 -256q166 0 432 65v-143q-262 -53 -510 -53q-252 0 -414 96q-158 96 -158 305v229 q-139 0 -202.5 47.5t-63.5 155.5zM461 731h747v277q0 213 -362 213q-188 0 -286.5 -48.5t-98.5 -164.5v-277z" />
<glyph unicode="&#x4bd;" horiz-adv-x="1236" d="M-2 657q0 59 18 134l140 -33q-12 -39 -13 -80q0 -55 28 -79t93 -24v99q0 180 103.5 259t334.5 79q219 0 316.5 -76t97.5 -262v-219h-665v-150q0 -102 72.5 -147t228.5 -45q131 0 325 49v-142q-199 -41 -383 -40q-199 0 -314.5 75.5t-115.5 227.5v172q-139 0 -202.5 47 t-63.5 155zM451 575h481v156q0 88 -53.5 123t-180.5 35q-133 0 -190 -34t-57 -124v-156z" />
<glyph unicode="&#x4be;" horiz-adv-x="1536" d="M2 813q0 59 18 133l140 -33q-12 -39 -13 -79q0 -55 28 -79t93 -24v172q0 164 60.5 261.5t188.5 142.5t335 45q283 0 416 -99q133 -98 133 -350v-313h-940v-223q0 -256 457 -256q166 0 432 65v-143q-184 -37 -365 -49q-55 -92 -55 -183q0 -68 80 -67q20 0 63 14v-108 q-41 -20 -102 -21q-104 0 -153.5 39t-49.5 125q0 94 61 197q-246 2 -403 96q-158 96 -158 305v229q-139 0 -202.5 47.5t-63.5 155.5zM461 731h747v277q0 213 -362 213q-188 0 -286.5 -48.5t-98.5 -164.5v-277z" />
<glyph unicode="&#x4bf;" horiz-adv-x="1236" d="M-2 657q0 59 18 134l140 -33q-12 -39 -13 -80q0 -55 28 -79t93 -24v99q0 180 103.5 259t334.5 79q219 0 316.5 -76t97.5 -262v-219h-665v-150q0 -102 72.5 -147t228.5 -45q131 0 325 49v-142q-125 -25 -250 -36q-53 -90 -53 -177q0 -68 80 -67q20 0 64 14v-108 q-41 -20 -103 -21q-104 0 -153.5 39t-49.5 125q0 94 58 191q-188 4 -297 79.5t-109 223.5v172q-139 0 -202.5 47t-63.5 155zM451 575h481v156q0 88 -53.5 123t-180.5 35q-133 0 -190 -34t-57 -124v-156z" />
<glyph unicode="&#x4c0;" horiz-adv-x="542" d="M172 0v1329h199v-1329h-199z" />
<glyph unicode="&#x4c1;" horiz-adv-x="1835" d="M20 0l218 416q61 117 143 184.5t190 95.5q-49 18 -91 48t-81 87l-338 498h218l276 -446q49 -80 111.5 -103.5t160.5 -23.5v573h181v-573q98 0 160.5 23.5t111.5 103.5l276 446h218l-338 -498q-39 -57 -81 -86.5t-91 -48.5q109 -29 190.5 -96.5t142.5 -183.5l218 -416 h-199l-195 360q-55 102 -113.5 157.5t-129 77t-170.5 21.5v-616h-181v616q-100 0 -170.5 -21.5t-129 -76.5t-113.5 -158l-195 -360h-199zM594 1731h151q18 -160 173 -160q154 0 172 160h151q-4 -117 -90 -189t-233 -72q-146 0 -232 71t-92 190z" />
<glyph unicode="&#x4c2;" horiz-adv-x="1542" d="M-33 0l277 307q98 111 148 160t77 55l-451 469h226l303 -373q43 -55 139 -55v428h170v-428q96 0 139 55l303 373h226l-451 -469q27 -6 77 -55t148 -160l277 -307h-227l-271 307q-55 63 -108 101q-39 27 -55.5 32.5t-33 4.5t-24.5 -1v-444h-170v444q-8 0 -26.5 1t-37 -7 t-49.5 -30q-53 -37 -108 -101l-270 -307h-228zM469 1393h152q16 -160 151 -160q137 0 152 160h151q-4 -117 -85 -188.5t-218 -71.5t-217 70.5t-86 189.5z" />
<glyph unicode="&#x4c3;" horiz-adv-x="1366" d="M172 0v1329h199v-584q115 0 159 43q51 51 125 230q57 139 93 186q35 49 102 88q63 37 145 37q104 0 107 -2v-151l-70 2q-82 0 -127 -39q-43 -39 -94 -174q-68 -170 -117 -220q240 0 373 -136t133 -378q0 -297 -145.5 -459.5t-407.5 -162.5q-168 0 -307 78t-156 186h174 q23 -49 103 -82t180 -33q178 0 275.5 120t97.5 337q0 186 -94.5 297t-257.5 111h-291v-623h-199z" />
<glyph unicode="&#x4c4;" horiz-adv-x="1112" d="M160 0v991h184v-428q72 0 104.5 24.5t65.5 100.5l92 203q31 63 74 82q43 18 149 18h35v-139h-49q-59 0 -82 -23q-18 -18 -59 -118q-33 -88 -90 -148q195 0 317 -131q125 -127 125 -332q0 -211 -133 -350t-334 -139q-160 0 -270.5 74.5t-128.5 195.5h168q43 -133 231 -133 q125 0 207 94.5t82 241.5q0 156 -82 244t-227 88h-195v-416h-184z" />
<glyph unicode="&#x4c5;" horiz-adv-x="1343" d="M18 4l33 135q47 -18 82 -18q76 0 103 57q29 61 28 225v926h920v-1157h182l-186 -580h-172l137 408h-160v1190h-522v-774q0 -244 -66 -340t-225 -96q-63 0 -154 24z" />
<glyph unicode="&#x4c6;" horiz-adv-x="1343" d="M18 0l33 135q47 -18 82 -18q80 0 113 60.5t33 221.5v592h837v-819h182l-186 -580h-172l137 408h-145v856h-469v-420q0 -250 -66 -356q-66 -104 -225 -105q-63 0 -154 25z" />
<glyph unicode="&#x4c7;" horiz-adv-x="1447" d="M172 0v1329h199v-573h706v573h199v-1063q0 -354 -154 -504q-156 -152 -428 -151q-215 0 -349 72.5t-152 191.5h176q41 -115 319 -115q197 0 293 115t96 404v337h-706v-616h-199z" />
<glyph unicode="&#x4c8;" horiz-adv-x="1181" d="M172 0v991h184v-411h469v411h185v-921q0 -213 -118 -336t-319 -123q-162 0 -276 72q-111 70 -125 186h168q39 -137 233 -137q121 0 186.5 86t65.5 237v389h-469v-444h-184z" />
<glyph unicode="&#x4c9;" horiz-adv-x="1447" d="M172 0v1329h199v-573h706v573h199v-1192h164l-144 -506h-163l104 369h-160v616h-706v-616h-199z" />
<glyph unicode="&#x4ca;" horiz-adv-x="1181" d="M172 0v991h184v-411h469v411h185v-854h164l-144 -506h-164l105 369h-146v444h-469v-444h-184z" />
<glyph unicode="&#x4cb;" horiz-adv-x="1249" d="M141 762v567h197v-551q0 -115 58.5 -163t181.5 -48q96 0 166.5 20.5t134.5 61.5v680h198v-1329h-159v-369h-164v506h125v373q-160 -82 -349 -82q-207 0 -298 83t-91 251z" />
<glyph unicode="&#x4cc;" horiz-adv-x="1173" d="M160 590v401h184v-389q0 -94 49 -129t164 -35q113 0 171 15.5t79.5 50.5t21.5 98v389h185v-991h-140v-254h-157v389h112v311q-27 -141 -325 -141q-190 0 -267 68.5t-77 216.5z" />
<glyph unicode="&#x4cd;" horiz-adv-x="1763" d="M172 0v1329h297l426 -1106l6 -2l404 1108h286v-1192h162l-143 -506h-164l104 369h-133v1124h-10l-428 -1124h-178l-441 1124h-10v-1124h-178z" />
<glyph unicode="&#x4ce;" horiz-adv-x="1517" d="M172 0v991h297l301 -807h8l281 807h287v-854h163l-143 -506h-164l105 369h-131v823h-11l-305 -823h-186l-318 823h-10v-823h-174z" />
<glyph unicode="&#x4cf;" horiz-adv-x="542" d="M172 0v1329h199v-1329h-199z" />
<glyph unicode="&#x4d0;" horiz-adv-x="1335" d="M31 0l528 1329h229l517 -1329h-207l-152 403h-569l-150 -403h-196zM344 1731h152q18 -160 172 -160t172 160h151q-4 -117 -90 -189t-233 -72q-146 0 -232 71t-92 190zM428 541h469l-225 600h-19z" />
<glyph unicode="&#x4d1;" horiz-adv-x="1101" d="M102 295q0 113 32 175t108.5 89t218.5 27h297v157q0 55 -21.5 85t-72 42.5t-146.5 12.5q-154 0 -340 -25v135q203 18 367 19q172 0 254 -25.5t112.5 -89t30.5 -197.5v-700h-178v94q-23 -115 -299 -114q-141 0 -218 26.5t-111 94t-34 194.5zM227 1393h152 q14 -160 151 -160q135 0 152 160h151q-4 -117 -85 -188.5t-218 -71.5t-217 70.5t-86 189.5zM283 289q0 -74 14 -114t51 -57.5t111 -17.5h37q100 0 170 15q92 18 92 86v270h-285q-88 0 -127 -13.5t-51 -50t-12 -118.5z" />
<glyph unicode="&#x4d2;" horiz-adv-x="1335" d="M31 0l528 1329h229l517 -1329h-207l-152 403h-569l-150 -403h-196zM402 1546v193h184v-193h-184zM428 541h469l-225 600h-19zM750 1546v193h184v-193h-184z" />
<glyph unicode="&#x4d3;" horiz-adv-x="1101" d="M102 295q0 113 32 175t108.5 89t218.5 27h297v157q0 55 -21.5 85t-72 42.5t-146.5 12.5q-154 0 -340 -25v135q203 18 367 19q172 0 254 -25.5t112.5 -89t30.5 -197.5v-700h-178v94q-23 -115 -299 -114q-141 0 -218 26.5t-111 94t-34 194.5zM264 1157v193h184v-193h-184z M283 289q0 -74 14 -114t51 -57.5t111 -17.5h37q100 0 170 15q92 18 92 86v270h-285q-88 0 -127 -13.5t-51 -50t-12 -118.5zM612 1157v193h184v-193h-184z" />
<glyph unicode="&#x4d4;" horiz-adv-x="1890" d="M0 0l733 1329h1034v-139h-632v-434h565v-140h-565v-477h653v-139h-852v403h-504l-209 -403h-223zM502 541h434v649h-98z" />
<glyph unicode="&#x4d5;" horiz-adv-x="1720" d="M102 287q0 119 31 182t106.5 90t221.5 27h307v153q0 78 -52 111t-181 33q-221 0 -357 -35v135q160 29 381 29q242 0 324 -72q102 72 313 72q217 0 310 -75t93 -263v-219h-645v-150q0 -102 68 -147t215 -45q131 0 324 49v-142q-193 -41 -355 -40q-260 0 -370 116 q-27 -117 -365 -116q-147 0 -225 25.5t-111 90t-33 191.5zM283 289q0 -80 14 -119t55 -56.5t127 -17.5q49 0 86 2t78 8q43 6 66.5 18.5t42.5 37.5q16 27 16 61v248h-295q-88 0 -127 -13.5t-51 -50t-12 -118.5zM954 575h461v156q0 92 -49 125t-178 33q-125 0 -179.5 -34 t-54.5 -124v-156z" />
<glyph unicode="&#x4d6;" d="M172 0v1329h893v-139h-694v-434h626v-140h-626v-477h714v-139h-913zM311 1731h152q18 -160 172 -160t172 160h151q-4 -117 -90 -189t-233 -72q-146 0 -232 71t-92 190z" />
<glyph unicode="&#x4d7;" horiz-adv-x="1095" d="M123 283v391q0 180 103.5 259t334.5 79q219 0 316.5 -76t97.5 -262v-219h-666v-150q0 -102 72 -147t221 -45q141 0 334 49v-142q-188 -41 -358 -40q-455 0 -455 303zM266 1393h152q14 -160 151 -160q135 0 152 160h151q-4 -117 -85 -188.5t-218 -71.5t-217 70.5 t-86 189.5zM309 575h482v156q0 90 -54.5 124t-185.5 34q-127 0 -184.5 -34t-57.5 -124v-156z" />
<glyph unicode="&#x4d8;" horiz-adv-x="1394" d="M127 428v313h940v224q0 256 -457 256q-166 0 -432 -66v143q262 53 510 54q264 0 418 -100.5t154 -301.5v-522q0 -164 -60.5 -261t-188.5 -142t-335 -45q-195 0 -314.5 43t-177 140t-57.5 265zM319 324q0 -213 363 -213q188 0 286.5 48t98.5 165v276h-748v-276z" />
<glyph unicode="&#x4d9;" horiz-adv-x="1095" d="M127 317v220h666v149q0 102 -73 147.5t-228 45.5q-133 0 -326 -50v142q199 41 383 41q199 0 314.5 -76t115.5 -227v-392q0 -180 -103.5 -258.5t-334.5 -78.5q-219 0 -316.5 75.5t-97.5 261.5zM311 260q0 -88 53.5 -123t180.5 -35q133 0 190.5 34t57.5 124v156h-482v-156z " />
<glyph unicode="&#x4da;" horiz-adv-x="1394" d="M127 428v313h940v224q0 256 -457 256q-166 0 -432 -66v143q262 53 510 54q254 0 412 -97q160 -94 160 -305v-522q0 -164 -60.5 -261t-188.5 -142t-335 -45q-285 0 -418 98q-131 98 -131 350zM319 324q0 -213 363 -213q188 0 286.5 48t98.5 165v276h-748v-276zM430 1495 v193h184v-193h-184zM778 1495v193h185v-193h-185z" />
<glyph unicode="&#x4db;" horiz-adv-x="1095" d="M123 317v220h665v149q0 102 -72.5 147.5t-228.5 45.5q-133 0 -325 -50v142q199 41 383 41q199 0 314.5 -76t115.5 -227v-392q0 -180 -103.5 -258.5t-334.5 -78.5q-219 0 -316.5 75.5t-97.5 261.5zM281 1157v193h184v-193h-184zM307 260q0 -88 53.5 -123t180.5 -35 q133 0 190 34t57 124v156h-481v-156zM629 1157v193h184v-193h-184z" />
<glyph unicode="&#x4dc;" horiz-adv-x="1835" d="M20 0l218 416q61 117 143 184.5t190 95.5q-49 18 -91 48t-81 87l-338 498h218l276 -446q49 -80 111.5 -103.5t160.5 -23.5v573h181v-573q98 0 160.5 23.5t111.5 103.5l276 446h218l-338 -498q-39 -57 -81 -86.5t-91 -48.5q109 -29 190.5 -96.5t142.5 -183.5l218 -416 h-199l-195 360q-55 102 -113.5 157.5t-129 77t-170.5 21.5v-616h-181v616q-100 0 -170.5 -21.5t-129 -76.5t-113.5 -158l-195 -360h-199zM652 1546v193h184v-193h-184zM1000 1546v193h184v-193h-184z" />
<glyph unicode="&#x4dd;" horiz-adv-x="1542" d="M-33 0l277 307q98 111 148 160t77 55l-451 469h226l303 -373q43 -55 139 -55v428h170v-428q96 0 139 55l303 373h226l-451 -469q27 -6 77 -55t148 -160l277 -307h-227l-271 307q-55 63 -108 101q-39 27 -55.5 32.5t-33 4.5t-24.5 -1v-444h-170v444q-8 0 -26.5 1t-37 -7 t-49.5 -30q-53 -37 -108 -101l-270 -307h-228zM506 1157v193h184v-193h-184zM854 1157v193h184v-193h-184z" />
<glyph unicode="&#x4de;" d="M111 18v152q244 -51 407 -51q154 0 233.5 31.5t79.5 121.5v224q0 127 -274 127h-276v127h241q276 0 277 131v223q0 106 -267 106q-72 0 -239 -10l-156 -12v139q266 16 393 16q231 0 343 -51t112 -172v-248q0 -63 -51 -105t-131 -54v-8q49 -8 80.5 -17.5t68.5 -28.5 q72 -37 72 -129v-266q0 -160 -129 -222t-356 -62q-213 -1 -428 38zM287 1546v193h184v-193h-184zM635 1546v193h184v-193h-184z" />
<glyph unicode="&#x4df;" horiz-adv-x="968" d="M102 14v146q154 -45 279 -45q141 0 206.5 31.5t65.5 121.5v64q0 76 -66.5 101.5t-187.5 25.5h-112v127h78q125 0 190.5 28.5t65.5 102.5v61q0 106 -246 107q-129 0 -252 -25v133q117 18 250 19q158 0 246 -16.5t137 -61.5q51 -45 51 -146v-79q0 -66 -48 -108t-124 -54v-8 q211 -33 211 -183v-102q0 -70 -27.5 -124t-73.5 -83q-61 -39 -154 -53t-210 -14q-121 -1 -279 34zM199 1157v193h184v-193h-184zM547 1157v193h184v-193h-184z" />
<glyph unicode="&#x4e0;" horiz-adv-x="1236" d="M78 375l168 43q25 -131 116 -219q90 -88 207 -88q131 0 216 75.5t85 194.5q0 123 -84 195.5t-233 72.5h-78v139l391 404h-743v137h952v-137l-393 -412q172 -23 272.5 -128t100.5 -265q0 -190 -132 -301t-354 -111q-377 0 -491 400z" />
<glyph unicode="&#x4e1;" horiz-adv-x="1116" d="M100 -6l176 14q20 -125 88 -193.5t173 -68.5q125 0 204 96q82 94 82 240q0 143 -85 226t-230 83h-86v146l311 325q-139 -6 -188 -6h-402v137h805v-110l-342 -351q174 -8 285 -131q113 -121 113 -305q-1 -207 -134 -346q-131 -141 -333 -141q-180 0 -301 104 q-119 100 -136 281z" />
<glyph unicode="&#x4e2;" horiz-adv-x="1480" d="M174 0v1329h182v-1077l752 1077h182v-1329h-182v1096l-752 -1096h-182zM416 1577v121h590v-121h-590z" />
<glyph unicode="&#x4e3;" horiz-adv-x="1204" d="M160 0v991h184v-755l526 755h174v-991h-184v731l-516 -731h-184zM379 1208v121h446v-121h-446z" />
<glyph unicode="&#x4e4;" horiz-adv-x="1480" d="M174 0v1329h182v-1077l752 1077h182v-1329h-182v1096l-752 -1096h-182zM455 1546v193h184v-193h-184zM803 1546v193h184v-193h-184z" />
<glyph unicode="&#x4e5;" horiz-adv-x="1204" d="M160 0v991h184v-755l526 755h174v-991h-184v731l-516 -731h-184zM336 1157v193h184v-193h-184zM684 1157v193h184v-193h-184z" />
<glyph unicode="&#x4e6;" horiz-adv-x="1390" d="M135 340v629q0 381 557 381q563 0 563 -379v-631q0 -193 -155.5 -276.5t-407.5 -83.5q-557 0 -557 360zM326 342q0 -229 370 -229q367 0 367 229v633q0 246 -369 246q-178 0 -273 -55.5t-95 -190.5v-633zM430 1546v193h184v-193h-184zM778 1546v193h184v-193h-184z" />
<glyph unicode="&#x4e7;" horiz-adv-x="1163" d="M123 313v344q0 92 22.5 162t59.5 109q31 35 93 54t128 26q74 4 154 4q106 0 160.5 -5.5t115.5 -21.5q63 -18 98 -55t60 -107q23 -72 22 -166v-344q0 -174 -80 -254q-33 -33 -94 -51t-127 -24q-78 -4 -155 -4q-131 0 -197 9t-131 40q-68 31 -98.5 99.5t-30.5 184.5z M311 287q0 -68 15.5 -106t52.5 -54q37 -18 76 -22.5t125 -4.5t124.5 4.5t75.5 22.5q37 16 52.5 54t15.5 106v401q0 92 -22.5 134t-77 55.5t-168.5 13.5q-115 0 -169.5 -13.5t-77 -55.5t-22.5 -134v-401zM316 1157v193h184v-193h-184zM664 1157v193h184v-193h-184z" />
<glyph unicode="&#x4e8;" horiz-adv-x="1390" d="M135 340v629q0 381 557 381q563 0 563 -379v-631q0 -193 -155.5 -276.5t-407.5 -83.5q-557 0 -557 360zM326 342q0 -229 370 -229q367 0 367 229v274h-737v-274zM326 756h737v219q0 246 -369 246q-178 0 -273 -55.5t-95 -190.5v-219z" />
<glyph unicode="&#x4e9;" horiz-adv-x="1163" d="M123 313v344q0 92 22.5 162t59.5 109q31 35 93 54t128 26q74 4 154 4q106 0 160.5 -5.5t115.5 -21.5q63 -18 98 -55t60 -107q22 -72 22 -166v-344q0 -174 -80 -254q-33 -33 -94 -51t-127 -24q-78 -4 -155 -4q-131 0 -197 9t-131 40q-68 31 -98.5 99.5t-30.5 184.5z M311 287q0 -68 15.5 -106t52.5 -54q37 -18 76 -22.5t125 -4.5t124.5 4.5t75.5 22.5q37 16 52.5 54t15.5 106v157h-537v-157zM311 580h537v108q0 92 -22.5 134t-77 55.5t-168.5 13.5q-115 0 -169.5 -13.5t-77 -55.5t-22.5 -134v-108z" />
<glyph unicode="&#x4ea;" horiz-adv-x="1390" d="M135 340v629q0 381 557 381q563 0 563 -379v-631q0 -107 -51 -183.5t-143 -113.5q-88 -35 -175 -49t-194 -14q-557 0 -557 360zM326 342q0 -229 370 -229q367 0 367 229v274h-737v-274zM326 756h737v219q0 246 -369 246q-82 0 -140 -10.5t-112 -34.5q-55 -25 -85.5 -76 t-30.5 -125v-219zM428 1495v193h184v-193h-184zM776 1495v193h185v-193h-185z" />
<glyph unicode="&#x4eb;" horiz-adv-x="1163" d="M123 313v344q0 92 22.5 161t57.5 110q33 37 100 55q61 18 115.5 23.5t161.5 5.5q106 0 160.5 -5.5t115.5 -23.5q92 -27 132 -100.5t48 -225.5v-344q0 -174 -80 -254q-35 -35 -100 -53q-59 -16 -114.5 -21t-161.5 -5q-129 0 -193 8q-70 10 -137 39q-68 33 -97.5 101.5 t-29.5 184.5zM311 287q0 -68 15.5 -106t52.5 -56q37 -16 76 -20.5t125 -4.5t124.5 4.5t75.5 20.5q37 18 52.5 56t15.5 106v141h-537v-141zM311 559h537v129q0 137 -55 170q-53 33 -213 33t-213 -33q-55 -33 -56 -170v-129zM315 1157v193h185v-193h-185zM664 1157v193h184 v-193h-184z" />
<glyph unicode="&#x4ec;" horiz-adv-x="1153" d="M90 18v152q197 -49 361 -49q381 0 380 229v266h-675v138h675v219q0 74 -30.5 125t-87.5 73q-55 25 -113.5 34t-140.5 9q-164 0 -361 -49v148q174 39 365 39q559 0 559 -381v-631q0 -360 -559 -360q-199 0 -373 38zM309 1495v193h185v-193h-185zM657 1495v193h185v-193 h-185z" />
<glyph unicode="&#x4ed;" horiz-adv-x="950" d="M74 8v139q149 -38 299 -38q164 0 215 32q51 33 51 144v149h-500v139h500v121q0 127 -45 160q-41 33 -201 33q-141 0 -305 -41v135q141 31 283 31q61 0 123 -4q143 -4 202 -43q63 -41 97 -110t34 -187v-365q0 -88 -23.5 -151.5t-60.5 -98.5q-33 -33 -98 -51 q-66 -16 -115 -18q-66 -4 -139 -4q-178 0 -317 28zM209 1157v193h184v-193h-184zM557 1157v193h184v-193h-184z" />
<glyph unicode="&#x4ee;" horiz-adv-x="1114" d="M0 1329h221l402 -780l356 780h197l-512 -1093q-43 -92 -80 -145.5t-88.5 -82t-126.5 -28.5q-82 0 -172 20v143q59 -14 125 -14q68 0 106.5 40t81.5 132l22 51zM295 1577v121h590v-121h-590z" />
<glyph unicode="&#x4ef;" horiz-adv-x="942" d="M12 991h201l276 -809h5l249 809h187l-498 -1417h-192l155 412zM262 1208v121h446v-121h-446z" />
<glyph unicode="&#x4f0;" horiz-adv-x="1114" d="M0 1329h221l402 -780l356 780h197l-512 -1093q-43 -92 -80 -145.5t-88.5 -82t-126.5 -28.5q-82 0 -172 20v143q59 -14 125 -14q68 0 106.5 40t81.5 132l22 51zM334 1546v193h184v-193h-184zM682 1546v193h184v-193h-184z" />
<glyph unicode="&#x4f1;" horiz-adv-x="942" d="M12 991h201l276 -809h5l249 809h187l-498 -1417h-192l155 412zM219 1157v193h184v-193h-184zM567 1157v193h184v-193h-184z" />
<glyph unicode="&#x4f2;" horiz-adv-x="1114" d="M0 1329h221l402 -780l356 780h197l-512 -1093q-43 -92 -80 -145.5t-88.5 -82t-126.5 -28.5q-82 0 -172 20v143q59 -14 125 -14q68 0 106.5 40t81.5 132l22 51zM360 1499l143 262h156l-143 -262h-156zM620 1499l144 262h155l-143 -262h-156z" />
<glyph unicode="&#x4f3;" horiz-adv-x="942" d="M12 991h201l276 -809h5l249 809h187l-498 -1417h-192l155 412zM262 1130l143 263h156l-143 -263h-156zM522 1130l144 263h155l-143 -263h-156z" />
<glyph unicode="&#x4f4;" horiz-adv-x="1249" d="M141 762v567h197v-551q0 -115 58.5 -163t181.5 -48q96 0 166.5 20.5t134.5 61.5v680h198v-1329h-198v510q-160 -82 -349 -82q-207 0 -298 83t-91 251zM359 1546v193h184v-193h-184zM707 1546v193h184v-193h-184z" />
<glyph unicode="&#x4f5;" horiz-adv-x="1173" d="M160 590v401h184v-389q0 -94 49 -129t164 -35q113 0 171 15.5t79.5 50.5t21.5 98v389h185v-991h-185v446q-27 -141 -325 -141q-190 0 -267 68.5t-77 216.5zM322 1157v193h184v-193h-184zM670 1157v193h184v-193h-184z" />
<glyph unicode="&#x4f6;" horiz-adv-x="1044" d="M172 0v1329h811v-139h-612v-1051h143v-418h-172v279h-170z" />
<glyph unicode="&#x4f7;" horiz-adv-x="860" d="M172 0v991h647v-135h-463v-721h140v-389h-158v254h-166z" />
<glyph unicode="&#x4f8;" horiz-adv-x="1609" d="M172 0v1329h199v-491h157q166 0 271.5 -17.5t170 -77t64.5 -176.5v-278q0 -289 -469 -289h-393zM369 135h182q143 0 216 35t73 127v248q0 66 -27 98.5t-87 45.5t-171 13h-186v-567zM539 1546v193h184v-193h-184zM887 1546v193h184v-193h-184zM1239 0v1329h199v-1329h-199 z" />
<glyph unicode="&#x4f9;" horiz-adv-x="1388" d="M160 0v991h188v-358h193q127 0 201.5 -18.5t109.5 -64.5t35 -130v-205q0 -215 -363 -215h-364zM346 119h166q59 0 123 16q72 18 72 105v125q0 59 -15.5 89.5t-55.5 43t-120 12.5h-170v-391zM428 1157v193h184v-193h-184zM776 1157v193h184v-193h-184zM1044 0v991h185 v-991h-185z" />
<glyph unicode="&#x2000;" horiz-adv-x="880" />
<glyph unicode="&#x2001;" horiz-adv-x="1761" />
<glyph unicode="&#x2002;" horiz-adv-x="880" />
<glyph unicode="&#x2003;" horiz-adv-x="1761" />
<glyph unicode="&#x2004;" horiz-adv-x="587" />
<glyph unicode="&#x2005;" horiz-adv-x="440" />
<glyph unicode="&#x2006;" horiz-adv-x="293" />
<glyph unicode="&#x2007;" horiz-adv-x="293" />
<glyph unicode="&#x2008;" horiz-adv-x="220" />
<glyph unicode="&#x2009;" horiz-adv-x="352" />
<glyph unicode="&#x200a;" horiz-adv-x="97" />
<glyph unicode="&#x2010;" horiz-adv-x="733" d="M82 512v147h569v-147h-569z" />
<glyph unicode="&#x2011;" horiz-adv-x="733" d="M82 512v147h569v-147h-569z" />
<glyph unicode="&#x2012;" horiz-adv-x="733" d="M82 512v147h569v-147h-569z" />
<glyph unicode="&#x2013;" d="M145 520v146h897v-146h-897z" />
<glyph unicode="&#x2014;" horiz-adv-x="1675" d="M82 520v146h1511v-146h-1511z" />
<glyph unicode="&#x2018;" horiz-adv-x="524" d="M92 879l193 450h118l-94 -450h-217z" />
<glyph unicode="&#x2019;" horiz-adv-x="454" d="M90 1042l74 287h198l-153 -287h-119z" />
<glyph unicode="&#x201a;" horiz-adv-x="524" d="M80 -229l94 450h217l-192 -450h-119z" />
<glyph unicode="&#x201c;" horiz-adv-x="907" d="M131 879l195 450h118l-94 -450h-219zM516 879l195 450h118l-94 -450h-219z" />
<glyph unicode="&#x201d;" horiz-adv-x="907" d="M80 879l94 450h217l-192 -450h-119zM463 879l94 450h219l-194 -450h-119z" />
<glyph unicode="&#x201e;" horiz-adv-x="907" d="M80 -229l94 450h217l-192 -450h-119zM463 -229l94 450h219l-194 -450h-119z" />
<glyph unicode="&#x2022;" horiz-adv-x="980" d="M164 592q0 88 44 162.5t118.5 119t162.5 44.5q139 0 234 -95q94 -94 94 -231q0 -88 -44 -164t-118.5 -120t-162.5 -44q-91 0 -165.5 44t-118.5 120t-44 164z" />
<glyph unicode="&#x2026;" horiz-adv-x="1449" d="M143 0v221h238v-221h-238zM606 0v221h238v-221h-238zM1069 0v221h238v-221h-238z" />
<glyph unicode="&#x202f;" horiz-adv-x="352" />
<glyph unicode="&#x2039;" horiz-adv-x="524" d="M82 537l205 393h155l-188 -393l188 -394h-155z" />
<glyph unicode="&#x203a;" horiz-adv-x="524" d="M82 143l188 394l-188 393h156l204 -393l-204 -394h-156z" />
<glyph unicode="&#x205f;" horiz-adv-x="440" />
<glyph unicode="&#x20ac;" d="M53 436v146h191v145h-191v145h191v58q0 381 559 381q164 0 289 -25l-37 -137q-143 25 -248 25q-178 0 -277.5 -53.5t-99.5 -188.5v-60h557l-39 -145h-518v-145h457l-39 -146h-418v-86q0 -229 385 -229q156 0 320 39v-152q-166 -29 -332 -28q-559 0 -559 360v96h-191z" />
<glyph unicode="&#x2122;" horiz-adv-x="1284" d="M16 1235v94h484v-94h-178v-449h-125v449h-181zM567 786v543h164l158 -393l149 393h158v-543h-115v365l-143 -365h-104l-150 369v-369h-117z" />
<glyph unicode="&#x25fc;" horiz-adv-x="993" d="M0 0v993h993v-993h-993z" />
</font>
</defs>
</svg>
