<?xml version="1.0" standalone="no"?>
<!DOCTYPE svg PUBLIC "-//W3C//DTD SVG 1.1//EN" "http://www.w3.org/Graphics/SVG/1.1/DTD/svg11.dtd" >
<svg xmlns="http://www.w3.org/2000/svg" xmlns:xlink="http://www.w3.org/1999/xlink" version="1.1">
<metadata></metadata>
<defs>
<font id="playbold" horiz-adv-x="1187" >
<font-face units-per-em="2048" ascent="1638" descent="-410" />
<missing-glyph horiz-adv-x="471" />
<glyph horiz-adv-x="0" />
<glyph unicode="&#xd;" horiz-adv-x="471" />
<glyph horiz-adv-x="0" />
<glyph horiz-adv-x="0" />
<glyph unicode=" "  horiz-adv-x="471" />
<glyph unicode="&#x09;" horiz-adv-x="471" />
<glyph unicode="&#xa0;" horiz-adv-x="471" />
<glyph unicode="!" horiz-adv-x="604" d="M123 1329h358l-88 -944h-182zM143 0v283h320v-283h-320z" />
<glyph unicode="&#x22;" horiz-adv-x="907" d="M137 817v512h242v-512h-242zM526 817v512h244v-512h-244z" />
<glyph unicode="#" d="M123 395v162h209l45 213h-254v164h287l75 375h177l-76 -375h131l76 375h176l-76 -375h172v-164h-207l-43 -213h250v-162h-283l-80 -395h-176l80 395h-131l-80 -395h-176l80 395h-176zM508 557h131l45 213h-133z" />
<glyph unicode="$" horiz-adv-x="1241" d="M68 887v69q0 158 110.5 239t353.5 95v148h193v-144q221 -10 383 -26v-219q-266 33 -383 34v-303h27q225 0 323.5 -84t98.5 -256v-61q0 -184 -115 -277.5t-334 -113.5v-275h-193v267q-166 4 -438 36v236q150 -27 223 -35q111 -18 215 -18v340h-38q-426 0 -426 348z M375 870q0 -86 157 -90v301q-90 -6 -123.5 -26.5t-33.5 -69.5v-115zM725 209q139 22 139 104v115q0 51 -29.5 77.5t-109.5 33.5v-330z" />
<glyph unicode="%" horiz-adv-x="1751" d="M76 807v244q0 66 20.5 117t53.5 79q29 25 75.5 40.5t93.5 21.5q53 4 99 4q63 0 103 -4t85 -19q49 -16 80 -42.5t51 -76.5q20 -49 21 -120v-244q0 -96 -36 -146.5t-108.5 -70t-195.5 -19.5t-195.5 19.5t-109.5 70t-37 146.5zM303 786q0 -35 26.5 -47t88.5 -12 q112 0 112 59v301q0 70 -112 70q-115 0 -115 -70v-301zM461 -20l663 1370h179l-664 -1370h-178zM993 215v244q0 66 20.5 117t53.5 79q29 25 76 40.5t94 21.5q53 4 98 4q63 0 103.5 -4t85.5 -19q49 -16 79.5 -42.5t51.5 -75.5q20 -49 20 -121v-244q0 -96 -35.5 -146.5 t-108.5 -69.5t-196 -19t-195.5 19t-109.5 69.5t-37 146.5zM1221 195q0 -59 114 -60q113 1 113 60v301q0 70 -113 69q-115 0 -114 -69v-301z" />
<glyph unicode="&#x26;" horiz-adv-x="1343" d="M102 250v248q0 164 267 245l-62 66q-63 70 -63 147v162q0 115 102.5 173.5t290.5 58.5q127 0 340 -35v-203q-186 43 -328 43q-117 0 -117 -63v-80q0 -45 19 -68l430 -473v305h270v-330q0 -115 -73 -192l39 -43q16 -16 36 -16h90v-195h-188q-98 0 -139 43l-15 14 q-152 -78 -395 -77q-235 0 -369.5 66.5t-134.5 203.5zM410 297q0 -59 49 -90t184 -31q164 0 223 27l-389 422q-68 -25 -67 -78v-250z" />
<glyph unicode="'" horiz-adv-x="524" d="M141 817v512h242v-512h-242z" />
<glyph unicode="(" horiz-adv-x="712" d="M143 565q0 231 65.5 429t203.5 397h278q-254 -420 -254 -826q0 -418 256 -825h-280q-269 376 -269 825z" />
<glyph unicode=")" horiz-adv-x="712" d="M0 -260q256 407 256 825q0 406 -254 826h279q137 -199 202.5 -396.5t65.5 -429.5q0 -449 -268 -825h-281z" />
<glyph unicode="*" horiz-adv-x="913" d="M90 985l70 205l215 -90l-23 229h217l-20 -227l207 88l65 -205l-223 -49l154 -176l-183 -121l-112 195l-115 -195l-180 123l157 174z" />
<glyph unicode="+" d="M143 541v207h346v366h207v-366h348v-207h-348v-369h-207v369h-346z" />
<glyph unicode="," horiz-adv-x="524" d="M39 -229l94 512h311l-192 -512h-213z" />
<glyph unicode="-" horiz-adv-x="794" d="M82 471v229h631v-229h-631z" />
<glyph unicode="." horiz-adv-x="524" d="M102 0v283h320v-283h-320z" />
<glyph unicode="/" horiz-adv-x="882" d="M20 -20l664 1370h178l-663 -1370h-179z" />
<glyph unicode="0" d="M104 346v637q0 94 29 166t74 113q39 35 106.5 56t135.5 28q78 4 143 4q92 0 147.5 -5.5t122.5 -25.5q74 -23 117 -59.5t74 -106.5t30 -170v-637q0 -94 -29.5 -165.5t-74.5 -110.5q-41 -35 -111.5 -57.5t-134.5 -26.5q-57 -6 -141 -6q-90 0 -147.5 6t-125.5 24 q-70 20 -112.5 58t-71.5 110q-31 70 -31 168zM408 326q0 -70 12 -100.5t50 -42t126 -11.5q86 0 123 11.5t49 42t12 100.5v678q0 70 -12 100.5t-49 41.5t-123 11q-88 0 -126 -11t-50 -42t-12 -100v-678z" />
<glyph unicode="1" d="M174 815v252l420 262h242v-1329h-299v1016z" />
<glyph unicode="2" d="M119 0v303q0 111 61.5 193t159.5 125q78 35 182 69q104 35 161.5 74t57.5 92v170q0 63 -51 84q-55 23 -172 23q-141 0 -373 -52v226q205 43 428 43q242 0 360 -74t118 -246v-184q0 -104 -62.5 -181t-161.5 -116q-92 -39 -188 -70q-104 -37 -164.5 -82t-60.5 -106v-68h639 v-223h-934z" />
<glyph unicode="3" d="M96 10v238l66 -12q39 -8 43 -11l69 -12q25 -4 105 -12q61 -6 125 -6q119 0 165 28.5t46 108.5v153q0 96 -207 97h-242v204h242q160 0 160 117v129q0 43 -16.5 66.5t-58.5 34t-124 10.5q-117 0 -360 -25v213q279 18 393 19q250 0 361.5 -57.5t111.5 -202.5v-220 q0 -59 -36 -101t-91 -56q180 -63 180 -199v-217q0 -170 -116.5 -243.5t-368.5 -73.5q-173 -1 -447 30z" />
<glyph unicode="4" d="M53 268v236l547 825h338v-846h143v-215h-143v-268h-270v268h-615zM309 483h359v564z" />
<glyph unicode="5" d="M125 2v248q254 -47 383 -47q113 0 164 25.5t51 80.5v199q0 55 -37 78.5t-121 23.5h-409v719h839v-229h-540v-271h209q119 0 231 -45q61 -27 98 -82t37 -129v-278q0 -80 -30.5 -142.5t-77.5 -95.5q-41 -31 -110 -49t-132 -24q-74 -4 -131 -4q-141 -1 -424 22z" />
<glyph unicode="6" d="M113 346v619q0 98 33.5 175t86.5 117q45 35 121 58.5t148 30.5q78 4 141 4q88 0 369 -21v-219q-276 33 -396 33q-98 0 -139 -10.5t-54 -40t-13 -105.5v-158h219q111 0 160 -3t110 -19q66 -16 97.5 -46t56.5 -89q23 -61 22 -146v-180q0 -94 -28.5 -164.5t-73.5 -109.5 q-41 -37 -107.5 -59.5t-132.5 -26.5q-57 -6 -141 -6q-92 0 -149.5 6t-120.5 26q-70 23 -111 60t-70 106q-29 74 -28 168zM410 330q0 -70 11 -100.5t49 -41t126 -10.5q90 0 126 10.5t46 40t10 103.5v192q0 49 -12 70.5t-50 30t-122 8.5h-184v-303z" />
<glyph unicode="7" d="M82 1096v233h975v-205l-510 -1124h-332l512 1096h-645z" />
<glyph unicode="8" d="M86 272v230q0 66 65.5 123t155.5 77v9q-70 8 -123 57t-53 113v190q0 143 105.5 211t357.5 68t357.5 -68t105.5 -211v-190q0 -63 -53.5 -112.5t-122.5 -57.5v-9q90 -20 155.5 -77.5t65.5 -122.5v-230q0 -166 -125 -229t-383 -63q-264 0 -386 65.5t-122 226.5zM399 297 q0 -53 13.5 -77.5t53.5 -35t128 -10.5t128 10.5t53 35t13 77.5v180q0 59 -34 88q-35 27 -158 27q-117 0 -157 -25.5t-40 -89.5v-180zM432 891q0 -53 35 -82q33 -27 127 -27q90 0 126 26t36 83v153q0 59 -36 85t-126 26t-126 -25.5t-36 -85.5v-153z" />
<glyph unicode="9" d="M113 803v180q0 94 28.5 165t73.5 112q41 35 107.5 57t132.5 29q78 4 141 4q96 0 152.5 -5.5t119.5 -25.5q68 -23 110 -60.5t71 -107.5q29 -74 28 -168v-618q0 -207 -124 -296t-398 -89q-176 0 -379 20v213q262 -29 375 -29q104 0 151.5 14.5t62.5 53.5t15 123v125h-221 q-111 0 -160 3t-110 19q-63 16 -96 47t-58 90q-23 61 -22 144zM410 807q0 -49 12 -70.5t50 -30t122 -8.5h186v312q0 70 -11 96.5t-47 34.5t-130 8q-86 0 -122 -9.5t-48 -37t-12 -92.5v-203z" />
<glyph unicode=":" horiz-adv-x="524" d="M102 0v283h320v-283h-320zM102 709v282h320v-282h-320z" />
<glyph unicode=";" horiz-adv-x="524" d="M39 -229l94 512h311l-192 -512h-213zM102 709v282h320v-282h-320z" />
<glyph unicode="&#x3c;" d="M143 530v230l901 313v-227l-667 -201l667 -201v-227z" />
<glyph unicode="=" d="M143 336v207h901v-207h-901zM143 745v207h901v-207h-901z" />
<glyph unicode="&#x3e;" d="M143 217v227l668 201l-668 201v227l901 -313v-230z" />
<glyph unicode="?" horiz-adv-x="1083" d="M82 1094v223q254 33 446 33q104 0 169 -5.5t124 -21.5q61 -18 98 -48t60 -81q23 -55 22 -123v-197q0 -57 -33.5 -107t-88.5 -87q-70 -45 -105 -66q-125 -78 -125 -137v-92h-278v119q0 76 30.5 134t81.5 95q37 27 95 62q113 70 112 153v96q0 57 -39 78q-39 20 -162 21 q-94 0 -407 -49zM350 0v283h320v-283h-320z" />
<glyph unicode="@" horiz-adv-x="1611" d="M115 340v629q0 78 33.5 142.5t93.5 105.5q119 82 276 108q141 25 277 25q115 0 219 -14.5t221 -49.5q123 -37 194.5 -119t71.5 -196v-498q0 -170 -264 -170h-63q-76 0 -139.5 20.5t-73.5 51.5q-33 -76 -193 -76q-123 0 -186.5 20.5t-91 72.5t-27.5 157v231 q0 100 30.5 153.5t103.5 74t212 20.5t206.5 -20.5t93.5 -71.5t26 -156v-293q0 -29 17 -39t62 -10t60.5 9.5t15.5 39.5v478q0 225 -493 225q-76 0 -126 -3t-114 -16q-72 -14 -115 -37.5t-73 -64.5q-33 -45 -33 -104v-609q0 -221 463 -221q135 0 491 49v-157 q-360 -47 -495 -47q-680 0 -680 360zM684 535q0 -49 6 -67.5t25.5 -24t75.5 -5.5h22q53 0 74.5 7.5t29 30t7.5 79.5v213q0 61 -8.5 87t-32 34t-80.5 8q-55 0 -79 -9t-32 -35t-8 -85v-233z" />
<glyph unicode="A" horiz-adv-x="1368" d="M4 0l492 1329h389l479 -1329h-324l-118 350h-486l-117 -350h-315zM508 563h344l-168 500h-8z" />
<glyph unicode="B" horiz-adv-x="1300" d="M143 0v1329h539q190 0 293.5 -27.5t146.5 -88t43 -169.5v-163q0 -55 -44 -104.5t-103 -67.5v-11q78 -8 142.5 -66.5t64.5 -129.5v-205q0 -162 -129 -229.5t-400 -67.5h-553zM463 227h227q117 0 166 27t49 86v106q0 74 -38 105t-134 31h-270v-355zM463 788h219 q76 0 112.5 12.5t50 40t13.5 81.5v65q0 47 -12 70.5t-50 34t-120 10.5h-213v-314z" />
<glyph unicode="C" horiz-adv-x="1222" d="M115 365v583q0 401 616 402q158 0 422 -45v-240q-238 57 -418 57q-76 0 -118 -4t-87 -20q-96 -33 -96 -146v-565q0 -180 330 -180q141 0 397 59v-241q-219 -45 -430 -45q-90 0 -160.5 8t-154.5 30q-94 25 -155.5 65t-102.5 112q-43 72 -43 170z" />
<glyph unicode="D" horiz-adv-x="1454" d="M143 0v1329h566q233 0 368 -36t198.5 -124t63.5 -243v-541q0 -152 -59 -234.5t-194.5 -116.5t-374.5 -34h-568zM463 227h233q131 0 198 11.5t96.5 44t29.5 102.5v547q0 94 -75 132t-238 38h-244v-875z" />
<glyph unicode="E" horiz-adv-x="1249" d="M143 0v1329h1014v-227h-694v-305h627v-228h-627v-342h715v-227h-1035z" />
<glyph unicode="F" horiz-adv-x="1249" d="M143 0v1329h1035v-227h-715v-326h647v-227h-647v-549h-320z" />
<glyph unicode="G" horiz-adv-x="1443" d="M115 365v553q0 100 41 181t110 128q66 43 157 73.5t179 40.5q74 8 178 9q283 0 541 -43v-242q-238 57 -541 57q-346 0 -346 -200v-535q0 -98 93.5 -139t281.5 -41q100 0 215 31v309h-217v209h522v-690q-102 -37 -261 -61.5t-292 -24.5q-114 0 -202.5 10t-174.5 35 q-92 25 -151.5 66.5t-95.5 109.5q-37 72 -37 164z" />
<glyph unicode="H" horiz-adv-x="1490" d="M143 0v1329h320v-532h565v532h320v-1329h-320v569h-565v-569h-320z" />
<glyph unicode="I" horiz-adv-x="606" d="M143 0v1329h320v-1329h-320z" />
<glyph unicode="J" horiz-adv-x="911" d="M39 0v233q140 -26 244 -26h8q162 0 162 145v977h319v-967q0 -209 -112.5 -295.5t-344.5 -86.5q-139 0 -276 20z" />
<glyph unicode="K" horiz-adv-x="1396" d="M143 0v1329h320v-1329h-320zM471 705l498 624h374l-503 -618l559 -711h-389z" />
<glyph unicode="L" d="M143 0v1329h320v-1102h653v-227h-973z" />
<glyph unicode="M" horiz-adv-x="1820" d="M143 0v1329h455l328 -950l323 950h428v-1329h-288v983h-7l-335 -983h-256l-347 983h-8v-983h-293z" />
<glyph unicode="N" horiz-adv-x="1538" d="M143 0v1329h324l643 -907v907h285v-1329h-324l-643 922v-922h-285z" />
<glyph unicode="O" horiz-adv-x="1490" d="M115 365v581q0 98 44 176t113 123q61 39 151.5 65.5t168.5 32.5q72 6 151 7q94 0 164 -7.5t156 -29.5q98 -29 161.5 -70t106.5 -115q45 -76 45 -182v-581q0 -111 -58 -191t-161 -121q-182 -73 -408 -73h-6q-110 0 -203.5 14t-193.5 49q-109 37 -170 120t-61 202zM434 365 q0 -51 26.5 -85t78.5 -49q49 -14 95 -19t114 -5q67 0 113 5t95 19t75 48t26 86v583q0 94 -76 134t-236 40t-235.5 -39t-75.5 -135v-583z" />
<glyph unicode="P" horiz-adv-x="1284" d="M143 0v1329h533q195 0 308.5 -26.5t165.5 -93t52 -185.5v-252q0 -131 -56 -204.5t-178 -104.5t-329 -31h-176v-432h-320zM463 651h203q125 0 176 30t51 101v213q0 66 -49 86q-47 20 -182 21h-199v-451z" />
<glyph unicode="Q" horiz-adv-x="1515" d="M115 365v581q0 98 44 176t113 123q61 39 151.5 65.5t168.5 32.5q72 6 151 7q94 0 164 -7.5t156 -29.5q98 -29 161.5 -70t106.5 -115q45 -76 45 -182v-362q0 -303 -168 -355h291v-229h-436q-23 0 -139 -10q-117 -10 -181 -10q-110 0 -203.5 14t-193.5 49q-109 37 -170 120 t-61 202zM434 365q0 -51 26.5 -85t78.5 -49q49 -14 95 -19t114 -5q67 0 113 5t95 19t75 48t26 86v583q0 94 -76 134t-236 40t-235.5 -39t-75.5 -135v-583z" />
<glyph unicode="R" horiz-adv-x="1368" d="M143 0v1329h598q266 0 385 -64.5t119 -215.5v-234q0 -117 -83 -183.5t-220 -84.5l385 -547h-369l-348 522h-147v-522h-320zM463 733h274q113 0 154 30t41 116v94q0 74 -44 101.5t-151 27.5h-274v-369z" />
<glyph unicode="S" horiz-adv-x="1241" d="M76 913v99q0 174 145.5 256t460.5 82q164 0 416 -27v-238q-309 37 -426 37q-162 0 -217 -26q-59 -29 -60 -90v-95q0 -104 176 -104h160q227 0 329.5 -84t102.5 -256v-88q0 -238 -170 -322q-82 -43 -181 -60t-239 -17h-10q-187 0 -461 36v244q348 -53 476 -53 q266 0 266 137v86q0 66 -38 100.5t-136 34.5h-156q-438 0 -438 348z" />
<glyph unicode="T" horiz-adv-x="1218" d="M41 1102v227h1137v-227h-408v-1102h-319v1102h-410z" />
<glyph unicode="U" horiz-adv-x="1431" d="M139 365v964h320v-964q0 -90 58 -124t202 -34q141 0 197.5 33.5t56.5 124.5v964h319v-964q0 -385 -577 -385q-576 0 -576 385z" />
<glyph unicode="V" horiz-adv-x="1359" d="M0 1329h324l356 -1063h8l356 1063h316l-492 -1329h-391z" />
<glyph unicode="W" horiz-adv-x="2017" d="M16 1329h332l258 -971l258 971h297l279 -971l237 971h324l-426 -1329h-315l-254 965l-263 -965h-315z" />
<glyph unicode="X" horiz-adv-x="1386" d="M20 0l490 678l-469 651h369l284 -442l283 442h369l-469 -651l491 -678h-371l-303 471l-305 -471h-369z" />
<glyph unicode="Y" horiz-adv-x="1318" d="M16 1329h363l280 -520l279 520h365l-486 -792v-537h-319v532z" />
<glyph unicode="Z" horiz-adv-x="1253" d="M82 0v195l692 907h-672v227h1065v-192l-692 -908h705v-229h-1098z" />
<glyph unicode="[" horiz-adv-x="761" d="M205 -389v1896h536v-178h-243v-1540h243v-178h-536z" />
<glyph unicode="\" horiz-adv-x="882" d="M20 1350h179l663 -1370h-178z" />
<glyph unicode="]" horiz-adv-x="761" d="M20 -211h244v1540h-244v178h537v-1896h-537v178z" />
<glyph unicode="^" horiz-adv-x="698" d="M41 928l115 465h383l118 -465h-200l-109 383l-106 -383h-201z" />
<glyph unicode="_" d="M145 -123h897v-207h-897v207z" />
<glyph unicode="`" horiz-adv-x="919" d="M205 1393h325l185 -260h-254z" />
<glyph unicode="a" horiz-adv-x="1155" d="M80 297q0 119 29.5 186.5t96 97t183.5 29.5h336v68q0 63 -17.5 94t-63.5 43t-138 12q-127 0 -348 -24v188q162 20 379 21q190 0 293.5 -29t148.5 -98.5t45 -202.5v-682h-293v90q-35 -59 -94 -84q-57 -26 -213 -26h-12q-140 0 -208.5 25.5t-96 92t-27.5 199.5zM373 303 q0 -68 10 -94.5t40 -34.5t105 -8q90 0 129 6q29 4 40.5 12.5t19.5 26.5q8 14 8 43v192h-205q-70 0 -98.5 -9t-38.5 -36.5t-10 -97.5z" />
<glyph unicode="b" horiz-adv-x="1249" d="M131 352v1082h299v-541q27 68 98.5 93.5t223.5 25.5q129 0 207.5 -20.5t119.5 -65.5q39 -45 53.5 -99.5t14.5 -148.5v-326q0 -201 -121 -286.5t-393 -85.5q-189 0 -298.5 38.5t-156.5 119.5t-47 214zM430 313q0 -61 15.5 -92t59.5 -43t132 -12t133 12t61.5 43t16.5 92 v367q0 68 -14.5 97.5t-57.5 39.5t-141 10q-84 0 -128 -14t-60.5 -45t-16.5 -88v-367z" />
<glyph unicode="c" horiz-adv-x="987" d="M102 322v329q0 135 62 226q23 33 66.5 60.5t88.5 43.5q37 12 98.5 20.5t108.5 10.5h109q115 0 301 -37v-197q-211 49 -324 49q-207 0 -206 -139v-364q0 -158 227 -158q111 0 317 45v-197q-181 -34 -328 -34h-8q-77 0 -122.5 3t-110.5 11q-66 8 -108 28.5t-87 61.5 q-84 70 -84 238z" />
<glyph unicode="d" horiz-adv-x="1245" d="M102 326v387q0 164 93.5 231.5t302.5 67.5q98 0 154.5 -11.5t91 -39t71.5 -80.5v553h299v-1434h-289v113q-37 -59 -66.5 -83t-82.5 -36q-55 -14 -164 -14q-176 0 -260 25.5t-117 97t-33 223.5zM401 307q0 -57 13.5 -87t52.5 -42t121 -12q100 0 147 10t63.5 38t16.5 83 v399q0 51 -17.5 79t-61.5 40t-132 12q-94 0 -135 -11t-54.5 -38.5t-13.5 -91.5v-379z" />
<glyph unicode="e" horiz-adv-x="1144" d="M102 301v356q0 186 120 270.5t370 84.5q236 0 345.5 -81t109.5 -274v-241h-644v-90q0 -86 61.5 -123t221.5 -37q147 0 332 43v-191q-177 -38 -379 -38h-10h-3q-524 0 -524 321zM403 586h359v143q0 49 -40 73.5t-134 24.5q-109 0 -146 -24q-39 -27 -39 -74v-143z" />
<glyph unicode="f" horiz-adv-x="794" d="M20 807v184h187v150q0 121 40 189.5t123 96t222 27.5q76 0 223 -16v-185q-131 16 -176 17q-76 0 -104.5 -23.5t-28.5 -89.5v-166h272v-184h-272v-807h-299v807h-187z" />
<glyph unicode="g" horiz-adv-x="1245" d="M102 279v387q0 137 36 210.5t123 104.5t251 31q106 0 164 -13q55 -12 83.5 -36.5t65.5 -83.5v112h289v-1044q0 -211 -144.5 -304.5t-437.5 -93.5q-241 1 -358 15v200q186 -26 346 -26h12q152 0 217.5 49t65.5 164v160q-37 -53 -71.5 -81t-91 -39t-154.5 -11 q-145 0 -231.5 27.5t-125.5 92t-39 179.5zM401 307q0 -63 13.5 -91t54.5 -39t135 -11q88 0 132 12t61.5 40t17.5 79v399q0 55 -16.5 83t-63.5 38t-147 10q-82 0 -121 -12t-52.5 -42t-13.5 -87v-379z" />
<glyph unicode="h" horiz-adv-x="1218" d="M131 0v1434h299v-564q29 141 313 142q190 0 267 -69t77 -216v-727h-299v692q0 57 -11 85t-44 39t-104 11q-88 0 -129 -10t-55.5 -37.5t-14.5 -87.5v-692h-299z" />
<glyph unicode="i" horiz-adv-x="577" d="M139 0v991h299v-991h-299zM139 1108v242h299v-242h-299z" />
<glyph unicode="j" horiz-adv-x="561" d="M-78 -252q8 -2 37 -2q78 0 112.5 11.5t47 46t12.5 114.5v1073h299v-1141q0 -170 -99.5 -235.5t-312.5 -65.5l-96 5v194zM131 1108v242h299v-242h-299z" />
<glyph unicode="k" horiz-adv-x="1105" d="M131 0v1434h299v-1434h-299zM442 557l326 434h342l-344 -432l373 -559h-338z" />
<glyph unicode="l" horiz-adv-x="577" d="M139 0v1434h299v-1434h-299z" />
<glyph unicode="m" horiz-adv-x="1794" d="M131 0v991h299v-121q29 141 293 142q139 0 211 -36t96 -112q25 78 95.5 113t213.5 35q129 0 199 -30t97.5 -91.5t27.5 -163.5v-727h-299v686q0 66 -8 93.5t-36 37.5t-95 10q-84 0 -120 -10t-47 -37.5t-11 -93.5v-686h-299v686q0 66 -8.5 93.5t-36 37.5t-95.5 10 q-84 0 -119.5 -10t-47 -37.5t-11.5 -93.5v-686h-299z" />
<glyph unicode="n" horiz-adv-x="1218" d="M131 0v991h295v-121q35 141 317 142q190 0 267 -69t77 -216v-727h-299v688q0 57 -11 86t-45 41t-103 12q-88 0 -129 -11t-55.5 -39.5t-14.5 -88.5v-688h-299z" />
<glyph unicode="o" horiz-adv-x="1212" d="M102 340v293q0 98 31 172t80 115q43 35 113.5 58t138.5 30q78 4 141 4q94 0 150.5 -5.5t124.5 -25.5q74 -23 120 -61.5t78 -110.5q31 -74 31 -176v-293q0 -92 -29.5 -161.5t-76.5 -108.5q-41 -35 -112 -56.5t-138 -27.5q-61 -6 -148 -6q-92 0 -151.5 6t-126.5 24 q-74 20 -119 58t-76 108q-31 68 -31 164zM401 305q0 -55 17.5 -83.5t60.5 -42t127 -13.5t127 13.5t60.5 42t17.5 83.5v375q0 82 -43 114.5t-162 32.5t-162 -32.5t-43 -114.5v-375z" />
<glyph unicode="p" horiz-adv-x="1247" d="M131 -426v1417h283v-98q27 66 104.5 92.5t231.5 26.5q129 0 207.5 -20.5t119.5 -65.5q39 -45 53.5 -99.5t14.5 -148.5v-326q0 -147 -43 -227t-132 -112.5t-243 -32.5q-147 0 -212.5 24.5t-84.5 95.5v-526h-299zM430 313q0 -61 15.5 -92t58.5 -43t131 -12t133 12t61.5 43 t16.5 92v367q0 68 -14.5 97.5t-57.5 39.5t-141 10q-84 0 -128 -14t-59.5 -45t-15.5 -88v-367z" />
<glyph unicode="q" horiz-adv-x="1245" d="M102 326v346q0 141 42 211.5t147.5 99.5t316.5 29q129 0 212 -8.5t136 -30.5q61 -27 91 -52.5t45 -70.5q14 -49 18 -90t4 -125v-1061h-299v539q-35 -59 -65.5 -86t-83 -37t-154.5 -10q-176 0 -260 25.5t-117 97t-33 223.5zM401 307q0 -57 13.5 -87t52.5 -42t121 -12 q100 0 147 10t63.5 38t16.5 83v393q0 51 -17.5 81t-62.5 43t-131 13q-94 0 -135 -10t-54.5 -37.5t-13.5 -89.5v-383z" />
<glyph unicode="r" horiz-adv-x="813" d="M131 0v991h285v-174q0 47 39 92t99 74t120 29h106v-248h-102q-127 0 -187.5 -39t-60.5 -129v-596h-299z" />
<glyph unicode="s" horiz-adv-x="1075" d="M90 653v121q0 129 123 183.5t371 54.5q98 0 352 -19v-190q-307 24 -357 24h-4q-121 0 -157 -16q-33 -18 -33 -68v-53q0 -27 26.5 -46t77.5 -19h132q365 0 364 -238v-125q0 -72 -26.5 -125t-69.5 -84q-41 -29 -105.5 -45t-134.5 -22q-63 -6 -147 -6h-10q-157 0 -381 30 v199q285 -43 395 -43q94 0 139 18.5t45 67.5v61q0 51 -28.5 73t-112.5 22h-129q-158 0 -244 62t-86 183z" />
<glyph unicode="t" horiz-adv-x="833" d="M20 807v184h201v287h299v-287h273v-184h-273v-467q0 -72 12.5 -107.5t47 -51t106.5 -15.5q29 0 107 10v-186q-96 -10 -166 -10q-76 0 -127 6t-103 24q-57 18 -93 51t-58 91q-25 59 -25 137v518h-201z" />
<glyph unicode="u" horiz-adv-x="1218" d="M131 264v727h299v-686q0 -57 11.5 -86t45 -41t103.5 -12q88 0 129 11t55 40t14 88v686h299v-991h-294v121q-33 -141 -318 -141q-190 0 -267 68.5t-77 215.5z" />
<glyph unicode="v" horiz-adv-x="1044" d="M0 991h317l218 -686l208 686h301l-364 -991h-303z" />
<glyph unicode="w" horiz-adv-x="1683" d="M16 991h306l184 -719l196 719h293l205 -719l176 719h291l-324 -991h-303l-196 670l-193 -670h-303z" />
<glyph unicode="x" horiz-adv-x="1163" d="M20 0l390 508l-369 483h346l195 -284l196 284h346l-370 -483l391 -508h-346l-217 311l-215 -311h-347z" />
<glyph unicode="y" horiz-adv-x="1093" d="M16 991h326l223 -700l203 700h309l-542 -1417h-304l181 434z" />
<glyph unicode="z" horiz-adv-x="1048" d="M82 0v160l500 637h-480v194h861v-160l-500 -636h512v-195h-893z" />
<glyph unicode="{" horiz-adv-x="786" d="M16 518v189h47q72 0 98.5 10t35 40.5t8.5 114.5v283q0 109 28.5 182.5t81.5 110.5q51 35 100.5 47t119.5 12h210v-178h-122q-53 0 -89 -36t-36 -97v-293q0 -127 -35 -191.5t-127 -95.5v-8q92 -31 127 -94t35 -192v-400q0 -61 35.5 -97t89.5 -36h122v-178h-210 q-70 0 -119 12t-101 47q-53 37 -81.5 111t-28.5 182v389q0 84 -8.5 115t-35 41t-98.5 10h-47z" />
<glyph unicode="|" horiz-adv-x="542" d="M213 -20v1370h117v-1370h-117z" />
<glyph unicode="}" horiz-adv-x="786" d="M41 -211h123q53 0 89 36t36 97v400q0 129 34.5 192.5t127.5 93.5v8q-92 31 -127 95.5t-35 191.5v293q0 61 -36 97t-89 36h-123v178h211q70 0 121 -12t100 -47q109 -74 109 -293v-283q0 -84 8 -114.5t34.5 -40.5t98.5 -10h47v-189h-47q-72 0 -98.5 -10t-34.5 -41t-8 -115 v-389q0 -219 -109 -293q-49 -35 -100 -47t-121 -12h-211v178z" />
<glyph unicode="~" d="M139 461v207q78 92 250 92q76 0 223 -60q145 -61 193 -61q166 0 244 127v-207q-74 -94 -252 -94q-63 0 -209 61q-147 59 -207 60q-86 0 -142.5 -30t-99.5 -95z" />
<glyph unicode="&#xa2;" horiz-adv-x="950" d="M66 492v329q0 223 135 297q66 35 132 48.5t167 15.5v168h168v-172q94 -6 231 -33v-199q-211 49 -342 49q-88 0 -125 -7t-50 -32.5t-13 -83.5v-426q0 -72 41 -88q41 -18 168 -18q129 0 335 45v-201q-119 -23 -245 -30v-174h-168v170q-80 2 -133.5 9t-112.5 25 q-61 20 -99 56t-63 100q-27 61 -26 152z" />
<glyph unicode="&#xa3;" d="M86 0v227h207v353h-207v208h207v154q0 127 30.5 209t96.5 125q63 41 140 57.5t200 16.5q96 0 244 -17v-207q-121 18 -195 19q-106 0 -148.5 -10.5t-55.5 -44t-13 -117.5v-185h350v-208h-350v-353h510v-227h-1016z" />
<glyph unicode="&#xa5;" horiz-adv-x="1325" d="M20 1329h363l281 -520l278 520h365l-363 -584h270v-206h-395v-138h395v-206h-395v-195h-313v195h-393v206h393v138h-393v206h266z" />
<glyph unicode="&#xa8;" horiz-adv-x="1056" d="M205 1157v242h258v-242h-258zM594 1157v242h258v-242h-258z" />
<glyph unicode="&#xa9;" horiz-adv-x="1591" d="M102 340v629q0 80 35 143.5t96 104.5q127 82 287 108q150 25 283 25q94 0 173 -8.5t171 -30.5q106 -27 176 -67t117 -107q49 -70 49 -166v-631q0 -84 -47 -152.5t-125 -107.5q-72 -35 -169 -60.5t-181 -31.5q-74 -8 -164 -8q-94 0 -176 8t-174 30q-106 25 -179 64 t-120 102q-51 66 -52 156zM324 356q0 -209 483 -209q74 0 117 3.5t108 13.5q74 10 119 31.5t80 62.5t35 98v609q0 225 -461 225q-481 0 -481 -225v-609zM477 559v238q0 127 78 187t248 60q168 0 236.5 -53t68.5 -174v-55h-211v39q0 41 -6 58.5t-26.5 23.5t-67.5 6 q-57 0 -78 -21.5t-21 -87.5v-205q0 -49 7.5 -71.5t27 -29.5t64.5 -7q49 0 68.5 5t25.5 22.5t6 60.5v41h211v-57q0 -121 -66.5 -174.5t-238.5 -53.5q-125 0 -194.5 22.5t-100.5 76t-31 149.5z" />
<glyph unicode="&#xab;" horiz-adv-x="1077" d="M82 537l205 393h258l-189 -393l189 -394h-258zM532 537l205 393h258l-188 -393l188 -394h-258z" />
<glyph unicode="&#xad;" horiz-adv-x="794" d="M82 471v229h631v-229h-631z" />
<glyph unicode="&#xae;" horiz-adv-x="1591" d="M102 340v629q0 80 35 143.5t96 104.5q127 82 287 108q150 25 283 25q94 0 173 -8.5t171 -30.5q106 -27 176 -67t117 -107q49 -70 49 -166v-631q0 -84 -47 -152.5t-125 -107.5q-72 -35 -169 -60.5t-181 -31.5q-74 -8 -164 -8q-94 0 -176 8t-174 30q-106 25 -179 64 t-120 102q-51 66 -52 156zM324 356q0 -209 483 -209q74 0 117 3.5t108 13.5q74 10 119 31.5t80 62.5t35 98v609q0 225 -461 225q-481 0 -481 -225v-609zM514 287v755h301q113 0 172.5 -14t84 -47t24.5 -94v-133q0 -70 -34 -101.5t-112 -52.5l174 -313h-217l-147 299h-45 v-299h-201zM715 705h96q55 0 69.5 14t14.5 65v70q0 43 -15.5 56.5t-58.5 13.5h-106v-219z" />
<glyph unicode="&#xb4;" horiz-adv-x="919" d="M205 1133l184 260h326l-256 -260h-254z" />
<glyph unicode="&#xb8;" horiz-adv-x="841" d="M205 -403l45 94q61 -37 127 -37q96 0 96 72q0 78 -154 77h-81q2 6 65 99q63 92 66 98h143l-74 -102q90 -6 144.5 -46t54.5 -116q0 -88 -71.5 -137.5t-174.5 -49.5q-114 1 -186 48z" />
<glyph unicode="&#xbb;" horiz-adv-x="1077" d="M82 143l188 394l-188 393h258l205 -393l-205 -394h-258zM532 143l189 394l-189 393h259l204 -393l-204 -394h-259z" />
<glyph unicode="&#xc1;" horiz-adv-x="1368" d="M4 0l492 1329h389l479 -1329h-324l-118 350h-486l-117 -350h-315zM508 563h344l-168 500h-8zM581 1460l185 260h325l-256 -260h-254z" />
<glyph unicode="&#xc4;" horiz-adv-x="1368" d="M4 0l492 1329h389l479 -1329h-324l-118 350h-486l-117 -350h-315zM358 1464v242h258v-242h-258zM508 563h344l-168 500h-8zM748 1464v242h258v-242h-258z" />
<glyph unicode="&#xc6;" horiz-adv-x="2027" d="M0 0l676 1329h1259v-227h-659v-305h592v-228h-592v-342h680v-227h-993v350h-461l-162 -350h-340zM598 563h365v539h-117z" />
<glyph unicode="&#xc7;" horiz-adv-x="1222" d="M115 365v583q0 401 616 402q158 0 422 -45v-240q-238 57 -418 57q-76 0 -118 -4t-87 -20q-96 -33 -96 -146v-565q0 -180 330 -180q141 0 397 59v-241q-221 -43 -370 -45l-60 -82q90 -6 144.5 -46t54.5 -116q0 -88 -72 -137.5t-174 -49.5q-114 1 -186 48l45 94 q61 -37 127 -37q96 0 96 72q0 78 -154 77h-82l25 41q8 10 53 76l41 62q-535 29 -534 383z" />
<glyph unicode="&#xcb;" horiz-adv-x="1249" d="M143 0v1329h1014v-227h-694v-305h627v-228h-627v-342h715v-227h-1035zM301 1495v242h258v-242h-258zM690 1495v242h258v-242h-258z" />
<glyph unicode="&#xcd;" horiz-adv-x="606" d="M143 0v1329h320v-1329h-320zM200 1460l185 260h325l-256 -260h-254z" />
<glyph unicode="&#xd0;" horiz-adv-x="1386" d="M20 582v206h123v541h566q233 0 368 -36t198.5 -124t63.5 -243v-541q0 -152 -59 -234.5t-194.5 -116.5t-374.5 -34h-568v582h-123zM463 227h233q131 0 198 11.5t96.5 44t29.5 102.5v547q0 94 -75 132t-238 38h-244v-314h250v-206h-250v-355z" />
<glyph unicode="&#xd3;" horiz-adv-x="1490" d="M115 365v581q0 98 44 176t113 123q61 39 151.5 65.5t168.5 32.5q72 6 151 7q94 0 164 -7.5t156 -29.5q98 -29 161.5 -70t106.5 -115q45 -76 45 -182v-581q0 -111 -58 -191t-161 -121q-184 -74 -414 -73q-110 0 -203.5 14t-193.5 49q-109 37 -170 120t-61 202zM434 365 q0 -51 26.5 -85t78.5 -49q49 -14 95 -19t114 -5q67 0 113 5t95 19t75 48t26 86v583q0 94 -76 134t-236 40t-235.5 -39t-75.5 -135v-583zM643 1460l185 260h325l-256 -260h-254z" />
<glyph unicode="&#xd6;" horiz-adv-x="1490" d="M115 365v581q0 98 44 176t113 123q61 39 151.5 65.5t168.5 32.5q72 6 151 7q94 0 164 -7.5t156 -29.5q98 -29 161.5 -70t106.5 -115q45 -76 45 -182v-581q0 -111 -58 -191t-161 -121q-184 -74 -414 -73q-110 0 -203.5 14t-193.5 49q-109 37 -170 120t-61 202zM422 1495 v242h258v-242h-258zM434 365q0 -51 26.5 -85t78.5 -49q49 -14 95 -19t114 -5q67 0 113 5t95 19t75 48t26 86v583q0 94 -76 134t-236 40t-235.5 -39t-75.5 -135v-583zM811 1495v242h258v-242h-258z" />
<glyph unicode="&#xd8;" horiz-adv-x="1490" d="M115 365v581q0 98 44 176t113 123q61 39 151.5 65.5t168.5 32.5q72 6 151 7q94 0 164 -7.5t156 -29.5q98 -29 161.5 -70t106.5 -115q45 -76 45 -182v-581q0 -111 -58 -191t-161 -121q-184 -74 -414 -73q-110 0 -203.5 14t-193.5 49q-109 37 -170 120t-61 202zM434 387 l524 705q-70 31 -213 30q-160 0 -235.5 -39t-75.5 -135v-561zM524 236q74 -29 224 -29q67 0 113 5t95 19t75 48t26 86v583z" />
<glyph unicode="&#xda;" horiz-adv-x="1431" d="M139 365v964h320v-964q0 -90 58 -124t202 -34q141 0 197.5 33.5t56.5 124.5v964h319v-964q0 -385 -577 -385q-576 0 -576 385zM614 1460l185 260h325l-256 -260h-254z" />
<glyph unicode="&#xdc;" horiz-adv-x="1431" d="M139 365v964h320v-964q0 -90 58 -124t202 -34q141 0 197.5 33.5t56.5 124.5v964h319v-964q0 -385 -577 -385q-576 0 -576 385zM391 1495v242h258v-242h-258zM780 1495v242h258v-242h-258z" />
<glyph unicode="&#xdd;" horiz-adv-x="1318" d="M16 1329h363l280 -520l279 520h365l-486 -792v-537h-319v532zM557 1460l185 260h325l-256 -260h-254z" />
<glyph unicode="&#xdf;" horiz-adv-x="1308" d="M131 0v1165q0 115 38 170.5t153 85.5q113 33 342 33q260 0 371.5 -70.5t111.5 -218.5v-243q0 -55 -43 -104.5t-103 -67.5l-2 -11q78 -8 142.5 -66.5t64.5 -129.5v-246q0 -162 -129 -229.5t-399 -67.5h-111v227h111q129 0 180 23q47 23 47 92v160q0 53 -15.5 78.5t-52 34 t-116.5 8.5h-154v200h103q106 0 147 25.5t41 93.5v195q0 63 -40 86.5t-154 23.5q-147 0 -191 -18q-43 -20 -43 -92v-1137h-299z" />
<glyph unicode="&#xe1;" horiz-adv-x="1155" d="M80 297q0 119 29.5 186.5t96 97t183.5 29.5h336v68q0 63 -17.5 94t-63.5 43t-138 12q-127 0 -348 -24v188q162 20 379 21q190 0 293.5 -29t148.5 -98.5t45 -202.5v-682h-293v90q-35 -59 -94 -84q-59 -27 -225 -26q-140 0 -208.5 25.5t-96 92t-27.5 199.5zM373 303 q0 -68 10 -94.5t40 -34.5t105 -8q90 0 129 6q29 4 40.5 12.5t19.5 26.5q8 14 8 43v192h-205q-70 0 -98.5 -9t-38.5 -36.5t-10 -97.5zM465 1133l185 260h325l-256 -260h-254z" />
<glyph unicode="&#xe4;" horiz-adv-x="1155" d="M80 297q0 119 29.5 186.5t96 97t183.5 29.5h336v68q0 63 -17.5 94t-63.5 43t-138 12q-127 0 -348 -24v188q162 20 379 21q190 0 293.5 -29t148.5 -98.5t45 -202.5v-682h-293v90q-35 -59 -94 -84q-59 -27 -225 -26q-140 0 -208.5 25.5t-96 92t-27.5 199.5zM254 1157v242 h258v-242h-258zM373 303q0 -68 10 -94.5t40 -34.5t105 -8q90 0 129 6q29 4 40.5 12.5t19.5 26.5q8 14 8 43v192h-205q-70 0 -98.5 -9t-38.5 -36.5t-10 -97.5zM643 1157v242h258v-242h-258z" />
<glyph unicode="&#xe6;" horiz-adv-x="1730" d="M80 297q0 119 29.5 186.5t96 97t183.5 29.5h336v68q0 63 -17.5 94t-63.5 43t-138 12q-127 0 -348 -24v188q162 20 379 21q229 0 329 -64q106 63 318 64q233 0 340.5 -81t107.5 -274v-241h-633v-90q0 -88 59.5 -124t219.5 -36q143 0 328 43v-191q-182 -39 -385 -38 q-356 0 -455 157q-33 -63 -72 -97t-103.5 -47t-178.5 -13q-140 0 -208.5 25.5t-96 92t-27.5 199.5zM373 303q0 -68 10 -94.5t40 -34.5t105 -8q90 0 129 6q29 4 40.5 12.5t19.5 26.5q8 14 8 43v192h-205q-70 0 -98.5 -9t-38.5 -36.5t-10 -97.5zM999 586h351v143 q0 51 -38 74.5t-132 23.5q-109 0 -144 -24q-37 -25 -37 -74v-143z" />
<glyph unicode="&#xe7;" horiz-adv-x="987" d="M102 322v329q0 135 62 226q23 33 66.5 60.5t88.5 43.5q37 12 98.5 20.5t108.5 10.5h109q115 0 301 -37v-197q-211 49 -324 49q-207 0 -206 -139v-364q0 -158 227 -158q111 0 317 45v-197q-162 -29 -295 -32l-59 -84q90 -6 144.5 -46t54.5 -116q0 -88 -72 -137.5 t-174 -49.5q-115 1 -187 48l46 94q61 -37 127 -37q96 0 96 72q0 78 -154 77h-82l25 39q8 12 20.5 32t32.5 46l41 62q-90 2 -154.5 16t-126.5 47q-131 70 -131 277z" />
<glyph unicode="&#xeb;" horiz-adv-x="1144" d="M102 301v356q0 186 120 270.5t370 84.5q236 0 345.5 -81t109.5 -274v-241h-644v-90q0 -86 61.5 -123t221.5 -37q147 0 332 43v-191q-182 -39 -389 -38q-527 -1 -527 321zM248 1157v242h258v-242h-258zM403 586h359v143q0 49 -40 73.5t-134 24.5q-109 0 -146 -24 q-39 -27 -39 -74v-143zM637 1157v242h258v-242h-258z" />
<glyph unicode="&#xed;" horiz-adv-x="577" d="M139 0v991h299v-991h-299zM176 1133l185 260h325l-256 -260h-254z" />
<glyph unicode="&#xf0;" horiz-adv-x="1212" d="M102 340v293q0 98 31 172t80 115q43 35 113.5 58t138.5 30q78 4 141 4q98 0 164 -8q-51 94 -123 192l-198 -59v137l108 33q-27 31 -123 127h291q31 -29 59 -60l199 60v-138l-102 -30q229 -285 229 -609v-317q0 -92 -29.5 -161.5t-76.5 -108.5q-41 -35 -112 -56.5 t-138 -27.5q-61 -6 -148 -6q-92 0 -151.5 6t-126.5 24q-74 20 -119 58t-76 108q-31 68 -31 164zM401 305q0 -55 17.5 -83.5t60.5 -42t127 -13.5t127 13.5t60.5 42t17.5 83.5v375q0 82 -43 114.5t-162 32.5t-162 -32.5t-43 -114.5v-375z" />
<glyph unicode="&#xf3;" horiz-adv-x="1212" d="M102 340v293q0 98 31 172t80 115q43 35 113.5 58t138.5 30q78 4 141 4q94 0 150.5 -5.5t124.5 -25.5q74 -23 120 -61.5t78 -110.5q31 -74 31 -176v-293q0 -92 -29.5 -161.5t-76.5 -108.5q-41 -35 -112 -56.5t-138 -27.5q-61 -6 -148 -6q-92 0 -151.5 6t-126.5 24 q-74 20 -119 58t-76 108q-31 68 -31 164zM401 305q0 -55 17.5 -83.5t60.5 -42t127 -13.5t127 13.5t60.5 42t17.5 83.5v375q0 82 -43 114.5t-162 32.5t-162 -32.5t-43 -114.5v-375zM493 1133l185 260h325l-256 -260h-254z" />
<glyph unicode="&#xf6;" horiz-adv-x="1212" d="M102 340v293q0 98 31 172t80 115q43 35 113.5 58t138.5 30q78 4 141 4q94 0 150.5 -5.5t124.5 -25.5q74 -23 120 -61.5t78 -110.5q31 -74 31 -176v-293q0 -92 -29.5 -161.5t-76.5 -108.5q-41 -35 -112 -56.5t-138 -27.5q-61 -6 -148 -6q-92 0 -151.5 6t-126.5 24 q-74 20 -119 58t-76 108q-31 68 -31 164zM283 1157v242h258v-242h-258zM401 305q0 -55 17.5 -83.5t60.5 -42t127 -13.5t127 13.5t60.5 42t17.5 83.5v375q0 82 -43 114.5t-162 32.5t-162 -32.5t-43 -114.5v-375zM672 1157v242h258v-242h-258z" />
<glyph unicode="&#xf8;" horiz-adv-x="1222" d="M102 340v293q0 98 32 172t81 115q43 35 113.5 58t138.5 30q78 4 143 4q96 0 152.5 -5.5t124.5 -25.5q74 -23 120 -61.5t78 -110.5q33 -72 33 -176v-293q0 -92 -30.5 -161.5t-77.5 -108.5q-41 -35 -113 -56.5t-139 -27.5q-61 -6 -148 -6q-92 0 -151.5 6t-128.5 24 q-74 20 -119 58t-76 108q-33 66 -33 164zM401 309l334 518q-41 14 -125 15q-121 0 -165 -33t-44 -117v-383zM489 164q37 -10 121 -10q86 0 130 11t61.5 39.5t17.5 84.5v387z" />
<glyph unicode="&#xfa;" horiz-adv-x="1218" d="M131 264v727h299v-686q0 -57 11.5 -86t45 -41t103.5 -12q88 0 129 11t55 40t14 88v686h299v-991h-294v121q-33 -141 -318 -141q-190 0 -267 68.5t-77 215.5zM497 1133l185 260h325l-256 -260h-254z" />
<glyph unicode="&#xfc;" horiz-adv-x="1218" d="M131 264v727h299v-686q0 -57 11.5 -86t45 -41t103.5 -12q88 0 129 11t55 40t14 88v686h299v-991h-294v121q-33 -141 -318 -141q-190 0 -267 68.5t-77 215.5zM285 1157v242h258v-242h-258zM674 1157v242h258v-242h-258z" />
<glyph unicode="&#xfd;" horiz-adv-x="1093" d="M16 991h326l223 -700l203 700h309l-542 -1417h-304l181 434zM434 1133l185 260h325l-256 -260h-254z" />
<glyph unicode="&#x2c6;" horiz-adv-x="1228" d="M205 1133l114 260h383l119 -260h-201l-108 178l-107 -178h-200z" />
<glyph unicode="&#x2da;" horiz-adv-x="1019" d="M205 1333v25q0 57 16.5 99t42.5 65q23 20 66 32.5t84 14.5q25 2 96 2q70 0 103.5 -2t74.5 -15q43 -12 67.5 -33.5t43.5 -62.5q16 -43 16 -100v-25q0 -137 -92 -172q-47 -18 -91 -23t-122 -5t-122 5t-89 23q-94 35 -94 172zM367 1319q0 -49 28.5 -64.5t114.5 -15.5 t114.5 15.5t28.5 64.5v55q0 41 -10 59.5t-39 24.5t-94 6q-66 0 -94.5 -6t-38.5 -24.5t-10 -59.5v-55z" />
<glyph unicode="&#x2dc;" horiz-adv-x="1228" d="M204 1188q14 57 66.5 109.5t120.5 52.5q47 0 127 -31q78 -31 110 -31q55 0 84 68l84 -49q-16 -59 -67.5 -113.5t-118.5 -54.5q-47 0 -133 35q-80 33 -105 32q-59 0 -86 -67z" />
<glyph unicode="&#x400;" horiz-adv-x="1249" d="M143 0v1329h1014v-227h-694v-305h627v-228h-627v-342h715v-227h-1035zM346 1720h326l184 -260h-254z" />
<glyph unicode="&#x401;" horiz-adv-x="1249" d="M143 0v1329h1014v-227h-694v-305h627v-228h-627v-342h715v-227h-1035zM362 1505v242h258v-242h-258zM751 1505v242h258v-242h-258z" />
<glyph unicode="&#x402;" horiz-adv-x="1554" d="M41 1102v227h1137v-227h-490v-334q180 92 391 92q178 0 286 -111.5t108 -324.5q0 -215 -105.5 -329.5t-316.5 -114.5q-84 0 -152 20v233q86 -20 125 -20q80 0 109.5 49t29.5 154q0 203 -174 202q-86 0 -168 -26.5t-133 -67.5v-524h-319v1102h-328z" />
<glyph unicode="&#x403;" horiz-adv-x="1071" d="M143 0v1329h887v-227h-567v-1102h-320zM563 1460l185 260h325l-256 -260h-254z" />
<glyph unicode="&#x404;" horiz-adv-x="1222" d="M115 365v583q0 401 616 402q158 0 422 -45v-240q-238 57 -418 57q-92 0 -152.5 -9t-104.5 -46t-44 -115v-155h549v-228h-549v-182q0 -180 330 -180q141 0 397 59v-241q-219 -45 -430 -45q-235 0 -425.5 76.5t-190.5 308.5z" />
<glyph unicode="&#x405;" horiz-adv-x="1241" d="M76 913v99q0 174 145.5 256t460.5 82q164 0 416 -27v-238q-309 37 -426 37q-162 0 -217 -26q-59 -29 -60 -90v-95q0 -104 176 -104h160q227 0 329.5 -84t102.5 -256v-88q0 -238 -170 -322q-82 -43 -181 -60t-239 -17q-190 -1 -471 36v244q348 -53 476 -53q266 0 266 137 v86q0 66 -38 100.5t-136 34.5h-156q-438 0 -438 348z" />
<glyph unicode="&#x406;" horiz-adv-x="606" d="M143 0v1329h320v-1329h-320z" />
<glyph unicode="&#x407;" horiz-adv-x="606" d="M-21 1505v242h258v-242h-258zM143 0v1329h320v-1329h-320zM368 1505v242h258v-242h-258z" />
<glyph unicode="&#x408;" horiz-adv-x="911" d="M39 0v233q145 -27 252 -26q162 0 162 145v977h319v-967q0 -209 -112.5 -295.5t-344.5 -86.5q-139 0 -276 20z" />
<glyph unicode="&#x409;" horiz-adv-x="2199" d="M90 0v250q45 -6 76 -6q102 0 157.5 58t81 232.5t25.5 528.5v266h967v-487h176q188 0 301 -17.5t178.5 -78t65.5 -181.5v-250q0 -315 -537 -315h-504v1104h-358v-184q0 -379 -68.5 -586t-178.5 -278.5t-259 -71.5q-33 0 -70 7t-53 9zM1395 227h172q121 0 176 34t55 104 v141q0 63 -53 85.5t-174 22.5h-176v-387z" />
<glyph unicode="&#x40a;" horiz-adv-x="2150" d="M143 0v1329h320v-532h565v532h320v-487h176q188 0 300.5 -17.5t178 -78t65.5 -181.5v-250q0 -315 -536 -315h-504v569h-565v-569h-320zM1346 227h172q121 0 176 34t55 104v141q0 63 -53.5 85.5t-173.5 22.5h-176v-387z" />
<glyph unicode="&#x40b;" horiz-adv-x="1595" d="M41 1102v227h1137v-227h-490v-334q180 92 391 92q168 0 284 -87t116 -296v-477h-316v453q0 98 -48 131.5t-126 33.5q-86 0 -168 -26.5t-133 -67.5v-524h-319v1102h-328z" />
<glyph unicode="&#x40c;" horiz-adv-x="1341" d="M143 0v1329h320v-524q90 0 145.5 33.5t120.5 130.5l250 360h358l-286 -399q-66 -92 -120 -140.5t-134 -78.5v-4q102 -25 170.5 -88.5t134.5 -184.5l235 -434h-358l-217 391q-43 78 -83 118t-89 54.5t-127 14.5v-578h-320zM590 1460l185 260h325l-256 -260h-254z" />
<glyph unicode="&#x40d;" horiz-adv-x="1499" d="M143 0v1329h320v-909l573 909h320v-1329h-320v924l-573 -924h-320zM409 1720h326l184 -260h-254z" />
<glyph unicode="&#x40e;" horiz-adv-x="1245" d="M4 1329h334l334 -667h8l264 667h322l-482 -1067q-66 -147 -166 -214.5t-282 -67.5q-74 0 -178 20v233q43 -10 85 -18t81 -8q57 0 97 27.5t68 84.5l29 60zM243 1792h256q10 -88 46 -125t110 -37t109.5 37t46.5 125h256q0 -143 -104.5 -232.5t-307.5 -89.5t-307.5 89.5 t-104.5 232.5z" />
<glyph unicode="&#x40f;" horiz-adv-x="1458" d="M143 0v1329h320v-1104h532v1104h320v-1329h-443v-344h-286v344h-443z" />
<glyph unicode="&#x410;" horiz-adv-x="1368" d="M4 0l492 1329h389l479 -1329h-324l-118 350h-486l-117 -350h-315zM508 563h344l-168 500h-8z" />
<glyph unicode="&#x411;" horiz-adv-x="1265" d="M143 0v1329h944v-227h-624v-301h199q184 0 294.5 -21.5t169 -82t58.5 -173.5v-209q0 -315 -537 -315h-504zM461 227h172q121 0 176 34t55 104v100q0 63 -53 85.5t-174 22.5h-176v-346z" />
<glyph unicode="&#x412;" horiz-adv-x="1300" d="M143 0v1329h539q190 0 293.5 -27.5t146.5 -88t43 -169.5v-163q0 -55 -44 -104.5t-103 -67.5v-11q78 -8 142.5 -66.5t64.5 -129.5v-205q0 -162 -129 -229.5t-400 -67.5h-553zM463 227h227q117 0 166 27t49 86v106q0 74 -38 105t-134 31h-270v-355zM463 788h219 q76 0 112.5 12.5t50 40t13.5 81.5v65q0 47 -12 70.5t-50 34t-120 10.5h-213v-314z" />
<glyph unicode="&#x413;" horiz-adv-x="1071" d="M143 0v1329h887v-227h-567v-1102h-320z" />
<glyph unicode="&#x414;" horiz-adv-x="1511" d="M31 227h28q84 0 136.5 64.5t81 236.5t28.5 488v313h967v-1102h194v-536h-286v309h-863v-309h-286v536zM459 225h493v879h-360v-164q0 -518 -133 -715z" />
<glyph unicode="&#x415;" horiz-adv-x="1249" d="M143 0v1329h1014v-227h-694v-305h627v-228h-627v-342h715v-227h-1035z" />
<glyph unicode="&#x416;" horiz-adv-x="2004" d="M10 0l236 434q66 121 134.5 184.5t170.5 88.5v4q-80 31 -127 77t-109 142l-254 399h355l219 -360q61 -100 103 -135t108 -35v530h313v-530q66 0 108 34.5t103 135.5l219 360h355l-254 -399q-61 -96 -108.5 -142.5t-127.5 -76.5v-4q102 -25 171 -88.5t134 -184.5l236 -434 h-355l-217 391q-47 86 -77.5 124t-71.5 53.5t-115 15.5v-584h-313v584q-74 0 -115 -15.5t-71.5 -53.5t-77.5 -124l-217 -391h-355z" />
<glyph unicode="&#x417;" horiz-adv-x="1167" d="M61 25v241q143 -33 235.5 -46t201.5 -13q156 0 215 31.5t59 101.5v129q0 63 -62.5 81.5t-197.5 18.5h-264v228h264q90 0 135 12t61.5 35.5t16.5 68.5v105q0 63 -49 83.5t-178 20.5q-170 0 -410 -59v240q250 47 469 47q258 0 372.5 -58.5t114.5 -201.5v-213 q0 -59 -40.5 -103.5t-98.5 -58.5v-6q186 -53 187 -199v-215q0 -158 -138.5 -236.5t-406.5 -78.5q-275 0 -486 45z" />
<glyph unicode="&#x418;" horiz-adv-x="1499" d="M143 0v1329h320v-909l573 909h320v-1329h-320v924l-573 -924h-320z" />
<glyph unicode="&#x419;" horiz-adv-x="1499" d="M143 0v1329h320v-909l573 909h320v-1329h-320v924l-573 -924h-320zM340 1792h256q10 -88 46 -125t110 -37t109.5 37t46.5 125h256q0 -143 -104.5 -232.5t-307.5 -89.5t-307.5 89.5t-104.5 232.5z" />
<glyph unicode="&#x41a;" horiz-adv-x="1341" d="M143 0v1329h320v-524q90 0 145.5 33.5t120.5 130.5l250 360h358l-286 -399q-66 -92 -120 -140.5t-134 -78.5v-4q102 -25 170.5 -88.5t134.5 -184.5l235 -434h-358l-217 391q-43 78 -83 118t-89 54.5t-127 14.5v-578h-320z" />
<glyph unicode="&#x41b;" horiz-adv-x="1540" d="M90 0v250q45 -6 76 -6q102 0 157.5 58t81 232.5t25.5 528.5v266h967v-1329h-320v1104h-358v-184q0 -379 -68.5 -586t-178.5 -278.5t-259 -71.5q-33 0 -70 7t-53 9z" />
<glyph unicode="&#x41c;" horiz-adv-x="1820" d="M143 0v1329h455l328 -950l323 950h428v-1329h-288v983h-7l-335 -983h-256l-347 983h-8v-983h-293z" />
<glyph unicode="&#x41d;" horiz-adv-x="1490" d="M143 0v1329h320v-532h565v532h320v-1329h-320v569h-565v-569h-320z" />
<glyph unicode="&#x41e;" horiz-adv-x="1490" d="M115 365v581q0 98 44 176t113 123q61 39 151.5 65.5t168.5 32.5q72 6 151 7q94 0 164 -7.5t156 -29.5q98 -29 161.5 -70t106.5 -115q45 -76 45 -182v-581q0 -111 -58 -191t-161 -121q-184 -74 -414 -73q-110 0 -203.5 14t-193.5 49q-109 37 -170 120t-61 202zM434 365 q0 -51 26.5 -85t78.5 -49q49 -14 95 -19t114 -5q67 0 113 5t95 19t75 48t26 86v583q0 94 -76 134t-236 40t-235.5 -39t-75.5 -135v-583z" />
<glyph unicode="&#x41f;" horiz-adv-x="1458" d="M143 0v1329h1172v-1329h-320v1104h-532v-1104h-320z" />
<glyph unicode="&#x420;" horiz-adv-x="1284" d="M143 0v1329h533q195 0 308.5 -26.5t165.5 -93t52 -185.5v-252q0 -131 -56 -204.5t-178 -104.5t-329 -31h-176v-432h-320zM463 651h203q125 0 176 30t51 101v213q0 66 -49 86q-47 20 -182 21h-199v-451z" />
<glyph unicode="&#x421;" horiz-adv-x="1222" d="M115 365v583q0 401 616 402q158 0 422 -45v-240q-238 57 -418 57q-76 0 -118 -4t-87 -20q-96 -33 -96 -146v-565q0 -180 330 -180q141 0 397 59v-241q-219 -45 -430 -45q-90 0 -160.5 8t-154.5 30q-94 25 -155.5 65t-102.5 112q-43 72 -43 170z" />
<glyph unicode="&#x422;" horiz-adv-x="1218" d="M41 1102v227h1137v-227h-408v-1102h-319v1102h-410z" />
<glyph unicode="&#x423;" horiz-adv-x="1245" d="M4 1329h334l334 -667h8l264 667h322l-482 -1067q-66 -147 -166 -214.5t-282 -67.5q-74 0 -178 20v233q43 -10 85 -18t81 -8q57 0 97 27.5t68 84.5l29 60z" />
<glyph unicode="&#x424;" horiz-adv-x="1585" d="M109 532v324q0 205 153.5 300t372.5 95v170h315v-170q217 0 372 -96t155 -299v-324q0 -123 -74 -208.5t-193.5 -127.5t-259.5 -42v-174h-315v174q-223 0 -374.5 93t-151.5 285zM428 516q0 -70 60.5 -109.5t150.5 -39.5v673q-92 0 -151.5 -45t-59.5 -118v-361zM946 365 q90 0 150.5 40.5t60.5 110.5v361q0 74 -59.5 118.5t-151.5 44.5v-675z" />
<glyph unicode="&#x425;" horiz-adv-x="1386" d="M20 0l490 678l-469 651h369l284 -442l283 442h369l-469 -651l491 -678h-371l-303 471l-305 -471h-369z" />
<glyph unicode="&#x426;" horiz-adv-x="1486" d="M143 0v1329h320v-1104h463v1104h319v-1102h197v-536h-287v309h-1012z" />
<glyph unicode="&#x427;" horiz-adv-x="1370" d="M117 799v530h315v-506q0 -98 48 -132t126 -34q86 0 168 27t133 68v577h320v-1329h-320v508q-164 -92 -391 -92q-168 0 -283.5 87t-115.5 296z" />
<glyph unicode="&#x428;" horiz-adv-x="2080" d="M143 0v1329h320v-1104h418v1104h319v-1104h418v1104h319v-1329h-1794z" />
<glyph unicode="&#x429;" horiz-adv-x="2179" d="M143 0v1329h320v-1104h418v1104h319v-1104h418v1104h319v-1102h197v-536h-287v309h-1704z" />
<glyph unicode="&#x42a;" horiz-adv-x="1570" d="M41 1102v227h727v-487h160q199 0 314.5 -18.5t181 -79t65.5 -181.5v-248q0 -315 -537 -315h-503v1102h-408zM766 227h172q121 0 176 34t55 104v139q0 63 -53 85.5t-174 22.5h-176v-385z" />
<glyph unicode="&#x42b;" horiz-adv-x="1835" d="M143 0v1329h320v-487h168q182 0 294.5 -18.5t178 -79t65.5 -179.5v-250q0 -315 -536 -315h-490zM461 227h157q121 0 176.5 34t55.5 104v141q0 63 -53.5 85.5t-173.5 22.5h-162v-387zM1372 0v1329h320v-1329h-320z" />
<glyph unicode="&#x42c;" horiz-adv-x="1265" d="M143 0v1329h320v-487h160q197 0 312.5 -17.5t182 -78t66.5 -181.5v-250q0 -315 -537 -315h-504zM461 227h172q121 0 176 34t55 104v141q0 63 -53 85.5t-174 22.5h-176v-387z" />
<glyph unicode="&#x42d;" horiz-adv-x="1222" d="M61 25v241q256 -59 398 -59q330 0 329 180v182h-546v228h546v155q0 78 -45 115t-106.5 46t-155.5 9q-143 0 -399 -59v240q252 47 430 47q205 0 330 -28t195.5 -115t70.5 -259v-583q0 -94 -41 -167t-106 -116q-86 -55 -211 -78.5t-258 -23.5q-212 0 -431 45z" />
<glyph unicode="&#x42e;" horiz-adv-x="2084" d="M143 0v1329h320v-532h266v149q0 242 188.5 323t430.5 81q250 0 436 -84t186 -320v-581q0 -207 -184 -296t-438 -89t-436.5 82.5t-182.5 302.5v204h-266v-569h-320zM1049 365q0 -92 78.5 -125t224.5 -33q145 0 222 31.5t77 126.5v583q0 94 -72 134t-229 40 q-160 0 -230.5 -39t-70.5 -135v-583z" />
<glyph unicode="&#x42f;" horiz-adv-x="1368" d="M41 0l348 516q-129 16 -192.5 82t-63.5 186v265q0 152 119 216t385 64h588v-1329h-320v492h-188l-311 -492h-365zM446 848q0 -86 41 -116t154 -30h264v400h-264q-106 0 -150.5 -27.5t-44.5 -101.5v-125z" />
<glyph unicode="&#x430;" horiz-adv-x="1155" d="M80 297q0 119 29.5 186.5t96 97t183.5 29.5h336v68q0 63 -17.5 94t-63.5 43t-138 12q-127 0 -348 -24v188q162 20 379 21q190 0 293.5 -29t148.5 -98.5t45 -202.5v-682h-293v90q-35 -59 -94 -84q-59 -27 -225 -26q-140 0 -208.5 25.5t-96 92t-27.5 199.5zM373 303 q0 -68 10 -94.5t40 -34.5t105 -8q90 0 129 6q29 4 40.5 12.5t19.5 26.5q8 14 8 43v192h-205q-70 0 -98.5 -9t-38.5 -36.5t-10 -97.5z" />
<glyph unicode="&#x431;" horiz-adv-x="1218" d="M117 379v416q0 182 58 298.5t157.5 182t247.5 108.5l102 27q84 20 184.5 48t171.5 57v-254q-117 -57 -397 -119q-121 -27 -191.5 -63t-105.5 -97t-35 -162v-110h2q29 121 119 176t283 55q168 0 255 -45t117.5 -135t30.5 -248v-135q0 -145 -41 -230.5t-149.5 -127 t-309.5 -41.5q-176 0 -279.5 24.5t-161.5 111.5t-58 263zM416 330q0 -63 15 -97t59.5 -50.5t130.5 -16.5q90 0 131 16.5t53 49t12 98.5v254q0 76 -12 109.5t-51 48t-127 14.5q-92 0 -136.5 -17.5t-59.5 -55.5t-15 -110v-243z" />
<glyph unicode="&#x432;" horiz-adv-x="1189" d="M131 0v991h549q162 0 244 -26.5t107.5 -76.5t25.5 -138v-35q0 -78 -44 -117t-141 -59v-9q113 -18 174.5 -71t61.5 -137v-60q0 -135 -100.5 -198.5t-329.5 -63.5h-547zM426 180h156q125 0 176 26.5t51 84.5v37q0 39 -19.5 59.5t-64.5 28.5t-133 8h-166v-244zM426 600h149 q80 0 119 10.5t53.5 32t14.5 64.5v24q0 39 -36 59.5t-157 20.5h-143v-211z" />
<glyph unicode="&#x433;" horiz-adv-x="894" d="M131 0v991h723v-196h-424v-795h-299z" />
<glyph unicode="&#x434;" horiz-adv-x="1251" d="M41 197h59q41 0 81 56t69 200.5t29 388.5v149h770v-794h153v-471h-246v274h-643v-274h-272v471zM406 190h344v613h-226v-27q0 -207 -30.5 -356.5t-87.5 -229.5z" />
<glyph unicode="&#x435;" horiz-adv-x="1144" d="M102 301v356q0 186 120 270.5t370 84.5q236 0 345.5 -81t109.5 -274v-241h-644v-90q0 -86 61.5 -123t221.5 -37q147 0 332 43v-191q-182 -39 -389 -38q-527 -1 -527 321zM403 586h359v143q0 49 -40 73.5t-134 24.5q-109 0 -146 -24q-39 -27 -39 -74v-143z" />
<glyph unicode="&#x436;" horiz-adv-x="1671" d="M10 0l238 379q74 119 155 158l-329 454h299l227 -352q20 -31 39.5 -43t52.5 -12v407h287v-407q33 0 52.5 12t39.5 43l227 352h299l-329 -454q82 -39 155 -158l238 -379h-332l-194 324q-33 57 -65 73.5t-91 16.5v-414h-287v414q-59 0 -91 -16.5t-64 -73.5l-195 -324h-332z " />
<glyph unicode="&#x437;" horiz-adv-x="1024" d="M57 14v197q121 -27 197 -36t149 -9q96 0 145.5 8t70 31.5t20.5 68.5v41q0 59 -46 81t-165 22h-201v186h201q94 0 126 24.5t32 80.5v18q0 41 -13.5 61.5t-51.5 29.5t-118 9q-76 0 -142 -11t-177 -38v197q201 37 385 37q172 0 260 -20.5t122 -69t34 -140.5v-86 q0 -61 -35 -102t-92 -55v-11q86 -18 133 -68t47 -116v-84q0 -109 -54.5 -170t-166 -85.5t-293.5 -24.5q-183 -1 -367 34z" />
<glyph unicode="&#x438;" horiz-adv-x="1251" d="M131 0v991h299v-647l391 647h299v-991h-299v666l-391 -666h-299z" />
<glyph unicode="&#x439;" horiz-adv-x="1251" d="M131 0v991h299v-647l391 647h299v-991h-299v666l-391 -666h-299zM273 1413h211q6 -82 40.5 -121t102.5 -39q70 0 103.5 38t39.5 122h211q4 -135 -93 -218t-261 -83t-260 82t-94 219z" />
<glyph unicode="&#x43a;" horiz-adv-x="1153" d="M131 0v991h299v-401q33 0 53.5 9t40.5 34l287 358h311l-397 -459q84 -39 164 -153l264 -379h-344l-219 324q-37 53 -70 67.5t-90 14.5v-406h-299z" />
<glyph unicode="&#x43b;" horiz-adv-x="1249" d="M70 -4v221q25 -4 51 -4q76 0 123 47t72.5 184.5t25.5 397.5v149h776v-991h-299v801h-227v-25q0 -317 -55.5 -491t-145.5 -237.5t-215 -63.5q-45 0 -106 12z" />
<glyph unicode="&#x43c;" horiz-adv-x="1501" d="M131 0v991h381l242 -684l256 684h360v-991h-270v639h-13l-239 -639h-211l-231 639h-13v-639h-262z" />
<glyph unicode="&#x43d;" horiz-adv-x="1234" d="M131 0v991h299v-381h375v381h299v-991h-299v414h-375v-414h-299z" />
<glyph unicode="&#x43e;" horiz-adv-x="1212" d="M102 340v293q0 98 31 172t80 115q43 35 113.5 58t138.5 30q78 4 141 4q94 0 150.5 -5.5t124.5 -25.5q74 -23 120 -61.5t78 -110.5q31 -74 31 -176v-293q0 -92 -29.5 -161.5t-76.5 -108.5q-41 -35 -112 -56.5t-138 -27.5q-61 -6 -148 -6q-92 0 -151.5 6t-126.5 24 q-74 20 -119 58t-76 108q-31 68 -31 164zM401 305q0 -55 17.5 -83.5t60.5 -42t127 -13.5t127 13.5t60.5 42t17.5 83.5v375q0 82 -43 114.5t-162 32.5t-162 -32.5t-43 -114.5v-375z" />
<glyph unicode="&#x43f;" horiz-adv-x="1222" d="M131 0v991h961v-991h-299v801h-363v-801h-299z" />
<glyph unicode="&#x440;" horiz-adv-x="1247" d="M131 -426v1417h283v-98q27 66 104.5 92.5t231.5 26.5q129 0 207.5 -20.5t119.5 -65.5q39 -45 53.5 -99.5t14.5 -148.5v-326q0 -147 -43 -227t-132 -112.5t-243 -32.5q-147 0 -212.5 24.5t-84.5 95.5v-526h-299zM430 313q0 -61 15.5 -92t58.5 -43t131 -12t133 12t61.5 43 t16.5 92v367q0 68 -14.5 97.5t-57.5 39.5t-141 10q-84 0 -128 -14t-59.5 -45t-15.5 -88v-367z" />
<glyph unicode="&#x441;" horiz-adv-x="987" d="M102 322v329q0 135 62 226q23 33 66.5 60.5t88.5 43.5q37 12 98.5 20.5t108.5 10.5h109q115 0 301 -37v-197q-211 49 -324 49q-207 0 -206 -139v-364q0 -158 227 -158q111 0 317 45v-197q-186 -35 -336 -34q-77 0 -122.5 3t-110.5 11q-66 8 -108 28.5t-87 61.5 q-84 70 -84 238z" />
<glyph unicode="&#x442;" horiz-adv-x="1036" d="M41 795v196h954v-196h-327v-795h-299v795h-328z" />
<glyph unicode="&#x443;" horiz-adv-x="1093" d="M16 991h326l223 -700l203 700h309l-542 -1417h-304l181 434z" />
<glyph unicode="&#x444;" horiz-adv-x="1560" d="M102 344v285q0 160 68 241.5t180.5 108.5t286.5 29v426h287v-426q174 -2 286.5 -29t180 -109t67.5 -241v-285q0 -162 -73.5 -240.5t-183 -99t-277.5 -20.5v-410h-287v410q-168 0 -277.5 20.5t-183.5 99t-74 240.5zM399 346q0 -74 18.5 -110.5t69 -52t152.5 -15.5v657 q-100 -2 -150.5 -18t-70 -53t-19.5 -107v-301zM922 168q100 0 151 15.5t69.5 52t18.5 110.5v301q0 70 -19.5 107t-70.5 53t-149 18v-657z" />
<glyph unicode="&#x445;" horiz-adv-x="1163" d="M20 0l390 508l-369 483h346l195 -284l196 284h346l-370 -483l391 -508h-346l-217 311l-215 -311h-347z" />
<glyph unicode="&#x446;" horiz-adv-x="1245" d="M131 0v991h299v-801h313v801h299v-794h154v-471h-246v274h-819z" />
<glyph unicode="&#x447;" horiz-adv-x="1146" d="M94 596v395h291v-350q0 -61 8 -94t38 -49.5t93 -16.5q88 0 129 17.5t52.5 50.5t11.5 98v344h299v-991h-299v438q-41 -143 -303 -143q-176 0 -248 74.5t-72 226.5z" />
<glyph unicode="&#x448;" horiz-adv-x="1703" d="M131 0v991h299v-801h272v801h299v-801h273v801h299v-991h-1442z" />
<glyph unicode="&#x449;" horiz-adv-x="1775" d="M131 0v991h299v-801h272v801h299v-801h273v801h299v-794h153v-471h-245v274h-1350z" />
<glyph unicode="&#x44a;" horiz-adv-x="1361" d="M41 795v196h627v-332h114q207 0 308.5 -22.5t139.5 -79.5t38 -176v-117q0 -141 -117 -202.5t-363 -61.5h-419v795h-328zM664 186h110q82 0 121 11.5t51 36t12 73.5v55q0 45 -15 69t-53 32t-112 8h-114v-285z" />
<glyph unicode="&#x44b;" horiz-adv-x="1597" d="M131 0v991h299v-332h102q207 0 304.5 -22.5t133.5 -78.5t36 -177v-117q0 -143 -112 -203.5t-355 -60.5h-408zM426 186h98q82 0 121 11.5t51.5 36t12.5 73.5v55q0 45 -15.5 69t-53.5 32t-112 8h-102v-285zM1167 0v991h299v-991h-299z" />
<glyph unicode="&#x44c;" horiz-adv-x="1124" d="M131 0v991h299v-332h115q207 0 308 -22.5t139 -79.5t38 -176v-117q0 -141 -116.5 -202.5t-362.5 -61.5h-420zM426 186h111q82 0 120.5 11.5t51 36t12.5 73.5v55q0 45 -15.5 69t-53.5 32t-111 8h-115v-285z" />
<glyph unicode="&#x44d;" horiz-adv-x="1007" d="M57 14v197q113 -25 185.5 -35t148.5 -10q117 0 164 42t47 122v82h-405v186h405v59q0 94 -46 132t-159 38q-74 0 -140.5 -10t-184.5 -39v197q186 37 385 37q145 0 236 -19.5t151.5 -98.5t60.5 -243v-329q0 -154 -75.5 -230t-179 -94t-244.5 -18q-99 0 -177.5 8t-171.5 26z " />
<glyph unicode="&#x44e;" horiz-adv-x="1714" d="M131 0v991h299v-381h195v23q0 172 74.5 255t176 103.5t242.5 20.5q150 0 255.5 -27t172 -109.5t66.5 -242.5v-293q0 -164 -74 -243t-175 -98t-245 -19q-151 0 -256.5 25.5t-171 104t-65.5 230.5v74h-195v-414h-299zM924 305q0 -80 40 -109.5t154 -29.5q115 0 155 29.5 t40 109.5v375q0 82 -41 114.5t-154 32.5t-153.5 -32.5t-40.5 -114.5v-375z" />
<glyph unicode="&#x44f;" horiz-adv-x="1200" d="M41 0l299 379q-117 12 -170 69.5t-53 172.5v106q0 145 95 204.5t318 59.5h539v-991h-299v356h-115l-258 -356h-356zM416 635q0 -59 45 -74.5t129 -15.5h180v260h-158q-106 0 -151 -21.5t-45 -76.5v-72z" />
<glyph unicode="&#x450;" horiz-adv-x="1144" d="M102 301v356q0 186 120 270.5t370 84.5q236 0 345.5 -81t109.5 -274v-241h-644v-90q0 -86 61.5 -123t221.5 -37q147 0 332 43v-191q-182 -39 -389 -38q-527 -1 -527 321zM211 1393h326l184 -260h-254zM403 586h359v143q0 49 -40 73.5t-134 24.5q-109 0 -146 -24 q-39 -27 -39 -74v-143z" />
<glyph unicode="&#x451;" horiz-adv-x="1144" d="M102 301v356q0 186 120 270.5t370 84.5q236 0 345.5 -81t109.5 -274v-241h-644v-90q0 -86 61.5 -123t221.5 -37q147 0 332 43v-191q-182 -39 -389 -38q-527 -1 -527 321zM270 1157v242h258v-242h-258zM403 586h359v143q0 49 -40 73.5t-134 24.5q-109 0 -146 -24 q-39 -27 -39 -74v-143zM659 1157v242h258v-242h-258z" />
<glyph unicode="&#x452;" horiz-adv-x="1294" d="M0 1034v185h207v215h299v-215h375v-185h-375v-278q20 55 85.5 88t172.5 33q233 0 335.5 -122t102.5 -356q0 -217 -22.5 -348t-122 -244.5t-314.5 -183.5l-61 144q106 66 155.5 143.5t62.5 181t13 295.5q0 168 -45 237.5t-172 69.5q-84 0 -130 -19.5t-60 -64.5v-610h-299 v1034h-207z" />
<glyph unicode="&#x453;" horiz-adv-x="894" d="M131 0v991h723v-196h-424v-795h-299zM389 1133l185 260h325l-256 -260h-254z" />
<glyph unicode="&#x454;" horiz-adv-x="1007" d="M102 322v329q0 209 123 285t342 76q113 0 173.5 -6.5t195.5 -30.5v-197q-211 49 -324 49q-207 0 -206 -139v-88h405v-190h-405v-86q0 -158 227 -158q111 0 317 45v-197q-186 -35 -336 -34q-161 0 -267.5 21.5t-175.5 96t-69 224.5z" />
<glyph unicode="&#x455;" horiz-adv-x="1075" d="M90 653v121q0 129 123 183.5t371 54.5q98 0 352 -19v-190q-319 25 -361 24q-121 0 -157 -16q-33 -18 -33 -68v-53q0 -27 26.5 -46t77.5 -19h132q365 0 364 -238v-125q0 -72 -26.5 -125t-69.5 -84q-41 -29 -105.5 -45t-134.5 -22q-63 -6 -147 -6q-160 -1 -391 30v199 q285 -43 395 -43q94 0 139 18.5t45 67.5v61q0 51 -28.5 73t-112.5 22h-129q-158 0 -244 62t-86 183z" />
<glyph unicode="&#x456;" horiz-adv-x="577" d="M139 0v991h299v-991h-299zM139 1108v242h299v-242h-299z" />
<glyph unicode="&#x457;" horiz-adv-x="577" d="M-35 1157v242h258v-242h-258zM139 0v991h299v-991h-299zM354 1157v242h258v-242h-258z" />
<glyph unicode="&#x458;" horiz-adv-x="561" d="M-78 -252q8 -2 37 -2q78 0 112.5 11.5t47 46t12.5 114.5v1073h299v-1141q0 -170 -99.5 -235.5t-312.5 -65.5l-96 5v194zM131 1108v242h299v-242h-299z" />
<glyph unicode="&#x459;" horiz-adv-x="1812" d="M70 -4v221q25 -4 51 -4q76 0 123 47t72.5 184.5t25.5 397.5v149h776v-332h115q207 0 308 -22.5t139 -79.5t38 -176v-117q0 -141 -116.5 -202.5t-362.5 -61.5h-420v801h-227v-25q0 -317 -55.5 -491t-145.5 -237.5t-215 -63.5q-45 0 -106 12zM1114 186h111q82 0 120.5 11.5 t51 36t12.5 73.5v55q0 45 -15.5 69t-53 32t-111.5 8h-115v-285z" />
<glyph unicode="&#x45a;" horiz-adv-x="1798" d="M131 0v991h299v-381h375v381h299v-332h115q207 0 308 -22.5t139 -79.5t38 -176v-117q0 -141 -117 -202.5t-362 -61.5h-420v414h-375v-414h-299zM1100 186h110q82 0 121 11.5t51.5 36t12.5 73.5v55q0 45 -15.5 69t-53.5 32t-112 8h-114v-285z" />
<glyph unicode="&#x45b;" horiz-adv-x="1294" d="M0 1034v185h207v215h299v-215h375v-185h-375v-266q29 141 313 141q190 0 267 -68.5t77 -215.5v-625h-299v590q0 57 -11 84.5t-44 39t-104 11.5q-88 0 -129 -10t-55.5 -38t-14.5 -87v-590h-299v1034h-207z" />
<glyph unicode="&#x45c;" horiz-adv-x="1153" d="M131 0v991h299v-401q33 0 53.5 9t40.5 34l287 358h311l-397 -459q84 -39 164 -153l264 -379h-344l-219 324q-37 53 -70 67.5t-90 14.5v-406h-299zM465 1133l185 260h325l-256 -260h-254z" />
<glyph unicode="&#x45d;" horiz-adv-x="1251" d="M131 0v991h299v-647l391 647h299v-991h-299v666l-391 -666h-299zM243 1393h326l184 -260h-254z" />
<glyph unicode="&#x45e;" horiz-adv-x="1093" d="M16 991h326l223 -700l203 700h309l-542 -1417h-304l181 434zM213 1413h211q6 -82 40.5 -121t102.5 -39q70 0 103.5 38t39.5 122h211q4 -135 -93 -218t-261 -83t-260 82t-94 219z" />
<glyph unicode="&#x45f;" horiz-adv-x="1222" d="M131 0v991h299v-801h363v801h299v-991h-355v-295h-245v295h-361z" />
<glyph unicode="&#x462;" horiz-adv-x="1521" d="M41 942v227h358v181h320v-181h418v-227h-418v-145h160q197 0 312.5 -17.5t182 -78t66.5 -181.5v-205q0 -315 -537 -315h-504v942h-358zM717 227h172q121 0 176 34t55 104v96q0 63 -53 85.5t-174 22.5h-176v-342z" />
<glyph unicode="&#x463;" horiz-adv-x="1327" d="M41 795v196h293v443h299v-443h360v-196h-360v-150h115q207 0 308 -22.5t139 -80t38 -175.5v-103q0 -141 -117 -202.5t-362 -61.5h-420v795h-293zM629 186h110q82 0 121 11.5t51.5 36t12.5 73.5v41q0 45 -15.5 68.5t-53.5 32t-112 8.5h-114v-271z" />
<glyph unicode="&#x46a;" horiz-adv-x="2004" d="M10 0l236 434q82 150 180 237t258 87h12l-452 571h1511l-452 -571h16q160 0 259 -87t181 -237l236 -434h-355l-217 391q-43 76 -74.5 114t-74.5 55.5t-115 17.5v-578h-313v578q-72 0 -115 -17.5t-74.5 -55.5t-74.5 -114l-217 -391h-355zM715 1122l282 -364h4l283 364 h-569z" />
<glyph unicode="&#x46b;" horiz-adv-x="1673" d="M10 0l238 379q45 76 126 133t189 61l-330 418h1207l-330 -418q109 -6 187.5 -63t125.5 -131l238 -379h-332l-194 324q-33 57 -65 73.5t-91 16.5v-414h-287v414q-59 0 -91 -16.5t-64 -73.5l-195 -324h-332zM643 817l195 -244l192 244h-387z" />
<glyph unicode="&#x472;" horiz-adv-x="1490" d="M115 365v581q0 98 44 176t113 123q61 39 151.5 65.5t168.5 32.5q72 6 151 7q94 0 164 -7.5t156 -29.5q98 -29 161.5 -70t106.5 -115q45 -76 45 -182v-581q0 -111 -58 -191t-161 -121q-184 -74 -414 -73q-111 0 -204 14t-193 49q-109 37 -170 120t-61 202zM434 365 q0 -51 26.5 -85t78.5 -49q49 -14 95 -19t114 -5t113.5 5t94.5 19q50 15 75.5 48.5t25.5 85.5v204h-623v-204zM434 797h623v151q0 94 -76 134t-236 40q-159 0 -235 -39t-76 -135v-151z" />
<glyph unicode="&#x473;" horiz-adv-x="1212" d="M102 340v293q0 98 31 172t80 115q43 35 113.5 58t138.5 30q78 4 141 4q94 0 150.5 -5.5t124.5 -25.5q74 -23 120 -61.5t78 -110.5q31 -74 31 -176v-293q0 -92 -29.5 -161.5t-76.5 -108.5q-41 -35 -112 -56.5t-138 -27.5q-61 -6 -148 -6q-92 0 -151.5 6t-126.5 24 q-74 20 -119 58t-76 108q-31 68 -31 164zM401 305q0 -55 17.5 -83.5t60.5 -42t127 -13.5t127 13.5t60.5 42t17.5 83.5v109h-410v-109zM401 608h410v72q0 82 -43 114.5t-162 32.5t-162 -32.5t-43 -114.5v-72z" />
<glyph unicode="&#x474;" horiz-adv-x="1511" d="M0 1329h324l352 -1063h8l195 594q66 201 124 305.5t128.5 144.5t177.5 40q82 0 202 -54l-51 -215q-72 14 -98 15q-43 0 -71.5 -20.5t-60.5 -82t-77 -188.5l-289 -805h-391z" />
<glyph unicode="&#x475;" horiz-adv-x="1198" d="M0 991h317l218 -686l116 379q57 188 135 258t199 70q92 0 213 -47l-37 -195q-72 12 -104 12q-47 0 -79 -30.5t-65 -116.5l-233 -635h-303z" />
<glyph unicode="&#x48a;" horiz-adv-x="1538" d="M143 0v1329h306v-928l602 928h344v-1102h131l-205 -567h-289l123 340h-65v942l-603 -942h-344zM485 1731h166q12 -61 38 -87t79 -26q102 0 115 113h168q-8 -119 -84 -190t-199 -71q-125 0 -200.5 71t-82.5 190z" />
<glyph unicode="&#x48b;" horiz-adv-x="1316" d="M131 0v991h277v-698l436 698h342v-764h131l-205 -501h-289l111 274h-25v717l-436 -717h-342zM375 1393h166q12 -61 37.5 -87t78.5 -26q102 0 115 113h168q-8 -119 -84 -189.5t-199 -70.5q-125 0 -200.5 70.5t-81.5 189.5z" />
<glyph unicode="&#x48c;" horiz-adv-x="1366" d="M20 973v207h123v149h320v-149h205v-207h-205v-146h237q94 0 125 -2q47 0 117 -6q57 -2 109 -14q121 -31 161 -82q61 -70 62 -174v-234q0 -315 -537 -315h-594v973h-123zM463 227h260q121 0 176 34t55 104v124q0 64 -53 86.5t-174 22.5h-264v-371z" />
<glyph unicode="&#x48d;" horiz-adv-x="1191" d="M20 973v207h111v254h299v-254h238v-207h-238v-324h188q299 0 396 -53q96 -53 96 -225v-107q0 -141 -120 -202.5t-365 -61.5h-494v973h-111zM430 186h180q123 0 156 25q35 29 35 96v45q0 66 -39 87.5t-148 21.5h-184v-275z" />
<glyph unicode="&#x48e;" horiz-adv-x="1284" d="M143 0v1329h533q285 0 403 -63q123 -61 123 -242v-252q0 -184 -119 -260l138 -137l-95 -94l-178 176q-106 -25 -309 -25h-176v-432h-320zM463 651h203q53 0 86 4l-97 97l97 96l127 -129q14 20 14 63v213q0 43 -20.5 65.5t-69.5 32t-141 9.5h-199v-451z" />
<glyph unicode="&#x48f;" horiz-adv-x="1247" d="M131 -426v1417h283v-98q27 66 104.5 92.5t231.5 26.5q129 0 207.5 -20.5t119.5 -67.5q39 -43 53.5 -97.5t14.5 -148.5v-326q0 -227 -117 -311l102 -102l-94 -95l-147 148q-70 -12 -162 -12q-147 0 -212.5 24.5t-84.5 95.5v-526h-299zM430 313q0 -88 37 -118 q39 -29 168 -29q61 0 76 2l-146 147l97 97l174 -176q10 31 10 77v367q0 96 -37 121q-33 27 -176 26q-127 0 -166 -32q-37 -33 -37 -115v-367z" />
<glyph unicode="&#x490;" horiz-adv-x="1071" d="M143 0v1329h637v285h250v-512h-567v-1102h-320z" />
<glyph unicode="&#x491;" horiz-adv-x="888" d="M131 0v991h479v246h238v-442h-418v-795h-299z" />
<glyph unicode="&#x492;" horiz-adv-x="1146" d="M41 549v227h178v553h887v-227h-567v-326h372v-227h-372v-549h-320v549h-178z" />
<glyph unicode="&#x493;" horiz-adv-x="956" d="M41 391v197h152v403h722v-196h-423v-207h251v-197h-251v-391h-299v391h-152z" />
<glyph unicode="&#x494;" horiz-adv-x="1329" d="M143 0v1329h887v-227h-567v-293q178 51 328 51q219 0 337.5 -126t118.5 -388q0 -195 -66.5 -335t-181 -212.5t-254.5 -72.5q-86 0 -153 20v234q86 -20 125 -21q113 0 167 93t54 263q0 154 -68.5 228.5t-195.5 74.5q-94 0 -211 -36v-582h-320z" />
<glyph unicode="&#x495;" horiz-adv-x="1181" d="M131 0v991h731v-196h-432v-236q33 41 92.5 62.5t139.5 21.5q210 0 324 -111.5t114 -316.5q0 -500 -508 -674l-62 144q121 51 180.5 116.5t80 157.5t20.5 244q0 139 -50 202.5t-167 63.5q-53 0 -95 -15.5t-69 -41.5v-412h-299z" />
<glyph unicode="&#x496;" horiz-adv-x="2121" d="M20 0l236 434q66 121 134.5 184.5t170.5 88.5v4q-80 31 -127 77t-108 142l-254 399h354l219 -360q61 -100 103.5 -135t107.5 -35v530h313v-530q66 0 108 34.5t103 135.5l219 360h355l-254 -399q-61 -96 -108.5 -142.5t-127.5 -76.5v-4q102 -25 171 -88.5t134 -184.5 l113 -207h195v-536h-287v309h-139l-217 391q-47 86 -78 124t-72 53.5t-115 15.5v-584h-313v584q-74 0 -115 -15.5t-71.5 -53.5t-77.5 -124l-217 -391h-355z" />
<glyph unicode="&#x497;" horiz-adv-x="1740" d="M10 0l238 379q74 119 155 158l-329 454h299l227 -352q20 -31 39.5 -43t52.5 -12v407h287v-407q33 0 52.5 12t39.5 43l227 352h299l-329 -454q82 -39 155 -158l115 -182h154v-471h-246v274h-117l-194 324q-33 57 -65 73.5t-91 16.5v-414h-287v414q-59 0 -91 -16.5 t-64 -73.5l-195 -324h-332z" />
<glyph unicode="&#x498;" horiz-adv-x="1167" d="M61 25v241q143 -33 235.5 -46t201.5 -13q156 0 215 31.5t59 101.5v129q0 63 -62.5 81.5t-197.5 18.5h-264v228h264q90 0 135 12t61.5 35.5t16.5 68.5v105q0 63 -49 83.5t-178 20.5q-170 0 -410 -59v240q250 47 469 47q258 0 372.5 -58.5t114.5 -201.5v-213 q0 -59 -40.5 -103.5t-98.5 -58.5v-6q187 -54 187 -199v-215q0 -289 -461 -313q47 -72 71.5 -128.5t24.5 -109.5q0 -102 -58.5 -148.5t-181.5 -46.5q-55 0 -87.5 6.5t-59.5 18.5v160q41 -14 72 -15q51 0 72.5 19.5t21.5 60.5q0 78 -76 183q-190 6 -369 43z" />
<glyph unicode="&#x499;" horiz-adv-x="1024" d="M57 14v197q121 -27 197 -36t149 -9q96 0 145.5 8t70 31.5t20.5 68.5v41q0 59 -46 81t-165 22h-201v186h201q94 0 126 24.5t32 80.5v18q0 41 -13.5 61.5t-51.5 29.5t-118 9q-76 0 -142 -11t-177 -38v197q201 37 385 37q172 0 260 -20.5t122 -69t34 -140.5v-86 q0 -61 -35 -102t-92 -55v-11q86 -18 133 -68t47 -116v-84q0 -137 -88 -200.5t-283 -75.5q80 -121 80 -209q0 -96 -55 -140.5t-170 -44.5q-96 0 -139 25v152q35 -14 67 -15q49 0 70.5 18.5t21.5 55.5q0 68 -57 154q-152 4 -328 34z" />
<glyph unicode="&#x49a;" horiz-adv-x="1456" d="M143 0v1329h320v-524q90 0 145.5 33.5t120.5 130.5l250 360h358l-286 -399q-66 -92 -120 -140.5t-134 -78.5v-4q102 -25 170.5 -88.5t134.5 -184.5l112 -207h197v-536h-287v309h-145l-217 391q-43 78 -83 118t-89 54.5t-127 14.5v-578h-320z" />
<glyph unicode="&#x49b;" horiz-adv-x="1218" d="M131 0v991h299v-401q33 0 53.5 9t40.5 34l287 358h311l-397 -459q84 -39 164 -153l127 -182h153v-471h-245v274h-115l-219 324q-37 53 -70 67.5t-90 14.5v-406h-299z" />
<glyph unicode="&#x49c;" horiz-adv-x="1443" d="M143 0v1329h320v-524q72 0 102 2v283h189v-216q27 25 77 95l250 360h359l-287 -399q-66 -92 -120 -140.5t-134 -78.5v-4q102 -25 171 -88.5t134 -184.5l236 -434h-359l-217 391q-57 102 -110 139v-235h-189v280q-31 2 -102 3v-578h-320z" />
<glyph unicode="&#x49d;" horiz-adv-x="1275" d="M131 0v991h299v-401h94v246h170v-191l240 346h311l-362 -452q84 -39 159 -160l234 -379h-344l-195 334q-18 29 -43 43v-217h-170v246h-94v-406h-299z" />
<glyph unicode="&#x49e;" horiz-adv-x="1366" d="M39 965v178h104v186h314v-186h123v-178h-123v-166q76 0 108.5 14t61.5 61l141 234q86 141 156 180q72 41 239 41h146v-227h-84q-102 0 -131 -17q-33 -18 -76 -90l-82 -133q-37 -59 -68.5 -88t-81.5 -47q53 -12 136.5 -91t164.5 -202l291 -434h-370l-254 391 q-80 123 -138 154q-53 33 -159 33v-578h-314v965h-104z" />
<glyph unicode="&#x49f;" horiz-adv-x="1134" d="M39 702v172h92v117h299v-117h88v-172h-88v-108q45 0 63.5 8t36.5 43l97 158q82 137 131 164q47 25 231 24h98v-184h-32q-76 0 -112 -15.5t-69 -62.5l-57 -82q-51 -76 -100 -102q98 -39 196 -178l261 -367h-345l-188 276q-63 92 -98 113q-39 23 -113 23v-412h-299v702h-92 z" />
<glyph unicode="&#x4a0;" horiz-adv-x="1646" d="M41 1102v227h727v-524q90 0 145.5 33.5t120.5 130.5l250 360h358l-286 -399q-66 -92 -120 -140.5t-134 -78.5v-4q102 -25 170.5 -88.5t134.5 -184.5l235 -434h-358l-217 391q-43 78 -83 118t-89 54.5t-127 14.5v-578h-319v1102h-408z" />
<glyph unicode="&#x4a1;" horiz-adv-x="1390" d="M41 795v196h627v-401q33 0 53 9t41 34l287 358h311l-397 -459q84 -39 163 -153l265 -379h-344l-220 324q-37 53 -69.5 67.5t-89.5 14.5v-406h-299v795h-328z" />
<glyph unicode="&#x4a2;" horiz-adv-x="1589" d="M143 0v1329h320v-532h565v532h320v-1102h196v-536h-287v309h-229v569h-565v-569h-320z" />
<glyph unicode="&#x4a3;" horiz-adv-x="1306" d="M131 0v991h299v-381h375v381h299v-794h153v-471h-245v274h-207v414h-375v-414h-299z" />
<glyph unicode="&#x4a4;" horiz-adv-x="1955" d="M143 0v1329h320v-532h565v532h887v-227h-567v-1102h-320v569h-565v-569h-320z" />
<glyph unicode="&#x4a5;" horiz-adv-x="1568" d="M131 0v991h299v-381h375v381h723v-196h-424v-795h-299v414h-375v-414h-299z" />
<glyph unicode="&#x4a6;" horiz-adv-x="2260" d="M143 0v1329h1192v-573q82 51 252 51q283 0 445 -160q164 -158 163 -426q0 -326 -167.5 -499t-466.5 -173q-199 0 -342 91q-139 88 -162 233h235q25 -51 95.5 -83t166.5 -32q332 0 332 437q0 180 -100 281.5t-273 101.5q-100 0 -178 -41v-537h-319v1102h-553v-1102h-320z " />
<glyph unicode="&#x4a7;" horiz-adv-x="1878" d="M131 0v991h987v-428q70 41 195 41q483 0 483 -504q0 -262 -145 -407q-143 -143 -379 -144q-193 0 -310.5 89.5t-134.5 242.5h250q25 -72 68 -102.5t127 -30.5q102 0 162.5 91t60.5 245q0 162 -64.5 243t-203.5 81q-61 0 -109 -35v-373h-299v807h-389v-807h-299z" />
<glyph unicode="&#x4a8;" horiz-adv-x="1433" d="M78 674q0 297 192 487q193 193 498 193q221 0 408 -148l-164 -164q-119 113 -248 113q-168 0 -267.5 -129t-99.5 -350q0 -209 84 -340h-2q94 -133 246 -156q-74 158 -74 346q0 225 91.5 336t287.5 111q356 0 356 -436q0 -289 -233 -449q123 -51 233 -51v-221 q-333 21 -505 168q-45 -4 -117 -4q-317 0 -502 190q-184 195 -184 504zM926 526q0 -170 59 -284q133 90 133 293q0 239 -88 239q-104 0 -104 -248z" />
<glyph unicode="&#x4a9;" horiz-adv-x="1003" d="M53 496q0 238 124 378t347 140q156 0 307 -109l-167 -139q-74 68 -132 68q-213 0 -213 -332q0 -129 51.5 -226.5t127.5 -121.5q-86 147 -86 292q0 125 66.5 197t187.5 72q281 0 280 -279q0 -209 -119 -340q57 -41 119 -69v-215q-258 108 -334 178q-37 -4 -88 -4 q-221 0 -346 137t-125 373zM623 399q0 -76 49 -209q45 111 45 207q0 142 -51 142q-43 0 -43 -140z" />
<glyph unicode="&#x4aa;" horiz-adv-x="1222" d="M115 365v583q0 401 616 402q158 0 422 -45v-240q-238 57 -418 57q-76 0 -118 -4t-87 -20q-96 -33 -96 -146v-565q0 -180 330 -180q141 0 397 59v-241q-195 -39 -387 -45q47 -72 71.5 -127.5t24.5 -108.5q0 -102 -58 -148.5t-181 -46.5q-55 0 -88 6.5t-60 18.5v160 q41 -14 72 -15q51 0 72.5 19.5t21.5 60.5q0 78 -80 189q-90 12 -153 30q-94 25 -155.5 65t-102.5 112q-43 72 -43 170z" />
<glyph unicode="&#x4ab;" horiz-adv-x="987" d="M102 322v329q0 135 62 226q23 33 66.5 60.5t88.5 43.5q37 12 98.5 20.5t108.5 10.5h109q115 0 301 -37v-197q-211 49 -324 49q-207 0 -206 -139v-364q0 -158 227 -158q111 0 317 45v-197q-166 -33 -299 -34q78 -119 78 -205q0 -96 -55.5 -140.5t-169.5 -44.5 q-96 0 -139 25v152q35 -14 67 -15q49 0 70.5 18.5t21.5 55.5q0 72 -61 158l-82 10q-66 8 -108 28.5t-87 61.5q-84 70 -84 238z" />
<glyph unicode="&#x4ac;" horiz-adv-x="1218" d="M41 1102v227h1137v-227h-408v-875h129v-567h-289v340h-159v1102h-410z" />
<glyph unicode="&#x4ad;" horiz-adv-x="1034" d="M61 807v184h912v-184h-305v-621h131v-460h-264v274h-166v807h-308z" />
<glyph unicode="&#x4ae;" horiz-adv-x="1318" d="M16 1329h363l283 -520l276 520h365l-484 -792v-537h-319v532z" />
<glyph unicode="&#x4af;" horiz-adv-x="1044" d="M0 991h317l218 -686l208 686h301l-366 -991v-426h-299v426z" />
<glyph unicode="&#x4b0;" horiz-adv-x="1318" d="M16 1329h363l283 -520l276 520h365l-297 -485h192v-228h-330l-49 -79v-537h-319v532l-51 84h-328v228h188z" />
<glyph unicode="&#x4b1;" horiz-adv-x="1044" d="M0 991h317l218 -686l208 686h301l-299 -807h238v-184h-305v-426h-299v426h-318v184h246z" />
<glyph unicode="&#x4b2;" horiz-adv-x="1386" d="M20 0l490 678l-469 651h369l284 -442l283 442h369l-469 -651l325 -451h205v-567h-289v340h-121l-303 471l-305 -471h-369z" />
<glyph unicode="&#x4b3;" horiz-adv-x="1163" d="M20 0l390 508l-369 483h346l195 -284l196 284h346l-370 -483l247 -322h162v-460h-264v274h-100l-217 311l-215 -311h-347z" />
<glyph unicode="&#x4b4;" horiz-adv-x="1757" d="M41 1102v227h1055v-227h-367v-875h504v1102h319v-1102h197v-536h-287v309h-1052v1102h-369z" />
<glyph unicode="&#x4b5;" horiz-adv-x="1423" d="M61 807v184h809v-184h-243v-617h366v801h299v-794h154v-471h-246v274h-872v807h-267z" />
<glyph unicode="&#x4b6;" horiz-adv-x="1468" d="M117 799v530h315v-506q0 -98 48 -132t126 -34q86 0 168 27t133 68v577h320v-1102h196v-536h-286v309h-230v508q-164 -92 -391 -92q-168 0 -283.5 87t-115.5 296z" />
<glyph unicode="&#x4b7;" horiz-adv-x="1218" d="M94 596v395h291v-350q0 -61 8 -94t38 -49.5t93 -16.5q88 0 129 17.5t52.5 50.5t11.5 98v344h299v-794h153v-471h-245v274h-207v438q-41 -143 -303 -143q-176 0 -248 74.5t-72 226.5z" />
<glyph unicode="&#x4b8;" horiz-adv-x="1402" d="M117 809v520h315v-495q0 -90 43 -126t111 -40v268h188v-248q115 31 166 74v567h320v-1329h-320v518q-66 -37 -166 -61v-234h-188v205q-23 -2 -70 -2q-168 0 -283.5 87t-115.5 296z" />
<glyph unicode="&#x4b9;" horiz-adv-x="1218" d="M94 616v375h291v-329q0 -66 25.5 -104t85.5 -50v289h170v-287q70 12 96 50t26 108v323h299v-991h-299v459q-25 -74 -122 -113v-225h-170v194h-41q-193 0 -277 76t-84 225z" />
<glyph unicode="&#x4ba;" horiz-adv-x="1339" d="M113 0v1329h319v-508q164 92 391 92q168 0 284 -87t116 -296v-530h-316v506q0 98 -48 132t-126 34q-86 0 -168 -27t-133 -67v-578h-319z" />
<glyph unicode="&#x4bb;" horiz-adv-x="1218" d="M131 0v1434h299v-564q29 141 313 142q190 0 267 -69t77 -216v-727h-299v692q0 57 -11 85t-44 39t-104 11q-88 0 -129 -10t-55.5 -37.5t-14.5 -87.5v-692h-299z" />
<glyph unicode="&#x4bc;" horiz-adv-x="1751" d="M-25 889q0 59 19 133l217 -33q-12 -39 -12 -80q0 -55 27.5 -78.5t92.5 -23.5h56v139q0 98 44 176t111 123q68 41 158 66q84 25 153.5 32t162.5 7q94 0 164.5 -7.5t154.5 -31.5q305 -76 313 -365v-358h-942v-160q0 -109 106.5 -165t305.5 -56q223 0 479 59v-241 q-219 -45 -512 -45q-133 0 -230.5 11t-187.5 40q-281 90 -280 375v188h-101q-164 0 -231.5 67.5t-67.5 227.5zM694 797h623v151q0 94 -76 134t-235 40q-160 0 -236 -39t-76 -135v-151z" />
<glyph unicode="&#x4bd;" horiz-adv-x="1337" d="M-23 668q0 59 19 133l197 -33q-12 -39 -13 -80q0 -53 26.5 -77.5t88.5 -24.5v71q0 186 120 270.5t369 84.5q236 0 345.5 -81t109.5 -274v-241h-643v-90q0 -86 61.5 -123t221.5 -37q147 0 331 43v-191q-182 -39 -389 -38q-526 0 -526 321v115h-39q-129 0 -204 69.5 t-75 182.5zM596 586h358v143q0 49 -40 73.5t-134 24.5q-104 0 -144 -23.5t-40 -74.5v-143z" />
<glyph unicode="&#x4be;" horiz-adv-x="1751" d="M-25 889q0 59 19 133l217 -33q-12 -39 -12 -80q0 -55 27.5 -78.5t92.5 -23.5h56v139q0 98 44 176t111 123q68 41 158 66q84 25 153.5 32t162.5 7q94 0 164.5 -7.5t154.5 -31.5q305 -76 313 -365v-358h-942v-160q0 -109 106.5 -165t305.5 -56q223 0 479 59v-241l-98 -19 q-43 -86 -43 -176q0 -33 17.5 -49.5t60.5 -16.5q25 0 61 13v-137q-41 -20 -143 -21q-102 0 -152.5 39t-50.5 125q0 96 66 205q-133 -8 -230 -8q-133 0 -230.5 11t-187.5 40q-281 90 -280 375v188h-101q-164 0 -231.5 67.5t-67.5 227.5zM694 797h623v151q0 94 -76 134 t-235 40q-160 0 -236 -39t-76 -135v-151z" />
<glyph unicode="&#x4bf;" horiz-adv-x="1337" d="M-23 668q0 59 19 133l197 -33q-12 -39 -13 -80q0 -53 26.5 -77.5t88.5 -24.5v71q0 186 120 270.5t369 84.5q236 0 345.5 -81t109.5 -274v-241h-643v-90q0 -86 61.5 -123t221.5 -37q147 0 331 43v-191q-63 -14 -104 -20q-37 -84 -37 -168q0 -33 17.5 -49.5t60.5 -16.5 q25 0 61 13v-137q-41 -20 -143 -21q-104 0 -153.5 39t-49.5 125q0 94 62 199q-20 -2 -103 -2q-526 0 -526 321v115h-39q-129 0 -204 69.5t-75 182.5zM596 586h358v143q0 49 -40 73.5t-134 24.5q-104 0 -144 -23.5t-40 -74.5v-143z" />
<glyph unicode="&#x4c0;" horiz-adv-x="606" d="M143 0v1329h320v-1329h-320z" />
<glyph unicode="&#x4c1;" horiz-adv-x="2078" d="M-12 0l291 434q82 123 164.5 202t136.5 91q-49 18 -81 47t-69 88l-82 133q-35 55 -54.5 75t-49 26t-103.5 6h-84v227h146q117 0 179 -16.5t109.5 -61.5t106.5 -143l141 -234q23 -37 38.5 -51t39 -19t72.5 -5v530h301v-530q49 0 72.5 5t39 19.5t37.5 50.5l142 234 q59 98 106 143t109.5 61.5t179.5 16.5h145v-227h-84q-74 0 -103.5 -6t-49 -25.5t-53.5 -75.5l-82 -133q-37 -59 -69 -88t-81 -47q53 -12 136 -91t165 -202l291 -434h-371l-254 391q-55 88 -91 126t-74.5 49.5t-110.5 11.5v-578h-301v578q-72 0 -111 -11.5t-74.5 -49.5 t-91.5 -126l-254 -391h-370zM756 1731h166q12 -61 37.5 -87t78.5 -26q102 0 115 113h168q-8 -119 -84 -190t-199 -71q-125 0 -200.5 71t-81.5 190z" />
<glyph unicode="&#x4c2;" horiz-adv-x="1654" d="M-39 0l260 367q98 139 197 178q-49 27 -101 102l-57 82q-33 47 -68.5 62.5t-111.5 15.5h-33v184h98q135 0 185.5 -9t83 -43t94.5 -136l96 -158q20 -33 35.5 -42t46.5 -9v397h285v-397q33 0 47 8t33 43l96 158q61 102 94 136t83 43t185 9h99v-184h-33q-76 0 -112 -15.5 t-68 -62.5l-58 -82q-51 -76 -100 -102q98 -39 197 -178l260 -367h-344l-189 276q-49 72 -70.5 96.5t-45 32t-74.5 7.5v-412h-285v412q-51 0 -74.5 -8.5t-46 -33t-71.5 -94.5l-189 -276h-344zM545 1393h166q12 -61 37.5 -87t78.5 -26q102 0 115 113h168q-8 -119 -84 -189.5 t-199 -70.5q-125 0 -200.5 70.5t-81.5 189.5z" />
<glyph unicode="&#x4c3;" horiz-adv-x="1388" d="M143 0v1329h314v-530q76 0 108.5 14t61.5 61l141 234q86 141 156 180q72 41 239 41h146v-227h-84q-102 0 -131 -17q-33 -18 -76 -90l-82 -133q-26 -43 -55 -76q201 -45 321 -188q121 -143 121 -338q0 -350 -163 -530.5t-472 -180.5q-199 0 -342 91q-139 88 -162 233h236 q25 -51 95.5 -83t166.5 -32q154 0 243 115t89 342q0 180 -90 271.5t-262 91.5h-205v-578h-314z" />
<glyph unicode="&#x4c4;" horiz-adv-x="1134" d="M131 0v991h299v-397q45 0 63.5 8t36.5 43l97 158q82 137 131 164q47 25 231 24h98v-184h-32q-76 0 -112 -15.5t-69 -62.5l-57 -82q-24 -36 -53 -65q172 -47 258 -173t86 -309q0 -262 -145 -407q-143 -143 -379 -144q-193 0 -310.5 89.5t-134.5 242.5h250 q25 -72 68 -102.5t127 -30.5q102 0 162.5 91t60.5 245q0 162 -64.5 243t-203.5 81h-109v-408h-299z" />
<glyph unicode="&#x4c5;" horiz-adv-x="1558" d="M41 -4v209q41 -10 106 -10q125 0 125 135v999h1143v-1102h131l-205 -567h-288l123 340h-80v1102h-504v-813q0 -76 -20.5 -134.5t-55.5 -93.5q-31 -31 -86 -49q-51 -16 -99 -21t-124 -5q-109 0 -166 10z" />
<glyph unicode="&#x4c6;" horiz-adv-x="1251" d="M25 -4v182q41 -10 65 -10q57 0 81 37t24 135v651h925v-764h131l-204 -501h-289l110 274h-45v807h-329v-518q0 -152 -62 -228q-45 -45 -111.5 -60t-170.5 -15q-68 0 -125 10z" />
<glyph unicode="&#x4c7;" horiz-adv-x="1490" d="M131 -145h320q37 -47 82 -69t155 -26q186 0 262 113q78 113 78 385v311h-565v-569h-320v1329h320v-532h565v532h320v-1083q0 -166 -33 -293t-92 -205q-53 -74 -144 -121q-84 -43 -173 -60.5t-212 -17.5q-492 0 -563 306z" />
<glyph unicode="&#x4c8;" horiz-adv-x="1263" d="M131 0v991h299v-383h404v383h299v-909q0 -297 -136 -414q-131 -119 -385 -119q-401 0 -460 306h278q14 -39 63.5 -67t112.5 -28q135 0 180 64q47 63 48 270v320h-404v-414h-299z" />
<glyph unicode="&#x4c9;" horiz-adv-x="1490" d="M143 0v1329h320v-532h565v532h320l2 -1102h131l-205 -567h-289l123 340h-82v569h-565v-569h-320z" />
<glyph unicode="&#x4ca;" horiz-adv-x="1263" d="M131 0v991h299v-383h404v383h299l2 -764h131l-205 -501h-289l111 274h-49v414h-404v-414h-299z" />
<glyph unicode="&#x4cb;" horiz-adv-x="1370" d="M117 799v530h315v-506q0 -98 48 -132t126 -34q86 0 168 27t133 68v577h320v-1329h-230v-309h-286v536h196v281q-164 -92 -391 -92q-168 0 -283.5 87t-115.5 296z" />
<glyph unicode="&#x4cc;" horiz-adv-x="1146" d="M94 596v395h291v-350q0 -61 8 -94t38 -49.5t93 -16.5q88 0 129 17.5t52.5 50.5t11.5 98v344h299v-991h-207v-274h-246v471h154v241q-41 -143 -303 -143q-176 0 -248 74.5t-72 226.5z" />
<glyph unicode="&#x4cd;" horiz-adv-x="1820" d="M143 0v1329h455l328 -950l323 950h428v-1102h131l-204 -567h-289l123 340h-49v983h-7l-335 -983h-256l-347 983h-8v-983h-293z" />
<glyph unicode="&#x4ce;" horiz-adv-x="1505" d="M131 0v991h408l217 -667l231 667h387v-764h131l-205 -501h-288l110 274h-20v676h-10l-238 -676h-219l-229 676h-11v-676h-264z" />
<glyph unicode="&#x4cf;" horiz-adv-x="577" d="M139 0v1434h299v-1434h-299z" />
<glyph unicode="&#x4d0;" horiz-adv-x="1368" d="M4 0l492 1329h389l479 -1329h-324l-118 350h-486l-117 -350h-315zM274 1792h256q10 -88 46 -125t110 -37t109.5 37t46.5 125h256q0 -143 -104.5 -232.5t-307.5 -89.5t-307.5 89.5t-104.5 232.5zM508 563h344l-168 500h-8z" />
<glyph unicode="&#x4d1;" horiz-adv-x="1155" d="M80 297q0 119 29.5 186.5t96 97t183.5 29.5h336v68q0 63 -17.5 94t-63.5 43t-138 12q-127 0 -348 -24v188q162 20 379 21q190 0 293.5 -29t148.5 -98.5t45 -202.5v-682h-293v90q-35 -59 -94 -84q-59 -27 -225 -26q-140 0 -208.5 25.5t-96 92t-27.5 199.5zM203 1413h211 q6 -82 40.5 -121t102.5 -39q70 0 103.5 38t39.5 122h211q4 -135 -93 -218t-261 -83t-260 82t-94 219zM373 303q0 -68 10 -94.5t40 -34.5t105 -8q90 0 129 6q29 4 40.5 12.5t19.5 26.5q8 14 8 43v192h-205q-70 0 -98.5 -9t-38.5 -36.5t-10 -97.5z" />
<glyph unicode="&#x4d2;" horiz-adv-x="1368" d="M4 0l492 1329h389l479 -1329h-324l-118 350h-486l-117 -350h-315zM360 1505v242h258v-242h-258zM508 563h344l-168 500h-8zM749 1505v242h258v-242h-258z" />
<glyph unicode="&#x4d3;" horiz-adv-x="1155" d="M80 297q0 119 29.5 186.5t96 97t183.5 29.5h336v68q0 63 -17.5 94t-63.5 43t-138 12q-127 0 -348 -24v188q162 20 379 21q190 0 293.5 -29t148.5 -98.5t45 -202.5v-682h-293v90q-35 -59 -94 -84q-59 -27 -225 -26q-140 0 -208.5 25.5t-96 92t-27.5 199.5zM233 1157v242 h258v-242h-258zM373 303q0 -68 10 -94.5t40 -34.5t105 -8q90 0 129 6q29 4 40.5 12.5t19.5 26.5q8 14 8 43v192h-205q-70 0 -98.5 -9t-38.5 -36.5t-10 -97.5zM622 1157v242h258v-242h-258z" />
<glyph unicode="&#x4d4;" horiz-adv-x="2027" d="M0 0l676 1329h1259v-227h-659v-305h592v-228h-592v-342h680v-227h-993v350h-461l-162 -350h-340zM598 563h365v539h-117z" />
<glyph unicode="&#x4d5;" horiz-adv-x="1730" d="M80 297q0 119 29.5 186.5t96 97t183.5 29.5h336v68q0 63 -17.5 94t-63.5 43t-138 12q-127 0 -348 -24v188q162 20 379 21q229 0 329 -64q106 63 318 64q233 0 340.5 -81t107.5 -274v-241h-633v-90q0 -88 59.5 -124t219.5 -36q143 0 328 43v-191q-182 -39 -385 -38 q-356 0 -455 157q-33 -63 -72 -97t-103.5 -47t-178.5 -13q-140 0 -208.5 25.5t-96 92t-27.5 199.5zM373 303q0 -68 10 -94.5t40 -34.5t105 -8q90 0 129 6q29 4 40.5 12.5t19.5 26.5q8 14 8 43v192h-205q-70 0 -98.5 -9t-38.5 -36.5t-10 -97.5zM999 586h351v143 q0 51 -38 74.5t-132 23.5q-109 0 -144 -24q-37 -25 -37 -74v-143z" />
<glyph unicode="&#x4d6;" horiz-adv-x="1249" d="M143 0v1329h1014v-227h-694v-305h627v-228h-627v-342h715v-227h-1035zM276 1792h256q10 -88 46 -125t110 -37t109.5 37t46.5 125h256q0 -143 -104.5 -232.5t-307.5 -89.5t-307.5 89.5t-104.5 232.5z" />
<glyph unicode="&#x4d7;" horiz-adv-x="1144" d="M102 301v356q0 186 120 270.5t370 84.5q236 0 345.5 -81t109.5 -274v-241h-644v-90q0 -86 61.5 -123t221.5 -37q147 0 332 43v-191q-182 -39 -389 -38q-527 -1 -527 321zM240 1413h211q6 -82 40.5 -121t102.5 -39q70 0 103.5 38t39.5 122h211q4 -135 -93 -218t-261 -83 t-260 82t-94 219zM403 586h359v143q0 49 -40 73.5t-134 24.5q-109 0 -146 -24q-39 -27 -39 -74v-143z" />
<glyph unicode="&#x4d8;" horiz-adv-x="1490" d="M115 369v383h942v149q0 109 -106.5 165t-305.5 56q-127 0 -232.5 -14t-240.5 -45v240q133 25 244.5 36t261.5 11q193 0 339 -25t252.5 -117t106.5 -278v-561q0 -209 -184 -299t-444 -90q-299 0 -466 94t-167 295zM434 371q0 -92 75 -128t236 -36q164 0 238 34.5t74 129.5 v161h-623v-161z" />
<glyph unicode="&#x4d9;" horiz-adv-x="1144" d="M98 334v241h643v91q0 86 -61.5 122.5t-220.5 36.5q-147 0 -332 -43v191q182 39 389 39q526 0 526 -322v-356q0 -186 -119.5 -270t-369.5 -84q-236 0 -345.5 80.5t-109.5 273.5zM383 262q0 -49 40 -73.5t134 -24.5q109 0 146.5 24.5t37.5 73.5v144h-358v-144z" />
<glyph unicode="&#x4da;" horiz-adv-x="1490" d="M115 383v358h942v160q0 109 -106.5 165t-305.5 56q-223 0 -479 -59v242q219 45 512 45q133 0 230.5 -11.5t185.5 -40.5q283 -88 282 -374v-541q0 -98 -44 -177t-113 -122q-66 -41 -156 -68q-86 -23 -154.5 -29.5t-160.5 -6.5q-94 0 -164 7t-156 29q-143 39 -226 126 t-87 241zM422 1495v242h258v-242h-258zM434 381q0 -94 76 -134t235 -40q160 0 236 39t76 135v151h-623v-151zM811 1495v242h258v-242h-258z" />
<glyph unicode="&#x4db;" horiz-adv-x="1144" d="M102 334v241h643v91q0 86 -61 122.5t-221 36.5q-147 0 -332 -43v191q182 39 389 39q526 0 527 -322v-356q0 -186 -120 -270t-370 -84q-236 0 -345.5 80.5t-109.5 273.5zM248 1157v242h258v-242h-258zM387 262q0 -49 40 -73.5t134 -24.5q104 0 144 23.5t40 74.5v144h-358 v-144zM637 1157v242h258v-242h-258z" />
<glyph unicode="&#x4dc;" horiz-adv-x="2004" d="M10 0l236 434q66 121 134.5 184.5t170.5 88.5v4q-80 31 -127 77t-109 142l-254 399h355l219 -360q61 -100 103 -135t108 -35v530h313v-530q66 0 108 34.5t103 135.5l219 360h355l-254 -399q-61 -96 -108.5 -142.5t-127.5 -76.5v-4q102 -25 171 -88.5t134 -184.5l236 -434 h-355l-217 391q-47 86 -77.5 124t-71.5 53.5t-115 15.5v-584h-313v584q-74 0 -115 -15.5t-71.5 -53.5t-77.5 -124l-217 -391h-355zM680 1505v242h258v-242h-258zM1069 1505v242h258v-242h-258z" />
<glyph unicode="&#x4dd;" horiz-adv-x="1671" d="M10 0l238 379q74 119 155 158l-329 454h299l227 -352q20 -31 39.5 -43t52.5 -12v407h287v-407q33 0 52.5 12t39.5 43l227 352h299l-329 -454q82 -39 155 -158l238 -379h-332l-194 324q-33 57 -65 73.5t-91 16.5v-414h-287v414q-59 0 -91 -16.5t-64 -73.5l-195 -324h-332z M512 1157v242h258v-242h-258zM901 1157v242h258v-242h-258z" />
<glyph unicode="&#x4de;" horiz-adv-x="1167" d="M61 25v241q143 -33 235.5 -46t201.5 -13q156 0 215 31.5t59 101.5v129q0 63 -62.5 81.5t-197.5 18.5h-264v228h264q90 0 135 12t61.5 35.5t16.5 68.5v105q0 63 -49 83.5t-178 20.5q-170 0 -410 -59v240q250 47 469 47q258 0 372.5 -58.5t114.5 -201.5v-213 q0 -59 -40.5 -103.5t-98.5 -58.5v-6q186 -53 187 -199v-215q0 -158 -138.5 -236.5t-406.5 -78.5q-275 0 -486 45zM250 1505v242h258v-242h-258zM639 1505v242h258v-242h-258z" />
<glyph unicode="&#x4df;" horiz-adv-x="1024" d="M57 14v197q121 -27 197 -36t149 -9q96 0 145.5 8t70 31.5t20.5 68.5v41q0 59 -46 81t-165 22h-201v186h201q94 0 126 24.5t32 80.5v18q0 41 -13.5 61.5t-51.5 29.5t-118 9q-76 0 -142 -11t-177 -38v197q201 37 385 37q172 0 260 -20.5t122 -69t34 -140.5v-86 q0 -61 -35 -102t-92 -55v-11q86 -18 133 -68t47 -116v-84q0 -109 -54.5 -170t-166 -85.5t-293.5 -24.5q-183 -1 -367 34zM168 1157v242h258v-242h-258zM557 1157v242h258v-242h-258z" />
<glyph unicode="&#x4e0;" horiz-adv-x="1236" d="M70 414l235 59q43 -123 123 -209q84 -84 166 -84q102 0 166.5 59.5t64.5 157.5q0 100 -64.5 158.5t-178.5 58.5h-131v174l331 340h-663v201h1009v-174l-344 -360q147 -41 236.5 -146.5t89.5 -245.5q0 -197 -141 -311q-137 -113 -375 -112q-397 0 -524 434z" />
<glyph unicode="&#x4e1;" horiz-adv-x="1116" d="M55 57l236 19q18 -111 81.5 -177.5t145.5 -66.5q94 0 153.5 78t59.5 199q0 117 -65.5 184t-173.5 67h-136v179l248 256h-506v196h858v-145l-290 -293q152 -33 247 -154q94 -115 95 -276q-1 -207 -140 -346q-137 -141 -350 -142q-193 0 -319 113q-129 117 -144 309z" />
<glyph unicode="&#x4e2;" horiz-adv-x="1499" d="M143 0v1329h320v-909l573 909h320v-1329h-320v924l-573 -924h-320zM424 1475v182h651v-182h-651z" />
<glyph unicode="&#x4e3;" horiz-adv-x="1251" d="M131 0v991h299v-647l391 647h299v-991h-299v666l-391 -666h-299zM342 1147v182h569v-182h-569z" />
<glyph unicode="&#x4e4;" horiz-adv-x="1499" d="M143 0v1329h320v-909l573 909h320v-1329h-320v924l-573 -924h-320zM426 1505v242h258v-242h-258zM815 1505v242h258v-242h-258z" />
<glyph unicode="&#x4e5;" horiz-adv-x="1251" d="M131 0v991h299v-647l391 647h299v-991h-299v666l-391 -666h-299zM303 1157v242h258v-242h-258zM692 1157v242h258v-242h-258z" />
<glyph unicode="&#x4e6;" horiz-adv-x="1490" d="M115 365v581q0 98 44 176t113 123q61 39 151.5 65.5t168.5 32.5q72 6 151 7q94 0 164 -7.5t156 -29.5q98 -29 161.5 -70t106.5 -115q45 -76 45 -182v-581q0 -111 -58 -191t-161 -121q-184 -74 -414 -73q-110 0 -203.5 14t-193.5 49q-109 37 -170 120t-61 202zM422 1505 v242h258v-242h-258zM434 365q0 -51 26.5 -85t78.5 -49q49 -14 95 -19t114 -5q67 0 113 5t95 19t75 48t26 86v583q0 94 -76 134t-236 40t-235.5 -39t-75.5 -135v-583zM811 1505v242h258v-242h-258z" />
<glyph unicode="&#x4e7;" horiz-adv-x="1212" d="M102 340v293q0 98 31 172t80 115q43 35 113.5 58t138.5 30q78 4 141 4q94 0 150.5 -5.5t124.5 -25.5q74 -23 120 -61.5t78 -110.5q31 -74 31 -176v-293q0 -92 -29.5 -161.5t-76.5 -108.5q-41 -35 -112 -56.5t-138 -27.5q-61 -6 -148 -6q-92 0 -151.5 6t-126.5 24 q-74 20 -119 58t-76 108q-31 68 -31 164zM283 1157v242h258v-242h-258zM401 305q0 -55 17.5 -83.5t60.5 -42t127 -13.5t127 13.5t60.5 42t17.5 83.5v375q0 82 -43 114.5t-162 32.5t-162 -32.5t-43 -114.5v-375zM672 1157v242h258v-242h-258z" />
<glyph unicode="&#x4e8;" horiz-adv-x="1490" d="M115 365v581q0 98 44 176t113 123q61 39 151.5 65.5t168.5 32.5q72 6 151 7q94 0 164 -7.5t156 -29.5q98 -29 161.5 -70t106.5 -115q45 -76 45 -182v-581q0 -111 -58 -191t-161 -121q-184 -74 -414 -73q-111 0 -204 14t-193 49q-109 37 -170 120t-61 202zM434 365 q0 -51 26.5 -85t78.5 -49q49 -14 95 -19t114 -5t113.5 5t94.5 19q50 15 75.5 48.5t25.5 85.5v204h-623v-204zM434 797h623v151q0 94 -76 134t-236 40q-159 0 -235 -39t-76 -135v-151z" />
<glyph unicode="&#x4e9;" horiz-adv-x="1212" d="M102 340v293q0 98 31 172t80 115q43 35 113.5 58t138.5 30q78 4 141 4q94 0 150.5 -5.5t124.5 -25.5q74 -23 120 -61.5t78 -110.5q31 -74 31 -176v-293q0 -92 -29.5 -161.5t-76.5 -108.5q-41 -35 -112 -56.5t-138 -27.5q-61 -6 -148 -6q-92 0 -151.5 6t-126.5 24 q-74 20 -119 58t-76 108q-31 68 -31 164zM401 305q0 -55 17.5 -83.5t60.5 -42t127 -13.5t127 13.5t60.5 42t17.5 83.5v109h-410v-109zM401 608h410v72q0 82 -43 114.5t-162 32.5t-162 -32.5t-43 -114.5v-72z" />
<glyph unicode="&#x4ea;" horiz-adv-x="1490" d="M115 365v581q0 98 44 176t111 123q68 41 158 66q84 25 153.5 32t161.5 7q94 0 165 -7.5t155 -31.5q305 -76 313 -365v-581q0 -109 -58 -190t-161 -124q-186 -72 -414 -71q-111 0 -204 14t-195 49q-106 37 -167.5 120t-61.5 202zM422 1495v242h258v-242h-258zM434 365 q0 -51 26.5 -85t76.5 -49q51 -14 97 -19t114 -5t113.5 5t94.5 19t75 48t26 86v204h-623v-204zM434 797h623v151q0 94 -76 134t-236 40t-235.5 -39t-75.5 -135v-151zM811 1495v242h258v-242h-258z" />
<glyph unicode="&#x4eb;" horiz-adv-x="1212" d="M102 340v293q0 98 31 172t78 115q43 37 121 59q68 20 123 26.5t151 6.5t151.5 -6.5t123.5 -26.5q109 -29 166 -111t63 -235v-293q0 -92 -29.5 -161.5t-76.5 -110.5q-45 -35 -119 -58q-68 -18 -127.5 -24t-151.5 -6t-151.5 6t-128.5 24q-104 29 -162 108t-62 222z M283 1157v242h258v-242h-258zM401 305q0 -55 17.5 -83.5t60.5 -42t127 -13.5t127 13.5t60.5 42t17.5 83.5v109h-410v-109zM401 608h410v72q0 82 -43 114.5t-162 32.5t-162 -32.5t-43 -114.5v-72zM672 1157v242h258v-242h-258z" />
<glyph unicode="&#x4ec;" horiz-adv-x="1222" d="M61 25v241q256 -59 398 -59q330 0 329 180v182h-542v228h542v155q0 113 -88 146q-41 16 -81.5 20t-116.5 4q-162 0 -391 -53v240q252 41 421 41q127 0 209 -8.5t154 -32.5q109 -35 161 -121t52 -240v-583q0 -94 -41 -167t-109 -118q-57 -37 -151 -64 q-82 -23 -153.5 -29.5t-161.5 -6.5q-211 0 -431 45zM287 1495v242h258v-242h-258zM676 1495v242h258v-242h-258z" />
<glyph unicode="&#x4ed;" horiz-adv-x="1042" d="M61 14v197q207 -45 367 -45q84 0 128 11t62.5 37t18.5 77v121h-475v186h475v107q0 51 -16.5 76.5t-55.5 35.5t-116 10q-160 0 -373 -49v197q188 37 395 37q78 0 104 -2q43 0 98.5 -9.5t86.5 -21.5q180 -61 180 -328v-329q0 -203 -123 -277q-43 -27 -79 -38t-93 -17 q-55 -6 -99 -8t-100 -2q-199 0 -385 34zM197 1157v242h258v-242h-258zM586 1157v242h258v-242h-258z" />
<glyph unicode="&#x4ee;" horiz-adv-x="1245" d="M4 1329h334l334 -667h8l264 667h322l-482 -1067q-66 -147 -166 -214.5t-282 -67.5q-74 0 -178 20v233q43 -10 85 -18t81 -8q57 0 97 27.5t68 84.5l29 60zM328 1475v182h651v-182h-651z" />
<glyph unicode="&#x4ef;" horiz-adv-x="1093" d="M16 991h326l223 -700l203 700h309l-542 -1417h-304l181 434zM283 1147v182h569v-182h-569z" />
<glyph unicode="&#x4f0;" horiz-adv-x="1245" d="M4 1329h334l334 -667h8l264 667h322l-482 -1067q-66 -147 -166 -214.5t-282 -67.5q-74 0 -178 20v233q43 -10 85 -18t81 -8q57 0 97 27.5t68 84.5l29 60zM330 1505v242h258v-242h-258zM719 1505v242h258v-242h-258z" />
<glyph unicode="&#x4f1;" horiz-adv-x="1093" d="M16 991h326l223 -700l203 700h309l-542 -1417h-304l181 434zM244 1157v242h258v-242h-258zM633 1157v242h258v-242h-258z" />
<glyph unicode="&#x4f2;" horiz-adv-x="1245" d="M4 1329h334l334 -667h8l264 667h322l-482 -1067q-66 -147 -166 -214.5t-282 -67.5q-74 0 -178 20v233q43 -10 85 -18t81 -8q57 0 97 27.5t68 84.5l29 60zM393 1479l144 262h196l-143 -262h-197zM694 1479l144 262h196l-143 -262h-197z" />
<glyph unicode="&#x4f3;" horiz-adv-x="1093" d="M16 991h326l223 -700l203 700h309l-542 -1417h-304l181 434zM287 1130l144 263h196l-143 -263h-197zM588 1130l144 263h196l-143 -263h-197z" />
<glyph unicode="&#x4f4;" horiz-adv-x="1370" d="M117 799v530h315v-506q0 -98 48 -132t126 -34q86 0 168 27t133 68v577h320v-1329h-320v508q-164 -92 -391 -92q-168 0 -283.5 87t-115.5 296zM362 1505v242h258v-242h-258zM751 1505v242h258v-242h-258z" />
<glyph unicode="&#x4f5;" horiz-adv-x="1146" d="M94 596v395h291v-350q0 -61 8 -94t38 -49.5t93 -16.5q88 0 129 17.5t52.5 50.5t11.5 98v344h299v-991h-299v438q-41 -143 -303 -143q-176 0 -248 74.5t-72 226.5zM221 1157v242h258v-242h-258zM610 1157v242h258v-242h-258z" />
<glyph unicode="&#x4f6;" horiz-adv-x="1071" d="M143 0v1329h887v-227h-567v-875h196v-536h-286v309h-230z" />
<glyph unicode="&#x4f7;" horiz-adv-x="894" d="M131 0v991h723v-196h-424v-598h154v-471h-246v274h-207z" />
<glyph unicode="&#x4f8;" horiz-adv-x="1835" d="M143 0v1329h320v-487h168q182 0 294.5 -18.5t178 -79t65.5 -179.5v-250q0 -315 -536 -315h-490zM461 227h157q121 0 176.5 34t55.5 104v141q0 63 -53.5 85.5t-173.5 22.5h-162v-387zM594 1505v242h258v-242h-258zM983 1505v242h258v-242h-258zM1372 0v1329h320v-1329 h-320z" />
<glyph unicode="&#x4f9;" horiz-adv-x="1597" d="M131 0v991h299v-332h102q207 0 304.5 -22.5t133.5 -78.5t36 -177v-117q0 -143 -112 -203.5t-355 -60.5h-408zM426 186h98q82 0 121 11.5t51.5 36t12.5 73.5v55q0 45 -15.5 69t-53.5 32t-112 8h-102v-285zM475 1157v242h258v-242h-258zM864 1157v242h258v-242h-258z M1167 0v991h299v-991h-299z" />
<glyph unicode="&#x2000;" horiz-adv-x="896" />
<glyph unicode="&#x2001;" horiz-adv-x="1792" />
<glyph unicode="&#x2002;" horiz-adv-x="896" />
<glyph unicode="&#x2003;" horiz-adv-x="1792" />
<glyph unicode="&#x2004;" horiz-adv-x="597" />
<glyph unicode="&#x2005;" horiz-adv-x="448" />
<glyph unicode="&#x2006;" horiz-adv-x="298" />
<glyph unicode="&#x2007;" horiz-adv-x="298" />
<glyph unicode="&#x2008;" horiz-adv-x="224" />
<glyph unicode="&#x2009;" horiz-adv-x="358" />
<glyph unicode="&#x200a;" horiz-adv-x="99" />
<glyph unicode="&#x2010;" horiz-adv-x="794" d="M82 471v229h631v-229h-631z" />
<glyph unicode="&#x2011;" horiz-adv-x="794" d="M82 471v229h631v-229h-631z" />
<glyph unicode="&#x2012;" horiz-adv-x="794" d="M82 471v229h631v-229h-631z" />
<glyph unicode="&#x2013;" d="M145 489v207h897v-207h-897z" />
<glyph unicode="&#x2014;" horiz-adv-x="1675" d="M82 489v207h1511v-207h-1511z" />
<glyph unicode="&#x2018;" horiz-adv-x="524" d="M59 879l193 450h213l-94 -450h-312z" />
<glyph unicode="&#x2019;" horiz-adv-x="524" d="M92 879l94 450h312l-193 -450h-213z" />
<glyph unicode="&#x201a;" horiz-adv-x="524" d="M41 -223l94 450h311l-192 -450h-213z" />
<glyph unicode="&#x201c;" horiz-adv-x="974" d="M59 879l193 450h213l-94 -450h-312zM510 879l192 450h213l-94 -450h-311z" />
<glyph unicode="&#x201d;" horiz-adv-x="954" d="M92 879l94 450h312l-193 -450h-213zM522 879l94 450h312l-193 -450h-213z" />
<glyph unicode="&#x201e;" horiz-adv-x="974" d="M41 -223l94 450h311l-192 -450h-213zM492 -223l94 450h311l-192 -450h-213z" />
<glyph unicode="&#x2022;" horiz-adv-x="980" d="M113 592q0 104 50 190t136 136.5t190 50.5q156 0 269 -109q111 -111 110 -268q0 -104 -51 -190.5t-137 -137.5t-188 -51q-105 0 -192 50t-137 137t-50 192z" />
<glyph unicode="&#x2026;" horiz-adv-x="1572" d="M102 0v283h320v-283h-320zM627 0v283h319v-283h-319zM1151 0v283h319v-283h-319z" />
<glyph unicode="&#x202f;" horiz-adv-x="358" />
<glyph unicode="&#x2039;" horiz-adv-x="626" d="M82 537l205 393h258l-189 -393l189 -394h-258z" />
<glyph unicode="&#x203a;" horiz-adv-x="626" d="M82 143l188 394l-188 393h258l205 -393l-205 -394h-258z" />
<glyph unicode="&#x205f;" horiz-adv-x="448" />
<glyph unicode="&#x20ac;" horiz-adv-x="1210" d="M51 399v187h162v116h-162v187h162v33q0 389 551 389q160 0 401 -37l-59 -205q-193 35 -348 35q-131 -4 -192.5 -38t-61.5 -132v-45h549l-52 -187h-497v-116h465l-51 -187h-414v-51q0 -94 81 -127t236 -33q193 0 316 31v-213q-125 -27 -349 -26q-285 0 -425 78.5 t-150 285.5v55h-162z" />
<glyph unicode="&#x2122;" horiz-adv-x="1341" d="M41 1212v117h514v-117h-180v-419h-152v419h-182zM600 793v536h186l152 -362l141 362h181v-536h-140v307l-125 -307h-123l-131 313v-313h-141z" />
<glyph unicode="&#x25fc;" horiz-adv-x="993" d="M0 0v993h993v-993h-993z" />
</font>
</defs>
</svg>
